<svg width="330" height="225" viewBox="0 0 330 225" fill="none" xmlns="http://www.w3.org/2000/svg">
<path d="M48.3125 55.0312L54.8125 29.1875H60.5938L50.75 63H46.0625L37.8438 37.375L29.8438 63H25.1562L15.3438 29.1875H21.0938L27.75 54.5L35.625 29.1875H40.2812L48.3125 55.0312ZM72.2812 33.2812C74.8438 30.1354 78.1771 28.5625 82.2812 28.5625C89.4271 28.5625 93.0312 32.5938 93.0938 40.6562V63H87.3125V40.625C87.2917 38.1875 86.7292 36.3854 85.625 35.2188C84.5417 34.0521 82.8438 33.4688 80.5312 33.4688C78.6562 33.4688 77.0104 33.9688 75.5938 34.9688C74.1771 35.9688 73.0729 37.2812 72.2812 38.9062V63H66.5V15H72.2812V33.2812ZM122.625 63C122.292 62.3333 122.021 61.1458 121.812 59.4375C119.125 62.2292 115.917 63.625 112.188 63.625C108.854 63.625 106.115 62.6875 103.969 60.8125C101.844 58.9167 100.781 56.5208 100.781 53.625C100.781 50.1042 102.115 47.375 104.781 45.4375C107.469 43.4792 111.24 42.5 116.094 42.5H121.719V39.8438C121.719 37.8229 121.115 36.2188 119.906 35.0312C118.698 33.8229 116.917 33.2188 114.562 33.2188C112.5 33.2188 110.771 33.7396 109.375 34.7812C107.979 35.8229 107.281 37.0833 107.281 38.5625H101.469C101.469 36.875 102.062 35.25 103.25 33.6875C104.458 32.1042 106.083 30.8542 108.125 29.9375C110.188 29.0208 112.448 28.5625 114.906 28.5625C118.802 28.5625 121.854 29.5417 124.062 31.5C126.271 33.4375 127.417 36.1146 127.5 39.5312V55.0938C127.5 58.1979 127.896 60.6667 128.688 62.5V63H122.625ZM113.031 58.5938C114.844 58.5938 116.562 58.125 118.188 57.1875C119.812 56.25 120.99 55.0312 121.719 53.5312V46.5938H117.188C110.104 46.5938 106.562 48.6667 106.562 52.8125C106.562 54.625 107.167 56.0417 108.375 57.0625C109.583 58.0833 111.135 58.5938 113.031 58.5938ZM147.125 54.5312L155 29.1875H161.188L147.594 68.2188C145.49 73.8438 142.146 76.6562 137.562 76.6562L136.469 76.5625L134.312 76.1562V71.4688L135.875 71.5938C137.833 71.5938 139.354 71.1979 140.438 70.4062C141.542 69.6146 142.448 68.1667 143.156 66.0625L144.438 62.625L132.375 29.1875H138.688L147.125 54.5312ZM38.0625 129.031C38.0625 127.469 37.4688 126.26 36.2812 125.406C35.1146 124.531 33.0625 123.781 30.125 123.156C27.2083 122.531 24.8854 121.781 23.1562 120.906C21.4479 120.031 20.1771 118.99 19.3438 117.781C18.5312 116.573 18.125 115.135 18.125 113.469C18.125 110.698 19.2917 108.354 21.625 106.438C23.9792 104.521 26.9792 103.562 30.625 103.562C34.4583 103.562 37.5625 104.552 39.9375 106.531C42.3333 108.51 43.5312 111.042 43.5312 114.125H37.7188C37.7188 112.542 37.0417 111.177 35.6875 110.031C34.3542 108.885 32.6667 108.312 30.625 108.312C28.5208 108.312 26.875 108.771 25.6875 109.688C24.5 110.604 23.9062 111.802 23.9062 113.281C23.9062 114.677 24.4583 115.729 25.5625 116.438C26.6667 117.146 28.6562 117.823 31.5312 118.469C34.4271 119.115 36.7708 119.885 38.5625 120.781C40.3542 121.677 41.6771 122.76 42.5312 124.031C43.4062 125.281 43.8438 126.812 43.8438 128.625C43.8438 131.646 42.6354 134.073 40.2188 135.906C37.8021 137.719 34.6667 138.625 30.8125 138.625C28.1042 138.625 25.7083 138.146 23.625 137.188C21.5417 136.229 19.9062 134.896 18.7188 133.188C17.5521 131.458 16.9688 129.594 16.9688 127.594H22.75C22.8542 129.531 23.625 131.073 25.0625 132.219C26.5208 133.344 28.4375 133.906 30.8125 133.906C33 133.906 34.75 133.469 36.0625 132.594C37.3958 131.698 38.0625 130.51 38.0625 129.031ZM57.1562 108.281C59.7188 105.135 63.0521 103.562 67.1562 103.562C74.3021 103.562 77.9062 107.594 77.9688 115.656V138H72.1875V115.625C72.1667 113.188 71.6042 111.385 70.5 110.219C69.4167 109.052 67.7188 108.469 65.4062 108.469C63.5312 108.469 61.8854 108.969 60.4688 109.969C59.0521 110.969 57.9479 112.281 57.1562 113.906V138H51.375V90H57.1562V108.281ZM85.0938 120.781C85.0938 117.469 85.7396 114.49 87.0312 111.844C88.3438 109.198 90.1562 107.156 92.4688 105.719C94.8021 104.281 97.4583 103.562 100.438 103.562C105.042 103.562 108.76 105.156 111.594 108.344C114.448 111.531 115.875 115.771 115.875 121.062V121.469C115.875 124.76 115.24 127.719 113.969 130.344C112.719 132.948 110.917 134.979 108.562 136.438C106.229 137.896 103.542 138.625 100.5 138.625C95.9167 138.625 92.1979 137.031 89.3438 133.844C86.5104 130.656 85.0938 126.438 85.0938 121.188V120.781ZM90.9062 121.469C90.9062 125.219 91.7708 128.229 93.5 130.5C95.25 132.771 97.5833 133.906 100.5 133.906C103.438 133.906 105.771 132.76 107.5 130.469C109.229 128.156 110.094 124.927 110.094 120.781C110.094 117.073 109.208 114.073 107.438 111.781C105.688 109.469 103.354 108.312 100.438 108.312C97.5833 108.312 95.2812 109.448 93.5312 111.719C91.7812 113.99 90.9062 117.24 90.9062 121.469ZM144 134.656C141.75 137.302 138.448 138.625 134.094 138.625C130.49 138.625 127.74 137.583 125.844 135.5C123.969 133.396 123.021 130.292 123 126.188V104.188H128.781V126.031C128.781 131.156 130.865 133.719 135.031 133.719C139.448 133.719 142.385 132.073 143.844 128.781V104.188H149.625V138H144.125L144 134.656ZM164.719 138H158.938V90H164.719V138ZM172.594 120.812C172.594 115.625 173.823 111.458 176.281 108.312C178.74 105.146 181.958 103.562 185.938 103.562C189.896 103.562 193.031 104.917 195.344 107.625V90H201.125V138H195.812L195.531 134.375C193.219 137.208 190 138.625 185.875 138.625C181.958 138.625 178.76 137.021 176.281 133.812C173.823 130.604 172.594 126.417 172.594 121.25V120.812ZM178.375 121.469C178.375 125.302 179.167 128.302 180.75 130.469C182.333 132.635 184.521 133.719 187.312 133.719C190.979 133.719 193.656 132.073 195.344 128.781V113.25C193.615 110.062 190.958 108.469 187.375 108.469C184.542 108.469 182.333 109.562 180.75 111.75C179.167 113.938 178.375 117.177 178.375 121.469ZM237.062 129.531L244.938 104.188H251.125L237.531 143.219C235.427 148.844 232.083 151.656 227.5 151.656L226.406 151.562L224.25 151.156V146.469L225.812 146.594C227.771 146.594 229.292 146.198 230.375 145.406C231.479 144.615 232.385 143.167 233.094 141.062L234.375 137.625L222.312 104.188H228.625L237.062 129.531ZM254.281 120.781C254.281 117.469 254.927 114.49 256.219 111.844C257.531 109.198 259.344 107.156 261.656 105.719C263.99 104.281 266.646 103.562 269.625 103.562C274.229 103.562 277.948 105.156 280.781 108.344C283.635 111.531 285.062 115.771 285.062 121.062V121.469C285.062 124.76 284.427 127.719 283.156 130.344C281.906 132.948 280.104 134.979 277.75 136.438C275.417 137.896 272.729 138.625 269.688 138.625C265.104 138.625 261.385 137.031 258.531 133.844C255.698 130.656 254.281 126.438 254.281 121.188V120.781ZM260.094 121.469C260.094 125.219 260.958 128.229 262.688 130.5C264.438 132.771 266.771 133.906 269.688 133.906C272.625 133.906 274.958 132.76 276.688 130.469C278.417 128.156 279.281 124.927 279.281 120.781C279.281 117.073 278.396 114.073 276.625 111.781C274.875 109.469 272.542 108.312 269.625 108.312C266.771 108.312 264.469 109.448 262.719 111.719C260.969 113.99 260.094 117.24 260.094 121.469ZM313.188 134.656C310.938 137.302 307.635 138.625 303.281 138.625C299.677 138.625 296.927 137.583 295.031 135.5C293.156 133.396 292.208 130.292 292.188 126.188V104.188H297.969V126.031C297.969 131.156 300.052 133.719 304.219 133.719C308.635 133.719 311.573 132.073 313.031 128.781V104.188H318.812V138H313.312L313.188 134.656ZM23.8125 179.188L23.9688 182.938C26.4479 180.021 29.7917 178.562 34 178.562C38.7292 178.562 41.9479 180.375 43.6562 184C44.7812 182.375 46.2396 181.062 48.0312 180.062C49.8438 179.062 51.9792 178.562 54.4375 178.562C61.8542 178.562 65.625 182.49 65.75 190.344V213H59.9688V190.688C59.9688 188.271 59.4167 186.469 58.3125 185.281C57.2083 184.073 55.3542 183.469 52.75 183.469C50.6042 183.469 48.8229 184.115 47.4062 185.406C45.9896 186.677 45.1667 188.396 44.9375 190.562V213H39.125V190.844C39.125 185.927 36.7188 183.469 31.9062 183.469C28.1146 183.469 25.5208 185.083 24.125 188.312V213H18.3438V179.188H23.8125ZM88.5312 213.625C83.9479 213.625 80.2188 212.125 77.3438 209.125C74.4688 206.104 73.0312 202.073 73.0312 197.031V195.969C73.0312 192.615 73.6667 189.625 74.9375 187C76.2292 184.354 78.0208 182.292 80.3125 180.812C82.625 179.312 85.125 178.562 87.8125 178.562C92.2083 178.562 95.625 180.01 98.0625 182.906C100.5 185.802 101.719 189.948 101.719 195.344V197.75H78.8125C78.8958 201.083 79.8646 203.781 81.7188 205.844C83.5938 207.885 85.9688 208.906 88.8438 208.906C90.8854 208.906 92.6146 208.49 94.0312 207.656C95.4479 206.823 96.6875 205.719 97.75 204.344L101.281 207.094C98.4479 211.448 94.1979 213.625 88.5312 213.625ZM87.8125 183.312C85.4792 183.312 83.5208 184.167 81.9375 185.875C80.3542 187.562 79.375 189.938 79 193H95.9375V192.562C95.7708 189.625 94.9792 187.354 93.5625 185.75C92.1458 184.125 90.2292 183.312 87.8125 183.312ZM107.031 195.812C107.031 190.625 108.26 186.458 110.719 183.312C113.177 180.146 116.396 178.562 120.375 178.562C124.333 178.562 127.469 179.917 129.781 182.625V165H135.562V213H130.25L129.969 209.375C127.656 212.208 124.438 213.625 120.312 213.625C116.396 213.625 113.198 212.021 110.719 208.812C108.26 205.604 107.031 201.417 107.031 196.25V195.812ZM112.812 196.469C112.812 200.302 113.604 203.302 115.188 205.469C116.771 207.635 118.958 208.719 121.75 208.719C125.417 208.719 128.094 207.073 129.781 203.781V188.25C128.052 185.062 125.396 183.469 121.812 183.469C118.979 183.469 116.771 184.562 115.188 186.75C113.604 188.938 112.812 192.177 112.812 196.469ZM150.844 213H145.062V179.188H150.844V213ZM144.594 170.219C144.594 169.281 144.875 168.49 145.438 167.844C146.021 167.198 146.875 166.875 148 166.875C149.125 166.875 149.979 167.198 150.562 167.844C151.146 168.49 151.438 169.281 151.438 170.219C151.438 171.156 151.146 171.938 150.562 172.562C149.979 173.188 149.125 173.5 148 173.5C146.875 173.5 146.021 173.188 145.438 172.562C144.875 171.938 144.594 171.156 144.594 170.219ZM167.969 171V179.188H174.281V183.656H167.969V204.625C167.969 205.979 168.25 207 168.812 207.688C169.375 208.354 170.333 208.688 171.688 208.688C172.354 208.688 173.271 208.562 174.438 208.312V213C172.917 213.417 171.438 213.625 170 213.625C167.417 213.625 165.469 212.844 164.156 211.281C162.844 209.719 162.188 207.5 162.188 204.625V183.656H156.031V179.188H162.188V171H167.969ZM201.938 213C201.604 212.333 201.333 211.146 201.125 209.438C198.438 212.229 195.229 213.625 191.5 213.625C188.167 213.625 185.427 212.688 183.281 210.812C181.156 208.917 180.094 206.521 180.094 203.625C180.094 200.104 181.427 197.375 184.094 195.438C186.781 193.479 190.552 192.5 195.406 192.5H201.031V189.844C201.031 187.823 200.427 186.219 199.219 185.031C198.01 183.823 196.229 183.219 193.875 183.219C191.812 183.219 190.083 183.74 188.688 184.781C187.292 185.823 186.594 187.083 186.594 188.562H180.781C180.781 186.875 181.375 185.25 182.562 183.688C183.771 182.104 185.396 180.854 187.438 179.938C189.5 179.021 191.76 178.562 194.219 178.562C198.115 178.562 201.167 179.542 203.375 181.5C205.583 183.438 206.729 186.115 206.812 189.531V205.094C206.812 208.198 207.208 210.667 208 212.5V213H201.938ZM192.344 208.594C194.156 208.594 195.875 208.125 197.5 207.188C199.125 206.25 200.302 205.031 201.031 203.531V196.594H196.5C189.417 196.594 185.875 198.667 185.875 202.812C185.875 204.625 186.479 206.042 187.688 207.062C188.896 208.083 190.448 208.594 192.344 208.594ZM223.719 171V179.188H230.031V183.656H223.719V204.625C223.719 205.979 224 207 224.562 207.688C225.125 208.354 226.083 208.688 227.438 208.688C228.104 208.688 229.021 208.562 230.188 208.312V213C228.667 213.417 227.188 213.625 225.75 213.625C223.167 213.625 221.219 212.844 219.906 211.281C218.594 209.719 217.938 207.5 217.938 204.625V183.656H211.781V179.188H217.938V171H223.719ZM250.844 213.625C246.26 213.625 242.531 212.125 239.656 209.125C236.781 206.104 235.344 202.073 235.344 197.031V195.969C235.344 192.615 235.979 189.625 237.25 187C238.542 184.354 240.333 182.292 242.625 180.812C244.938 179.312 247.438 178.562 250.125 178.562C254.521 178.562 257.938 180.01 260.375 182.906C262.812 185.802 264.031 189.948 264.031 195.344V197.75H241.125C241.208 201.083 242.177 203.781 244.031 205.844C245.906 207.885 248.281 208.906 251.156 208.906C253.198 208.906 254.927 208.49 256.344 207.656C257.76 206.823 259 205.719 260.062 204.344L263.594 207.094C260.76 211.448 256.51 213.625 250.844 213.625ZM250.125 183.312C247.792 183.312 245.833 184.167 244.25 185.875C242.667 187.562 241.688 189.938 241.312 193H258.25V192.562C258.083 189.625 257.292 187.354 255.875 185.75C254.458 184.125 252.542 183.312 250.125 183.312ZM277.531 200.188C277.573 197.708 277.854 195.75 278.375 194.312C278.896 192.875 279.958 191.281 281.562 189.531L285.656 185.312C287.406 183.333 288.281 181.208 288.281 178.938C288.281 176.75 287.708 175.042 286.562 173.812C285.417 172.562 283.75 171.938 281.562 171.938C279.438 171.938 277.729 172.5 276.438 173.625C275.146 174.75 274.5 176.26 274.5 178.156H268.719C268.76 174.781 269.958 172.062 272.312 170C274.688 167.917 277.771 166.875 281.562 166.875C285.5 166.875 288.562 167.938 290.75 170.062C292.958 172.167 294.062 175.062 294.062 178.75C294.062 182.396 292.375 185.99 289 189.531L285.594 192.906C284.073 194.594 283.312 197.021 283.312 200.188H277.531ZM277.281 210.094C277.281 209.156 277.562 208.375 278.125 207.75C278.708 207.104 279.562 206.781 280.688 206.781C281.812 206.781 282.667 207.104 283.25 207.75C283.833 208.375 284.125 209.156 284.125 210.094C284.125 211.031 283.833 211.812 283.25 212.438C282.667 213.042 281.812 213.344 280.688 213.344C279.562 213.344 278.708 213.042 278.125 212.438C277.562 211.812 277.281 211.031 277.281 210.094Z" fill="#F4F3F3"/>
<path d="M48.3125 55.0312L37.808 58.2956L49.4289 95.6903L58.9803 57.7143L48.3125 55.0312ZM54.8125 29.1875V18.1875H46.2365L44.1447 26.5044L54.8125 29.1875ZM60.5938 29.1875L71.1553 32.2623L75.2528 18.1875H60.5938V29.1875ZM50.75 63V74H59.0043L61.3115 66.0748L50.75 63ZM46.0625 63L35.5881 66.3595L38.0386 74H46.0625V63ZM37.8438 37.375L48.3182 34.0155L37.7023 0.916549L27.3436 34.0969L37.8438 37.375ZM29.8438 63V74H37.9332L40.3439 66.2781L29.8438 63ZM25.1562 63L14.5921 66.0658L16.8946 74H25.1562V63ZM15.3438 29.1875V18.1875H0.697677L4.7796 32.2533L15.3438 29.1875ZM21.0938 29.1875L31.7321 26.39L29.5751 18.1875H21.0938V29.1875ZM27.75 54.5L17.1117 57.2975L26.863 94.3799L38.2534 57.7677L27.75 54.5ZM35.625 29.1875V18.1875H27.5272L25.1216 25.9198L35.625 29.1875ZM40.2812 29.1875L50.7857 25.9231L48.3818 18.1875H40.2812V29.1875ZM58.9803 57.7143L65.4803 31.8706L44.1447 26.5044L37.6447 52.3482L58.9803 57.7143ZM54.8125 40.1875H60.5938V18.1875H54.8125V40.1875ZM50.0322 26.1127L40.1885 59.9252L61.3115 66.0748L71.1553 32.2623L50.0322 26.1127ZM50.75 52H46.0625V74H50.75V52ZM56.5369 59.6405L48.3182 34.0155L27.3693 40.7345L35.5881 66.3595L56.5369 59.6405ZM27.3436 34.0969L19.3436 59.7219L40.3439 66.2781L48.3439 40.6531L27.3436 34.0969ZM29.8438 52H25.1562V74H29.8438V52ZM35.7204 59.9342L25.9079 26.1217L4.7796 32.2533L14.5921 66.0658L35.7204 59.9342ZM15.3438 40.1875H21.0938V18.1875H15.3438V40.1875ZM10.4554 31.985L17.1117 57.2975L38.3883 51.7025L31.7321 26.39L10.4554 31.985ZM38.2534 57.7677L46.1284 32.4552L25.1216 25.9198L17.2466 51.2323L38.2534 57.7677ZM35.625 40.1875H40.2812V18.1875H35.625V40.1875ZM29.7768 32.4519L37.808 58.2956L58.817 51.7669L50.7857 25.9231L29.7768 32.4519ZM72.2812 33.2812H61.2812V64.2025L80.8099 40.2284L72.2812 33.2812ZM93.0938 40.6562H104.094V40.6136L104.093 40.571L93.0938 40.6562ZM93.0938 63V74H104.094V63H93.0938ZM87.3125 63H76.3125V74H87.3125V63ZM87.3125 40.625H98.3125V40.578L98.3121 40.531L87.3125 40.625ZM85.625 35.2188L77.5643 42.7037L77.5998 42.742L77.6358 42.78L85.625 35.2188ZM72.2812 38.9062L62.3924 34.0886L61.2812 36.3693V38.9062H72.2812ZM72.2812 63V74H83.2812V63H72.2812ZM66.5 63H55.5V74H66.5V63ZM66.5 15V4H55.5V15H66.5ZM72.2812 15H83.2812V4H72.2812V15ZM80.8099 40.2284C81.1591 39.7996 81.3615 39.7072 81.3974 39.6903C81.4369 39.6716 81.6666 39.5625 82.2812 39.5625V17.5625C74.9138 17.5625 68.4319 20.5896 63.7526 26.3341L80.8099 40.2284ZM82.2812 39.5625C83.0595 39.5625 83.2664 39.6751 83.1142 39.618C83.0306 39.5866 82.8744 39.5169 82.6818 39.3871C82.4867 39.2557 82.3017 39.0948 82.1433 38.9176C81.8114 38.5464 81.7847 38.3216 81.856 38.5568C81.9382 38.828 82.0845 39.5036 82.0941 40.7415L104.093 40.571C104.051 35.1417 102.828 29.0463 98.5442 24.2543C94.0389 19.2152 87.923 17.5625 82.2812 17.5625V39.5625ZM82.0938 40.6562V63H104.094V40.6562H82.0938ZM93.0938 52H87.3125V74H93.0938V52ZM98.3125 63V40.625H76.3125V63H98.3125ZM98.3121 40.531C98.2795 36.7135 97.4127 31.671 93.6142 27.6575L77.6358 42.78C76.8499 41.9496 76.5059 41.1435 76.3746 40.7229C76.2563 40.3436 76.3092 40.2835 76.3129 40.719L98.3121 40.531ZM93.6857 27.7338C89.7283 23.472 84.5011 22.4688 80.5312 22.4688V44.4688C80.8036 44.4688 80.5432 44.5081 79.965 44.3094C79.3226 44.0887 78.4053 43.6094 77.5643 42.7037L93.6857 27.7338ZM80.5312 22.4688C76.579 22.4688 72.6756 23.5642 69.2502 25.9821L81.9373 43.9554C81.6937 44.1273 81.3985 44.2745 81.0881 44.3688C80.7856 44.4607 80.5802 44.4688 80.5312 44.4688V22.4688ZM69.2502 25.9821C66.2542 28.097 63.96 30.8708 62.3924 34.0886L82.1701 43.7239C82.1916 43.6799 82.1805 43.7133 82.1206 43.7845C82.0592 43.8576 81.9905 43.9178 81.9373 43.9554L69.2502 25.9821ZM61.2812 38.9062V63H83.2812V38.9062H61.2812ZM72.2812 52H66.5V74H72.2812V52ZM77.5 63V15H55.5V63H77.5ZM66.5 26H72.2812V4H66.5V26ZM61.2812 15V33.2812H83.2812V15H61.2812ZM122.625 63L112.786 67.9193L115.827 74H122.625V63ZM121.812 59.4375L132.732 58.1059L129.931 35.1433L113.888 51.8086L121.812 59.4375ZM103.969 60.8125L96.6458 69.0207L96.6881 69.0585L96.7309 69.0958L103.969 60.8125ZM104.781 45.4375L111.247 54.3366L111.253 54.3321L111.259 54.3276L104.781 45.4375ZM121.719 42.5V53.5H132.719V42.5H121.719ZM119.906 35.0312L112.128 42.8094L112.162 42.8432L112.196 42.8768L119.906 35.0312ZM107.281 38.5625V49.5625H118.281V38.5625H107.281ZM101.469 38.5625H90.4688V49.5625H101.469V38.5625ZM103.25 33.6875L94.5055 27.0141L94.4989 27.0228L94.4922 27.0316L103.25 33.6875ZM108.125 29.9375L103.657 19.8856L103.638 19.894L103.62 19.9025L108.125 29.9375ZM124.062 31.5L116.764 39.7301L116.786 39.7494L116.808 39.7687L124.062 31.5ZM127.5 39.5312H138.5V39.3971L138.497 39.263L127.5 39.5312ZM128.688 62.5H139.688V60.2265L138.786 58.1392L128.688 62.5ZM128.688 63V74H139.688V63H128.688ZM121.719 53.5312L131.612 58.3404L132.719 56.0632V53.5312H121.719ZM121.719 46.5938H132.719V35.5938H121.719V46.5938ZM132.464 58.0807C132.579 58.3112 132.663 58.5061 132.721 58.6518C132.779 58.7987 132.82 58.9155 132.845 58.9944C132.871 59.0741 132.887 59.1288 132.894 59.1537C132.9 59.1791 132.901 59.1833 132.896 59.1634C132.887 59.1202 132.864 59.0118 132.833 58.8254C132.802 58.6412 132.768 58.4035 132.732 58.1059L110.893 60.7691C111.107 62.5194 111.526 65.3987 112.786 67.9193L132.464 58.0807ZM113.888 51.8086C113.183 52.5409 112.798 52.625 112.188 52.625V74.625C119.035 74.625 125.067 71.9175 129.737 67.0664L113.888 51.8086ZM112.188 52.625C111.553 52.625 111.259 52.5365 111.194 52.5144C111.16 52.5026 111.159 52.4992 111.178 52.5099C111.196 52.5207 111.208 52.5304 111.207 52.5292L96.7309 69.0958C101.214 73.013 106.67 74.625 112.188 74.625V52.625ZM111.292 52.6043C111.282 52.5953 111.33 52.6373 111.405 52.7381C111.481 52.841 111.563 52.9757 111.634 53.1343C111.788 53.4817 111.781 53.699 111.781 53.625H89.7812C89.7812 59.5954 92.1367 64.9978 96.6458 69.0207L111.292 52.6043ZM111.781 53.625C111.781 53.4389 111.799 53.3827 111.789 53.4278C111.778 53.4781 111.745 53.6019 111.665 53.7661C111.584 53.9322 111.483 54.0809 111.383 54.1978C111.286 54.3115 111.225 54.3527 111.247 54.3366L98.3155 36.5384C92.5804 40.7053 89.7812 46.8639 89.7812 53.625H111.781ZM111.259 54.3276C111.378 54.2409 112.543 53.5 116.094 53.5V31.5C109.936 31.5 103.559 32.7175 98.3032 36.5474L111.259 54.3276ZM116.094 53.5H121.719V31.5H116.094V53.5ZM132.719 42.5V39.8438H110.719V42.5H132.719ZM132.719 39.8438C132.719 35.4841 131.329 30.834 127.616 27.1857L112.196 42.8768C111.647 42.3374 111.226 41.6764 110.972 41.002C110.732 40.3648 110.719 39.9256 110.719 39.8438H132.719ZM127.684 27.2531C123.735 23.3034 118.709 22.2188 114.562 22.2188V44.2188C114.827 44.2188 114.623 44.256 114.131 44.089C113.586 43.9042 112.834 43.5152 112.128 42.8094L127.684 27.2531ZM114.562 22.2188C110.58 22.2188 106.424 23.2579 102.796 25.9655L115.954 43.597C115.587 43.8706 115.208 44.0467 114.891 44.142C114.593 44.2319 114.456 44.2188 114.562 44.2188V22.2188ZM102.796 25.9655C99.1769 28.6664 96.2812 32.969 96.2812 38.5625H118.281C118.281 39.6352 118.007 40.791 117.428 41.8364C116.88 42.8258 116.25 43.3758 115.954 43.597L102.796 25.9655ZM107.281 27.5625H101.469V49.5625H107.281V27.5625ZM112.469 38.5625C112.469 39.0392 112.38 39.4872 112.246 39.8532C112.118 40.2025 111.992 40.3643 112.008 40.3434L94.4922 27.0316C92.0967 30.1836 90.4688 34.093 90.4688 38.5625H112.469ZM111.994 40.3609C111.995 40.36 112.013 40.3344 112.082 40.2814C112.156 40.2247 112.321 40.1112 112.63 39.9725L103.62 19.9025C100.117 21.4752 96.9566 23.8023 94.5055 27.0141L111.994 40.3609ZM112.593 39.9894C113.127 39.7518 113.848 39.5625 114.906 39.5625V17.5625C111.048 17.5625 107.248 18.2898 103.657 19.8856L112.593 39.9894ZM114.906 39.5625C115.95 39.5625 116.522 39.6955 116.757 39.771C116.955 39.8346 116.898 39.8487 116.764 39.7301L131.361 23.2699C126.569 19.0206 120.615 17.5625 114.906 17.5625V39.5625ZM116.808 39.7687C116.766 39.7315 116.696 39.6614 116.622 39.5593C116.547 39.4569 116.496 39.3604 116.465 39.2893C116.402 39.1404 116.49 39.2498 116.503 39.7995L138.497 39.263C138.352 33.3235 136.219 27.532 131.317 23.2313L116.808 39.7687ZM116.5 39.5312V55.0938H138.5V39.5312H116.5ZM116.5 55.0938C116.5 58.9538 116.965 63.1011 118.589 66.8608L138.786 58.1392C138.83 58.2398 138.746 58.0805 138.658 57.532C138.571 56.9915 138.5 56.1957 138.5 55.0938H116.5ZM117.688 62.5V63H139.688V62.5H117.688ZM128.688 52H122.625V74H128.688V52ZM113.031 69.5938C116.843 69.5938 120.449 68.5821 123.684 66.7155L112.691 47.6595C112.652 47.6816 112.687 47.6565 112.785 47.6298C112.886 47.6024 112.977 47.5938 113.031 47.5938V69.5938ZM123.684 66.7155C126.967 64.8218 129.804 62.0584 131.612 58.3404L111.826 48.7221C111.976 48.4127 112.173 48.1397 112.377 47.9286C112.573 47.7252 112.708 47.6494 112.691 47.6595L123.684 66.7155ZM132.719 53.5312V46.5938H110.719V53.5312H132.719ZM121.719 35.5938H117.188V57.5938H121.719V35.5938ZM117.188 35.5938C112.933 35.5938 107.938 36.1526 103.662 38.655C98.4773 41.6897 95.5625 46.8826 95.5625 52.8125H117.562C117.562 53.379 117.428 54.4071 116.785 55.5355C116.139 56.6694 115.308 57.3302 114.775 57.6419C114.313 57.9127 114.168 57.8721 114.645 57.7789C115.105 57.6892 115.921 57.5938 117.188 57.5938V35.5938ZM95.5625 52.8125C95.5625 57.3364 97.2176 62.0364 101.276 65.4652L115.474 48.6598C116.145 49.2265 116.744 50.0043 117.134 50.9192C117.507 51.7944 117.562 52.4942 117.562 52.8125H95.5625ZM101.276 65.4652C104.846 68.481 109.076 69.5938 113.031 69.5938V47.5938C113.068 47.5938 113.387 47.5989 113.882 47.7615C114.402 47.9324 114.964 48.2292 115.474 48.6598L101.276 65.4652ZM147.125 54.5312L136.688 58.0059L147.486 90.4396L157.63 57.7953L147.125 54.5312ZM155 29.1875V18.1875H146.899L144.495 25.9234L155 29.1875ZM161.188 29.1875L171.576 32.8054L176.667 18.1875H161.188V29.1875ZM147.594 68.2188L157.897 72.0727L157.94 71.9552L157.982 71.8367L147.594 68.2188ZM137.562 76.6562L136.623 87.6161L137.092 87.6562H137.562V76.6562ZM136.469 76.5625L134.432 87.3723L134.977 87.475L135.529 87.5223L136.469 76.5625ZM134.312 76.1562H123.312V85.2773L132.276 86.9661L134.312 76.1562ZM134.312 71.4688L135.19 60.5038L123.312 59.5536V71.4688H134.312ZM135.875 71.5938L134.998 82.5587L135.436 82.5938H135.875V71.5938ZM140.438 70.4062L134.028 61.4666L133.987 61.4956L133.947 61.5249L140.438 70.4062ZM143.156 66.0625L132.849 62.2207L132.787 62.3859L132.731 62.553L143.156 66.0625ZM144.438 62.625L154.745 66.4668L156.154 62.6869L154.785 58.8922L144.438 62.625ZM132.375 29.1875V18.1875H116.713L122.028 32.9203L132.375 29.1875ZM138.688 29.1875L149.124 25.7129L146.619 18.1875H138.688V29.1875ZM157.63 57.7953L165.505 32.4516L144.495 25.9234L136.62 51.2672L157.63 57.7953ZM155 40.1875H161.188V18.1875H155V40.1875ZM150.799 25.5696L137.206 64.6008L157.982 71.8367L171.576 32.8054L150.799 25.5696ZM137.291 64.3648C136.99 65.1699 136.721 65.667 136.542 65.9434C136.368 66.2125 136.311 66.2268 136.427 66.1288C136.56 66.0173 136.791 65.8681 137.089 65.7621C137.381 65.6586 137.568 65.6562 137.562 65.6562V87.6562C142.307 87.6562 146.831 86.1253 150.588 82.965C154.152 79.968 156.418 76.0246 157.897 72.0727L137.291 64.3648ZM138.502 65.6964L137.408 65.6027L135.529 87.5223L136.623 87.6161L138.502 65.6964ZM138.505 65.7527L136.349 65.3464L132.276 86.9661L134.432 87.3723L138.505 65.7527ZM145.312 76.1562V71.4688H123.312V76.1562H145.312ZM133.435 82.4337L134.998 82.5587L136.752 60.6288L135.19 60.5038L133.435 82.4337ZM135.875 82.5938C139.14 82.5938 143.273 81.9584 146.928 79.2876L133.947 61.5249C134.697 60.9769 135.36 60.7436 135.714 60.6515C136.048 60.5646 136.138 60.5938 135.875 60.5938V82.5938ZM146.847 79.3459C150.679 76.5984 152.563 72.5959 153.581 69.572L132.731 62.553C132.575 63.0181 132.505 63.076 132.621 62.8905C132.74 62.701 133.158 62.0902 134.028 61.4666L146.847 79.3459ZM153.464 69.9043L154.745 66.4668L134.13 58.7832L132.849 62.2207L153.464 69.9043ZM154.785 58.8922L142.722 25.4547L122.028 32.9203L134.09 66.3578L154.785 58.8922ZM132.375 40.1875H138.688V18.1875H132.375V40.1875ZM128.251 32.6621L136.688 58.0059L157.562 51.0566L149.124 25.7129L128.251 32.6621ZM36.2812 125.406L29.6813 134.206L29.769 134.272L29.858 134.336L36.2812 125.406ZM30.125 123.156L27.8202 133.912L27.828 133.914L27.8358 133.915L30.125 123.156ZM23.1562 120.906L18.1416 130.697L18.1656 130.709L18.1897 130.721L23.1562 120.906ZM19.3438 117.781L10.2155 123.919L10.2516 123.973L10.2884 124.026L19.3438 117.781ZM21.625 106.438L14.68 97.9072L14.6614 97.9223L14.6429 97.9375L21.625 106.438ZM39.9375 106.531L32.8955 114.982L32.9136 114.997L32.9318 115.012L39.9375 106.531ZM43.5312 114.125V125.125H54.5312V114.125H43.5312ZM37.7188 114.125H26.7188V125.125H37.7188V114.125ZM35.6875 110.031L28.5181 118.374L28.55 118.401L28.5821 118.428L35.6875 110.031ZM31.5312 118.469L29.1203 129.201L29.1286 129.203L29.1368 129.205L31.5312 118.469ZM42.5312 124.031L33.4018 130.167L33.4599 130.254L33.5197 130.339L42.5312 124.031ZM40.2188 135.906L46.8187 144.706L46.8429 144.688L46.867 144.67L40.2188 135.906ZM18.7188 133.188L9.60014 139.34L9.64291 139.403L9.68655 139.466L18.7188 133.188ZM16.9688 127.594V116.594H5.96875V127.594H16.9688ZM22.75 127.594L33.7341 127.003L33.1745 116.594H22.75V127.594ZM25.0625 132.219L18.2061 140.82L18.2744 140.875L18.3437 140.928L25.0625 132.219ZM36.0625 132.594L42.1642 141.746L42.1807 141.735L42.1971 141.724L36.0625 132.594ZM49.0625 129.031C49.0625 124.212 46.9877 119.557 42.7045 116.476L29.858 134.336C29.1143 133.801 28.3127 132.96 27.7447 131.804C27.1894 130.674 27.0625 129.662 27.0625 129.031H49.0625ZM42.8812 116.606C39.6807 114.206 35.6027 113.075 32.4142 112.397L27.8358 133.915C28.9721 134.157 29.6915 134.373 30.0912 134.519C30.2819 134.589 30.334 134.619 30.2828 134.593C30.2377 134.57 30.0101 134.453 29.6813 134.206L42.8812 116.606ZM32.4298 112.4C29.9978 111.879 28.6849 111.376 28.1228 111.091L18.1897 130.721C21.086 132.187 24.4189 133.183 27.8202 133.912L32.4298 112.4ZM28.1709 111.116C27.9002 110.977 27.8342 110.912 27.8951 110.961C27.9625 111.017 28.166 111.198 28.3991 111.536L10.2884 124.026C12.4238 127.123 15.296 129.239 18.1416 130.697L28.1709 111.116ZM28.472 111.643C28.7316 112.029 28.9102 112.434 29.0151 112.805C29.1167 113.165 29.125 113.406 29.125 113.469H7.125C7.125 116.996 8.01293 120.644 10.2155 123.919L28.472 111.643ZM29.125 113.469C29.125 113.553 29.1155 113.71 29.0683 113.917C29.0205 114.126 28.9452 114.338 28.8474 114.535C28.6418 114.948 28.4557 115.062 28.6071 114.937L14.6429 97.9375C10.0259 101.73 7.125 107.084 7.125 113.469H29.125ZM28.57 114.968C28.5882 114.953 28.9811 114.562 30.625 114.562V92.5625C24.9773 92.5625 19.3701 94.0887 14.68 97.9072L28.57 114.968ZM30.625 114.562C31.6027 114.562 32.1864 114.689 32.4871 114.785C32.76 114.872 32.8571 114.95 32.8955 114.982L46.9795 98.0808C42.1882 94.088 36.3948 92.5625 30.625 92.5625V114.562ZM32.9318 115.012C32.9885 115.059 32.9673 115.05 32.9067 114.974C32.8438 114.895 32.7635 114.775 32.69 114.619C32.6165 114.464 32.5721 114.321 32.5488 114.211C32.5261 114.105 32.5312 114.069 32.5312 114.125H54.5312C54.5312 107.731 51.8455 102.1 46.9432 98.0507L32.9318 115.012ZM43.5312 103.125H37.7188V125.125H43.5312V103.125ZM48.7188 114.125C48.7188 108.893 46.2831 104.587 42.7929 101.634L28.5821 118.428C28.2999 118.19 27.7865 117.668 27.3572 116.803C26.9118 115.906 26.7188 114.961 26.7188 114.125H48.7188ZM42.8569 101.689C39.2126 98.5568 34.8486 97.3125 30.625 97.3125V119.312C30.6153 119.312 30.3331 119.31 29.8856 119.158C29.4155 118.999 28.9335 118.731 28.5181 118.374L42.8569 101.689ZM30.625 97.3125C27.0468 97.3125 22.7202 98.0819 18.9659 100.98L32.4091 118.395C31.0298 119.46 29.9949 119.312 30.625 119.312V97.3125ZM18.9659 100.98C15.1251 103.945 12.9062 108.337 12.9062 113.281H34.9062C34.9062 114.054 34.7402 115.083 34.2073 116.158C33.6769 117.229 32.974 117.959 32.4091 118.395L18.9659 100.98ZM12.9062 113.281C12.9062 118.136 15.1305 122.814 19.623 125.696L31.502 107.179C32.3837 107.744 33.3607 108.672 34.0607 110.006C34.7454 111.311 34.9062 112.51 34.9062 113.281H12.9062ZM19.623 125.696C22.4933 127.537 26.1628 128.537 29.1203 129.201L33.9422 107.736C32.7485 107.468 31.9355 107.236 31.4267 107.063C31.1792 106.979 31.0645 106.929 31.0524 106.924C31.0296 106.913 31.2064 106.989 31.502 107.179L19.623 125.696ZM29.1368 129.205C31.534 129.74 32.9374 130.267 33.6432 130.62L43.4818 110.943C40.6043 109.504 37.3202 108.49 33.9257 107.733L29.1368 129.205ZM33.6432 130.62C33.9296 130.763 33.9964 130.831 33.9292 130.776C33.8542 130.715 33.6402 130.522 33.4018 130.167L51.6607 117.895C49.4688 114.634 46.4642 112.434 43.4818 110.943L33.6432 130.62ZM33.5197 130.339C33.2263 129.92 33.0409 129.496 32.9389 129.139C32.8412 128.797 32.8438 128.603 32.8438 128.625H54.8438C54.8438 124.99 53.9404 121.148 51.5428 117.723L33.5197 130.339ZM32.8438 128.625C32.8438 128.631 32.8533 128.285 33.0904 127.809C33.3267 127.334 33.5914 127.127 33.5705 127.143L46.867 144.67C52.0117 140.767 54.8438 135.104 54.8438 128.625H32.8438ZM33.6188 127.106C33.5752 127.139 32.9485 127.625 30.8125 127.625V149.625C36.3848 149.625 42.029 148.299 46.8187 144.706L33.6188 127.106ZM30.8125 127.625C29.407 127.625 28.6259 127.38 28.222 127.194L19.028 147.181C22.7907 148.912 26.8013 149.625 30.8125 149.625V127.625ZM28.222 127.194C27.9512 127.07 27.8256 126.975 27.7868 126.943C27.7655 126.926 27.757 126.917 27.7561 126.916C27.7552 126.915 27.7541 126.914 27.751 126.909L9.68655 139.466C12.1067 142.948 15.3488 145.488 19.028 147.181L28.222 127.194ZM27.8374 127.035C27.8102 126.995 27.8569 127.056 27.9045 127.208C27.9533 127.364 27.9688 127.507 27.9688 127.594H5.96875C5.96875 131.884 7.26299 135.876 9.60014 139.34L27.8374 127.035ZM16.9688 138.594H22.75V116.594H16.9688V138.594ZM11.7659 128.184C12.0281 133.062 14.1614 137.596 18.2061 140.82L31.9189 123.617C32.3653 123.973 32.8687 124.531 33.2449 125.284C33.614 126.022 33.7154 126.655 33.7341 127.003L11.7659 128.184ZM18.3437 140.928C22.2219 143.92 26.7157 144.906 30.8125 144.906V122.906C30.4817 122.906 30.4749 122.866 30.6914 122.93C30.9329 123 31.3403 123.169 31.7813 123.509L18.3437 140.928ZM30.8125 144.906C34.3599 144.906 38.4705 144.209 42.1642 141.746L29.9608 123.441C30.4925 123.087 30.9226 122.95 31.0977 122.907C31.2567 122.867 31.1901 122.906 30.8125 122.906V144.906ZM42.1971 141.724C46.2625 138.993 49.0625 134.532 49.0625 129.031H27.0625C27.0625 128.052 27.3023 126.837 27.9707 125.646C28.6194 124.491 29.4204 123.804 29.9279 123.463L42.1971 141.724ZM57.1562 108.281H46.1562V139.203L65.6849 115.228L57.1562 108.281ZM77.9688 115.656H88.9688V115.614L88.9684 115.571L77.9688 115.656ZM77.9688 138V149H88.9688V138H77.9688ZM72.1875 138H61.1875V149H72.1875V138ZM72.1875 115.625H83.1875V115.578L83.1871 115.531L72.1875 115.625ZM70.5 110.219L62.4393 117.704L62.4748 117.742L62.5108 117.78L70.5 110.219ZM57.1562 113.906L47.2674 109.089L46.1562 111.369V113.906H57.1562ZM57.1562 138V149H68.1562V138H57.1562ZM51.375 138H40.375V149H51.375V138ZM51.375 90V79H40.375V90H51.375ZM57.1562 90H68.1562V79H57.1562V90ZM65.6849 115.228C66.0341 114.8 66.2365 114.707 66.2724 114.69C66.3119 114.672 66.5416 114.562 67.1562 114.562V92.5625C59.7888 92.5625 53.3069 95.5896 48.6276 101.334L65.6849 115.228ZM67.1562 114.562C67.9345 114.562 68.1414 114.675 67.9892 114.618C67.9056 114.587 67.7494 114.517 67.5568 114.387C67.3617 114.256 67.1767 114.095 67.0183 113.918C66.6864 113.546 66.6597 113.322 66.731 113.557C66.8132 113.828 66.9595 114.504 66.9691 115.742L88.9684 115.571C88.9263 110.142 87.7035 104.046 83.4192 99.2543C78.9139 94.2152 72.798 92.5625 67.1562 92.5625V114.562ZM66.9688 115.656V138H88.9688V115.656H66.9688ZM77.9688 127H72.1875V149H77.9688V127ZM83.1875 138V115.625H61.1875V138H83.1875ZM83.1871 115.531C83.1545 111.713 82.2877 106.671 78.4892 102.658L62.5108 117.78C61.7249 116.95 61.3809 116.143 61.2496 115.723C61.1313 115.344 61.1842 115.284 61.1879 115.719L83.1871 115.531ZM78.5607 102.734C74.6033 98.472 69.3761 97.4688 65.4062 97.4688V119.469C65.6786 119.469 65.4182 119.508 64.84 119.309C64.1976 119.089 63.2803 118.609 62.4393 117.704L78.5607 102.734ZM65.4062 97.4688C61.454 97.4688 57.5506 98.5642 54.1252 100.982L66.8123 118.955C66.5687 119.127 66.2735 119.274 65.9631 119.369C65.6606 119.461 65.4552 119.469 65.4062 119.469V97.4688ZM54.1252 100.982C51.1292 103.097 48.835 105.871 47.2674 109.089L67.0451 118.724C67.0666 118.68 67.0555 118.713 66.9956 118.785C66.9342 118.858 66.8655 118.918 66.8123 118.955L54.1252 100.982ZM46.1562 113.906V138H68.1562V113.906H46.1562ZM57.1562 127H51.375V149H57.1562V127ZM62.375 138V90H40.375V138H62.375ZM51.375 101H57.1562V79H51.375V101ZM46.1562 90V108.281H68.1562V90H46.1562ZM87.0312 111.844L77.1771 106.955L77.1616 106.987L77.1463 107.018L87.0312 111.844ZM92.4688 105.719L86.699 96.3534L86.6802 96.365L86.6615 96.3766L92.4688 105.719ZM111.594 108.344L103.372 115.652L103.386 115.667L103.399 115.682L111.594 108.344ZM113.969 130.344L104.068 125.551L104.06 125.567L104.052 125.584L113.969 130.344ZM108.562 136.438L102.77 127.086L102.751 127.098L102.733 127.11L108.562 136.438ZM89.3438 133.844L81.1222 141.152L81.1355 141.167L81.1489 141.182L89.3438 133.844ZM93.5 130.5L84.7484 137.164L84.7677 137.189L84.7871 137.215L93.5 130.5ZM107.5 130.469L116.281 137.094L116.295 137.075L116.31 137.056L107.5 130.469ZM107.438 111.781L98.666 118.419L98.6995 118.463L98.7334 118.507L107.438 111.781ZM96.0938 120.781C96.0938 118.93 96.4454 117.634 96.9162 116.669L77.1463 107.018C75.0338 111.345 74.0938 116.007 74.0938 120.781H96.0938ZM96.8854 116.732C97.369 115.757 97.8468 115.328 98.276 115.061L86.6615 96.3766C82.4657 98.9848 79.3185 102.639 77.1771 106.955L96.8854 116.732ZM98.2385 115.084C98.6869 114.808 99.312 114.562 100.438 114.562V92.5625C95.6047 92.5625 90.9172 93.7546 86.699 96.3534L98.2385 115.084ZM100.438 114.562C102.181 114.562 102.806 115.015 103.372 115.652L119.815 101.036C114.714 95.2973 107.902 92.5625 100.438 92.5625V114.562ZM103.399 115.682C104.046 116.404 104.875 117.81 104.875 121.062H126.875C126.875 113.731 124.85 106.659 119.789 101.006L103.399 115.682ZM104.875 121.062V121.469H126.875V121.062H104.875ZM104.875 121.469C104.875 123.315 104.527 124.602 104.068 125.551L123.87 135.137C125.952 130.836 126.875 126.206 126.875 121.469H104.875ZM104.052 125.584C103.669 126.381 103.26 126.783 102.77 127.086L114.355 145.789C118.573 143.176 121.768 139.515 123.886 135.104L104.052 125.584ZM102.733 127.11C102.329 127.362 101.705 127.625 100.5 127.625V149.625C105.379 149.625 110.13 148.43 114.392 145.765L102.733 127.11ZM100.5 127.625C98.7937 127.625 98.1443 127.182 97.5386 126.506L81.1489 141.182C86.2516 146.88 93.0397 149.625 100.5 149.625V127.625ZM97.5653 126.536C96.9106 125.799 96.0938 124.393 96.0938 121.188H74.0938C74.0938 128.482 76.1102 135.513 81.1222 141.152L97.5653 126.536ZM96.0938 121.188V120.781H74.0938V121.188H96.0938ZM79.9062 121.469C79.9062 126.871 81.1611 132.453 84.7484 137.164L102.252 123.836C102.381 124.005 101.906 123.567 101.906 121.469H79.9062ZM84.7871 137.215C88.6617 142.242 94.2411 144.906 100.5 144.906V122.906C100.486 122.906 100.577 122.905 100.747 122.942C100.921 122.98 101.14 123.049 101.376 123.164C101.891 123.414 102.161 123.718 102.213 123.785L84.7871 137.215ZM100.5 144.906C106.794 144.906 112.417 142.215 116.281 137.094L98.7192 123.843C98.7827 123.759 99.068 123.437 99.6044 123.173C100.132 122.914 100.508 122.906 100.5 122.906V144.906ZM116.31 137.056C119.961 132.172 121.094 126.302 121.094 120.781H99.0938C99.0938 123.552 98.497 124.14 98.6905 123.881L116.31 137.056ZM121.094 120.781C121.094 115.329 119.774 109.756 116.142 105.055L98.7334 118.507C98.7343 118.508 98.7467 118.524 98.7687 118.568C98.7913 118.613 98.833 118.706 98.8796 118.864C98.9746 119.186 99.0938 119.792 99.0938 120.781H121.094ZM116.209 105.143C112.366 100.065 106.776 97.3125 100.438 97.3125V119.312C100.438 119.312 100.333 119.312 100.15 119.272C99.9618 119.23 99.7333 119.156 99.4909 119.036C98.9634 118.775 98.7016 118.466 98.666 118.419L116.209 105.143ZM100.438 97.3125C94.1537 97.3125 88.64 100.045 84.8183 105.004L102.244 118.433C102.215 118.471 101.959 118.771 101.436 119.029C100.911 119.288 100.507 119.312 100.438 119.312V97.3125ZM84.8183 105.004C81.0275 109.923 79.9062 115.918 79.9062 121.469H101.906C101.906 118.561 102.535 118.056 102.244 118.433L84.8183 105.004ZM144 134.656L154.992 134.245L153.936 105.992L135.62 127.53L144 134.656ZM125.844 135.5L117.631 142.818L117.669 142.861L117.708 142.903L125.844 135.5ZM123 126.188H112V126.215L112 126.243L123 126.188ZM123 104.188V93.1875H112V104.188H123ZM128.781 104.188H139.781V93.1875H128.781V104.188ZM143.844 128.781L153.901 133.237L154.844 131.109V128.781H143.844ZM143.844 104.188V93.1875H132.844V104.188H143.844ZM149.625 104.188H160.625V93.1875H149.625V104.188ZM149.625 138V149H160.625V138H149.625ZM144.125 138L133.133 138.411L133.529 149H144.125V138ZM135.62 127.53C135.631 127.517 135.666 127.481 135.718 127.444C135.77 127.407 135.789 127.404 135.745 127.422C135.651 127.46 135.174 127.625 134.094 127.625V149.625C140.787 149.625 147.526 147.489 152.38 141.782L135.62 127.53ZM134.094 127.625C133.332 127.625 133.109 127.513 133.225 127.557C133.287 127.581 133.411 127.636 133.565 127.74C133.721 127.845 133.863 127.969 133.979 128.097L117.708 142.903C122.237 147.88 128.313 149.625 134.094 149.625V127.625ZM134.056 128.182C134.324 128.483 134.327 128.644 134.247 128.381C134.155 128.081 134.006 127.383 134 126.132L112 126.243C112.028 131.827 113.311 137.97 117.631 142.818L134.056 128.182ZM134 126.188V104.188H112V126.188H134ZM123 115.188H128.781V93.1875H123V115.188ZM117.781 104.188V126.031H139.781V104.188H117.781ZM117.781 126.031C117.781 129.8 118.502 134.668 121.809 138.736C125.47 143.239 130.581 144.719 135.031 144.719V122.719C135.097 122.719 135.657 122.727 136.47 123.061C137.35 123.422 138.212 124.038 138.879 124.858C140.102 126.363 139.781 127.387 139.781 126.031H117.781ZM135.031 144.719C138.553 144.719 142.378 144.067 145.924 142.081C149.615 140.013 152.279 136.897 153.901 133.237L133.787 124.326C133.843 124.198 133.984 123.934 134.257 123.627C134.536 123.314 134.858 123.063 135.17 122.888C135.778 122.548 135.926 122.719 135.031 122.719V144.719ZM154.844 128.781V104.188H132.844V128.781H154.844ZM143.844 115.188H149.625V93.1875H143.844V115.188ZM138.625 104.188V138H160.625V104.188H138.625ZM149.625 127H144.125V149H149.625V127ZM155.117 137.589L154.992 134.245L133.008 135.067L133.133 138.411L155.117 137.589ZM164.719 138V149H175.719V138H164.719ZM158.938 138H147.938V149H158.938V138ZM158.938 90V79H147.938V90H158.938ZM164.719 90H175.719V79H164.719V90ZM164.719 127H158.938V149H164.719V127ZM169.938 138V90H147.938V138H169.938ZM158.938 101H164.719V79H158.938V101ZM153.719 90V138H175.719V90H153.719ZM176.281 108.312L184.949 115.086L184.959 115.072L184.97 115.058L176.281 108.312ZM195.344 107.625L186.978 114.768L206.344 137.448V107.625H195.344ZM195.344 90V79H184.344V90H195.344ZM201.125 90H212.125V79H201.125V90ZM201.125 138V149H212.125V138H201.125ZM195.812 138L184.845 138.851L185.633 149H195.812V138ZM195.531 134.375L206.498 133.524L204.374 106.144L187.009 127.42L195.531 134.375ZM176.281 133.812L167.55 140.503L167.563 140.521L167.577 140.538L176.281 133.812ZM195.344 128.781L205.132 133.799L206.344 131.437V128.781H195.344ZM195.344 113.25H206.344V110.458L205.013 108.005L195.344 113.25ZM183.594 120.812C183.594 117.34 184.402 115.786 184.949 115.086L167.614 101.539C163.244 107.131 161.594 113.91 161.594 120.812H183.594ZM184.97 115.058C185.143 114.836 185.266 114.721 185.326 114.671C185.383 114.623 185.404 114.616 185.394 114.62C185.385 114.625 185.398 114.616 185.459 114.603C185.524 114.588 185.675 114.562 185.938 114.562V92.5625C178.531 92.5625 172.116 95.7398 167.592 101.567L184.97 115.058ZM185.938 114.562C186.3 114.562 186.544 114.594 186.689 114.621C186.831 114.648 186.892 114.674 186.896 114.677C186.899 114.678 186.888 114.672 186.879 114.666C186.872 114.661 186.907 114.684 186.978 114.768L203.709 100.482C199.058 95.0352 192.711 92.5625 185.938 92.5625V114.562ZM206.344 107.625V90H184.344V107.625H206.344ZM195.344 101H201.125V79H195.344V101ZM190.125 90V138H212.125V90H190.125ZM201.125 127H195.812V149H201.125V127ZM206.78 137.149L206.498 133.524L184.564 135.226L184.845 138.851L206.78 137.149ZM187.009 127.42C186.942 127.503 186.912 127.522 186.925 127.512C186.94 127.501 186.955 127.493 186.952 127.495C186.946 127.497 186.877 127.527 186.715 127.559C186.55 127.59 186.278 127.625 185.875 127.625V149.625C192.827 149.625 199.368 147.071 204.053 141.33L187.009 127.42ZM185.875 127.625C185.65 127.625 185.531 127.602 185.492 127.594C185.456 127.586 185.457 127.583 185.471 127.59C185.484 127.596 185.458 127.586 185.388 127.527C185.316 127.465 185.176 127.333 184.985 127.087L167.577 140.538C172.054 146.332 178.414 149.625 185.875 149.625V127.625ZM185.013 127.122C184.392 126.311 183.594 124.678 183.594 121.25H161.594C161.594 128.156 163.254 134.897 167.55 140.503L185.013 127.122ZM183.594 121.25V120.812H161.594V121.25H183.594ZM167.375 121.469C167.375 126.67 168.431 132.255 171.869 136.959L189.631 123.979C189.902 124.349 189.375 123.934 189.375 121.469H167.375ZM171.869 136.959C175.62 142.092 181.177 144.719 187.312 144.719V122.719C187.366 122.719 187.831 122.738 188.46 123.049C189.103 123.368 189.485 123.779 189.631 123.979L171.869 136.959ZM187.312 144.719C190.835 144.719 194.488 143.91 197.831 141.855C201.169 139.803 203.534 136.916 205.132 133.799L185.555 123.763C185.466 123.938 185.649 123.52 186.309 123.114C186.61 122.929 186.896 122.819 187.115 122.763C187.323 122.708 187.406 122.719 187.312 122.719V144.719ZM206.344 128.781V113.25H184.344V128.781H206.344ZM205.013 108.005C203.372 104.98 200.998 102.202 197.714 100.232C194.423 98.2571 190.843 97.4688 187.375 97.4688V119.469C187.455 119.469 187.37 119.477 187.166 119.425C186.954 119.371 186.681 119.268 186.395 119.096C185.768 118.72 185.587 118.332 185.675 118.495L205.013 108.005ZM187.375 97.4688C181.218 97.4688 175.608 100.093 171.839 105.3L189.661 118.2C189.508 118.41 189.12 118.827 188.476 119.146C188.181 119.292 187.911 119.378 187.699 119.424C187.492 119.469 187.375 119.469 187.375 119.469V97.4688ZM171.839 105.3C168.309 110.178 167.375 116.123 167.375 121.469H189.375C189.375 119.966 189.517 118.993 189.654 118.432C189.789 117.879 189.874 117.905 189.661 118.2L171.839 105.3ZM237.062 129.531L226.626 133.006L237.424 165.44L247.567 132.795L237.062 129.531ZM244.938 104.188V93.1875H236.837L234.433 100.923L244.938 104.188ZM251.125 104.188L261.513 107.805L266.604 93.1875H251.125V104.188ZM237.531 143.219L247.834 147.073L247.878 146.955L247.919 146.837L237.531 143.219ZM227.5 151.656L226.561 162.616L227.029 162.656H227.5V151.656ZM226.406 151.562L224.37 162.372L224.914 162.475L225.467 162.522L226.406 151.562ZM224.25 151.156H213.25V160.277L222.213 161.966L224.25 151.156ZM224.25 146.469L225.127 135.504L213.25 134.554V146.469H224.25ZM225.812 146.594L224.935 157.559L225.373 157.594H225.812V146.594ZM230.375 145.406L223.965 136.467L223.925 136.496L223.885 136.525L230.375 145.406ZM233.094 141.062L222.786 137.221L222.725 137.386L222.669 137.553L233.094 141.062ZM234.375 137.625L244.682 141.467L246.091 137.687L244.722 133.892L234.375 137.625ZM222.312 104.188V93.1875H206.65L211.965 107.92L222.312 104.188ZM228.625 104.188L239.062 100.713L236.556 93.1875H228.625V104.188ZM247.567 132.795L255.442 107.452L234.433 100.923L226.558 126.267L247.567 132.795ZM244.938 115.188H251.125V93.1875H244.938V115.188ZM240.737 100.57L227.143 139.601L247.919 146.837L261.513 107.805L240.737 100.57ZM227.228 139.365C226.927 140.17 226.658 140.667 226.48 140.943C226.306 141.212 226.248 141.227 226.365 141.129C226.497 141.017 226.728 140.868 227.027 140.762C227.319 140.659 227.505 140.656 227.5 140.656V162.656C232.245 162.656 236.769 161.125 240.526 157.965C244.089 154.968 246.356 151.025 247.834 147.073L227.228 139.365ZM228.439 140.696L227.346 140.603L225.467 162.522L226.561 162.616L228.439 140.696ZM228.443 140.753L226.287 140.346L222.213 161.966L224.37 162.372L228.443 140.753ZM235.25 151.156V146.469H213.25V151.156H235.25ZM223.373 157.434L224.935 157.559L226.69 135.629L225.127 135.504L223.373 157.434ZM225.812 157.594C229.077 157.594 233.21 156.958 236.865 154.288L223.885 136.525C224.635 135.977 225.297 135.744 225.651 135.652C225.985 135.565 226.076 135.594 225.812 135.594V157.594ZM236.785 154.346C240.617 151.598 242.501 147.596 243.519 144.572L222.669 137.553C222.512 138.018 222.443 138.076 222.559 137.891C222.677 137.701 223.096 137.09 223.965 136.467L236.785 154.346ZM243.401 144.904L244.682 141.467L224.068 133.783L222.786 137.221L243.401 144.904ZM244.722 133.892L232.66 100.455L211.965 107.92L224.028 141.358L244.722 133.892ZM222.312 115.188H228.625V93.1875H222.312V115.188ZM218.188 107.662L226.626 133.006L247.499 126.057L239.062 100.713L218.188 107.662ZM256.219 111.844L246.365 106.955L246.349 106.987L246.334 107.018L256.219 111.844ZM261.656 105.719L255.887 96.3534L255.868 96.365L255.849 96.3766L261.656 105.719ZM280.781 108.344L272.56 115.652L272.573 115.667L272.586 115.682L280.781 108.344ZM283.156 130.344L273.255 125.551L273.247 125.567L273.239 125.584L283.156 130.344ZM277.75 136.438L271.957 127.086L271.939 127.098L271.92 127.11L277.75 136.438ZM258.531 133.844L250.31 141.152L250.323 141.167L250.336 141.182L258.531 133.844ZM262.688 130.5L253.936 137.164L253.955 137.189L253.975 137.215L262.688 130.5ZM276.688 130.469L285.468 137.094L285.483 137.075L285.497 137.056L276.688 130.469ZM276.625 111.781L267.854 118.419L267.887 118.463L267.921 118.507L276.625 111.781ZM265.281 120.781C265.281 118.93 265.633 117.634 266.104 116.669L246.334 107.018C244.221 111.345 243.281 116.007 243.281 120.781H265.281ZM266.073 116.732C266.557 115.757 267.034 115.328 267.464 115.061L255.849 96.3766C251.653 98.9848 248.506 102.639 246.365 106.955L266.073 116.732ZM267.426 115.084C267.874 114.808 268.499 114.562 269.625 114.562V92.5625C264.792 92.5625 260.105 93.7546 255.887 96.3534L267.426 115.084ZM269.625 114.562C271.369 114.562 271.994 115.015 272.56 115.652L289.003 101.036C283.902 95.2973 277.09 92.5625 269.625 92.5625V114.562ZM272.586 115.682C273.233 116.404 274.062 117.81 274.062 121.062H296.062C296.062 113.731 294.038 106.659 288.976 101.006L272.586 115.682ZM274.062 121.062V121.469H296.062V121.062H274.062ZM274.062 121.469C274.062 123.315 273.715 124.602 273.255 125.551L293.057 135.137C295.139 130.836 296.062 126.206 296.062 121.469H274.062ZM273.239 125.584C272.857 126.381 272.448 126.783 271.957 127.086L283.543 145.789C287.761 143.176 290.956 139.515 293.073 135.104L273.239 125.584ZM271.92 127.11C271.516 127.362 270.892 127.625 269.688 127.625V149.625C274.566 149.625 279.317 148.43 283.58 145.765L271.92 127.11ZM269.688 127.625C267.981 127.625 267.332 127.182 266.726 126.506L250.336 141.182C255.439 146.88 262.227 149.625 269.688 149.625V127.625ZM266.753 126.536C266.098 125.799 265.281 124.393 265.281 121.188H243.281C243.281 128.482 245.298 135.513 250.31 141.152L266.753 126.536ZM265.281 121.188V120.781H243.281V121.188H265.281ZM249.094 121.469C249.094 126.871 250.349 132.453 253.936 137.164L271.439 123.836C271.568 124.005 271.094 123.567 271.094 121.469H249.094ZM253.975 137.215C257.849 142.242 263.429 144.906 269.688 144.906V122.906C269.674 122.906 269.765 122.905 269.935 122.942C270.109 122.98 270.327 123.049 270.563 123.164C271.079 123.414 271.348 123.718 271.4 123.785L253.975 137.215ZM269.688 144.906C275.982 144.906 281.604 142.215 285.468 137.094L267.907 123.843C267.97 123.759 268.256 123.437 268.792 123.173C269.32 122.914 269.695 122.906 269.688 122.906V144.906ZM285.497 137.056C289.149 132.172 290.281 126.302 290.281 120.781H268.281C268.281 123.552 267.685 124.14 267.878 123.881L285.497 137.056ZM290.281 120.781C290.281 115.329 288.961 109.756 285.329 105.055L267.921 118.507C267.922 118.508 267.934 118.524 267.956 118.568C267.979 118.613 268.02 118.706 268.067 118.864C268.162 119.186 268.281 119.792 268.281 120.781H290.281ZM285.396 105.143C281.553 100.065 275.964 97.3125 269.625 97.3125V119.312C269.625 119.312 269.521 119.312 269.337 119.272C269.149 119.23 268.921 119.156 268.678 119.036C268.151 118.775 267.889 118.466 267.854 118.419L285.396 105.143ZM269.625 97.3125C263.341 97.3125 257.827 100.045 254.006 105.004L271.432 118.433C271.403 118.471 271.147 118.771 270.624 119.029C270.099 119.288 269.694 119.312 269.625 119.312V97.3125ZM254.006 105.004C250.215 109.923 249.094 115.918 249.094 121.469H271.094C271.094 118.561 271.723 118.056 271.432 118.433L254.006 105.004ZM313.188 134.656L324.18 134.245L323.124 105.992L304.808 127.53L313.188 134.656ZM295.031 135.5L286.819 142.818L286.857 142.861L286.896 142.903L295.031 135.5ZM292.188 126.188H281.188V126.215L281.188 126.243L292.188 126.188ZM292.188 104.188V93.1875H281.188V104.188H292.188ZM297.969 104.188H308.969V93.1875H297.969V104.188ZM313.031 128.781L323.088 133.237L324.031 131.109V128.781H313.031ZM313.031 104.188V93.1875H302.031V104.188H313.031ZM318.812 104.188H329.812V93.1875H318.812V104.188ZM318.812 138V149H329.812V138H318.812ZM313.312 138L302.32 138.411L302.716 149H313.312V138ZM304.808 127.53C304.819 127.517 304.854 127.481 304.906 127.444C304.957 127.407 304.976 127.404 304.933 127.422C304.838 127.46 304.362 127.625 303.281 127.625V149.625C309.975 149.625 316.714 147.489 321.567 141.782L304.808 127.53ZM303.281 127.625C302.52 127.625 302.297 127.513 302.412 127.557C302.475 127.581 302.598 127.636 302.753 127.74C302.909 127.845 303.051 127.969 303.167 128.097L286.896 142.903C291.424 147.88 297.501 149.625 303.281 149.625V127.625ZM303.244 128.182C303.512 128.483 303.515 128.644 303.434 128.381C303.343 128.081 303.194 127.383 303.187 126.132L281.188 126.243C281.216 131.827 282.498 137.97 286.819 142.818L303.244 128.182ZM303.188 126.188V104.188H281.188V126.188H303.188ZM292.188 115.188H297.969V93.1875H292.188V115.188ZM286.969 104.188V126.031H308.969V104.188H286.969ZM286.969 126.031C286.969 129.8 287.689 134.668 290.996 138.736C294.657 143.239 299.768 144.719 304.219 144.719V122.719C304.284 122.719 304.844 122.727 305.657 123.061C306.538 123.422 307.4 124.038 308.066 124.858C309.29 126.363 308.969 127.387 308.969 126.031H286.969ZM304.219 144.719C307.741 144.719 311.566 144.067 315.111 142.081C318.802 140.013 321.467 136.897 323.088 133.237L302.974 124.326C303.03 124.198 303.171 123.934 303.444 123.627C303.723 123.314 304.046 123.063 304.358 122.888C304.965 122.548 305.113 122.719 304.219 122.719V144.719ZM324.031 128.781V104.188H302.031V128.781H324.031ZM313.031 115.188H318.812V93.1875H313.031V115.188ZM307.812 104.188V138H329.812V104.188H307.812ZM318.812 127H313.312V149H318.812V127ZM324.305 137.589L324.18 134.245L302.195 135.067L302.32 138.411L324.305 137.589ZM23.8125 179.188L34.803 178.73L34.3637 168.188H23.8125V179.188ZM23.9688 182.938L12.9783 183.395L14.1483 211.476L32.3501 190.062L23.9688 182.938ZM43.6562 184L33.7058 188.689L41.8397 205.949L52.7004 190.261L43.6562 184ZM48.0312 180.062L42.7174 170.431L42.6938 170.444L42.6702 170.457L48.0312 180.062ZM65.75 190.344H76.75V190.256L76.7486 190.169L65.75 190.344ZM65.75 213V224H76.75V213H65.75ZM59.9688 213H48.9688V224H59.9688V213ZM58.3125 185.281L50.1922 192.702L50.2243 192.737L50.2568 192.772L58.3125 185.281ZM47.4062 185.406L54.7515 193.594L54.7847 193.565L54.8175 193.535L47.4062 185.406ZM44.9375 190.562L33.9985 189.405L33.9375 189.982V190.562H44.9375ZM44.9375 213V224H55.9375V213H44.9375ZM39.125 213H28.125V224H39.125V213ZM24.125 188.312L14.0279 183.948L13.125 186.037V188.312H24.125ZM24.125 213V224H35.125V213H24.125ZM18.3438 213H7.34375V224H18.3438V213ZM18.3438 179.188V168.188H7.34375V179.188H18.3438ZM12.822 179.645L12.9783 183.395L34.9592 182.48L34.803 178.73L12.822 179.645ZM32.3501 190.062C32.5594 189.815 32.6735 189.765 32.7334 189.739C32.8211 189.701 33.1783 189.562 34 189.562V167.562C26.9266 167.562 20.3802 170.175 15.5874 175.813L32.3501 190.062ZM34 189.562C34.9921 189.562 35.0012 189.753 34.5636 189.507C34.3453 189.384 34.124 189.21 33.9405 189.007C33.7628 188.811 33.6995 188.676 33.7058 188.689L53.6067 179.311C51.8664 175.618 49.127 172.459 45.3582 170.337C41.7019 168.278 37.7371 167.562 34 167.562V189.562ZM52.7004 190.261C52.8322 190.071 53.0099 189.881 53.3923 189.668L42.6702 170.457C39.4693 172.244 36.7303 174.679 34.6121 177.739L52.7004 190.261ZM53.3451 189.694C53.3189 189.708 53.3543 189.682 53.5 189.648C53.6537 189.612 53.9526 189.562 54.4375 189.562V167.562C50.4694 167.562 46.4374 168.379 42.7174 170.431L53.3451 189.694ZM54.4375 189.562C55.3494 189.562 55.6973 189.686 55.6731 189.678C55.652 189.671 55.5444 189.63 55.3862 189.53C55.2249 189.429 55.0532 189.293 54.8937 189.127C54.7351 188.961 54.6289 188.809 54.5662 188.701C54.5059 188.598 54.5034 188.566 54.5289 188.643C54.5871 188.819 54.7334 189.388 54.7514 190.519L76.7486 190.169C76.6613 184.684 75.2788 178.593 70.7625 173.889C66.1379 169.073 60.0213 167.562 54.4375 167.562V189.562ZM54.75 190.344V213H76.75V190.344H54.75ZM65.75 202H59.9688V224H65.75V202ZM70.9688 213V190.688H48.9688V213H70.9688ZM70.9688 190.688C70.9688 186.827 70.1114 181.817 66.3682 177.791L50.2568 192.772C49.506 191.964 49.1695 191.178 49.0372 190.746C48.9179 190.356 48.9688 190.28 48.9688 190.688H70.9688ZM66.4328 177.861C62.286 173.323 56.6575 172.469 52.75 172.469V194.469C53.2576 194.469 53.158 194.535 52.6858 194.381C52.1524 194.207 51.1472 193.747 50.1922 192.702L66.4328 177.861ZM52.75 172.469C48.2148 172.469 43.6841 173.914 39.995 177.278L54.8175 193.535C54.4748 193.847 54.0335 194.121 53.5541 194.294C53.0946 194.461 52.788 194.469 52.75 194.469V172.469ZM40.061 177.218C36.3241 180.57 34.4697 184.95 33.9985 189.405L55.8765 191.72C55.8778 191.707 55.8496 191.978 55.648 192.399C55.4359 192.842 55.121 193.263 54.7515 193.594L40.061 177.218ZM33.9375 190.562V213H55.9375V190.562H33.9375ZM44.9375 202H39.125V224H44.9375V202ZM50.125 213V190.844H28.125V213H50.125ZM50.125 190.844C50.125 186.748 49.123 181.645 45.1813 177.618C41.197 173.547 36.0685 172.469 31.9062 172.469V194.469C32.5565 194.469 31.0374 194.619 29.4593 193.007C27.9239 191.438 28.125 190.023 28.125 190.844H50.125ZM31.9062 172.469C28.4495 172.469 24.7219 173.214 21.3041 175.341C17.8293 177.504 15.4754 180.599 14.0279 183.948L34.2221 192.677C34.2104 192.704 34.1185 192.906 33.8872 193.187C33.6473 193.478 33.3231 193.774 32.9303 194.018C32.1062 194.531 31.5714 194.469 31.9062 194.469V172.469ZM13.125 188.312V213H35.125V188.312H13.125ZM24.125 202H18.3438V224H24.125V202ZM29.3438 213V179.188H7.34375V213H29.3438ZM18.3438 190.188H23.8125V168.188H18.3438V190.188ZM77.3438 209.125L69.3756 216.708L69.3887 216.722L69.4019 216.736L77.3438 209.125ZM74.9375 187L65.0525 182.174L65.0446 182.191L65.0367 182.207L74.9375 187ZM80.3125 180.812L86.2778 190.055L86.2882 190.048L86.2986 190.041L80.3125 180.812ZM98.0625 182.906L89.6469 189.99L98.0625 182.906ZM101.719 197.75V208.75H112.719V197.75H101.719ZM78.8125 197.75V186.75H67.5341L67.8159 198.025L78.8125 197.75ZM81.7188 205.844L73.5384 213.198L73.5774 213.241L73.6169 213.284L81.7188 205.844ZM97.75 204.344L104.509 195.665L95.7972 188.881L89.0459 197.618L97.75 204.344ZM101.281 207.094L110.501 213.093L116.012 204.624L108.04 198.415L101.281 207.094ZM81.9375 185.875L89.9593 193.402L89.9824 193.377L90.0052 193.352L81.9375 185.875ZM79 193L68.0815 191.663L66.5709 204H79V193ZM95.9375 193V204H106.938V193H95.9375ZM95.9375 192.562H106.938V192.251L106.92 191.939L95.9375 192.562ZM93.5625 185.75L85.271 192.978L85.2941 193.005L85.3174 193.031L93.5625 185.75ZM88.5312 202.625C86.605 202.625 85.8609 202.114 85.2856 201.514L69.4019 216.736C74.5766 222.136 81.2908 224.625 88.5312 224.625V202.625ZM85.3119 201.542C84.7753 200.978 84.0312 199.875 84.0312 197.031H62.0312C62.0312 204.271 64.1622 211.231 69.3756 216.708L85.3119 201.542ZM84.0312 197.031V195.969H62.0312V197.031H84.0312ZM84.0312 195.969C84.0312 194.026 84.3922 192.715 84.8383 191.793L65.0367 182.207C62.9412 186.535 62.0312 191.204 62.0312 195.969H84.0312ZM84.8225 191.826C85.307 190.833 85.8043 190.36 86.2778 190.055L74.3472 171.57C70.2373 174.223 67.1514 177.875 65.0525 182.174L84.8225 191.826ZM86.2986 190.041C86.877 189.666 87.3065 189.562 87.8125 189.562V167.562C82.9435 167.562 78.373 168.959 74.3264 171.584L86.2986 190.041ZM87.8125 189.562C88.8035 189.562 89.2558 189.724 89.3798 189.777C89.4602 189.811 89.5206 189.84 89.6469 189.99L106.478 175.823C101.602 170.03 94.8713 167.562 87.8125 167.562V189.562ZM89.6469 189.99C89.8294 190.207 90.7188 191.455 90.7188 195.344H112.719C112.719 188.441 111.171 181.398 106.478 175.823L89.6469 189.99ZM90.7188 195.344V197.75H112.719V195.344H90.7188ZM101.719 186.75H78.8125V208.75H101.719V186.75ZM67.8159 198.025C67.9509 203.424 69.5943 208.811 73.5384 213.198L89.8991 198.49C89.9571 198.554 89.9736 198.609 89.9544 198.556C89.9258 198.476 89.8261 198.155 89.8091 197.475L67.8159 198.025ZM73.6169 213.284C77.6612 217.688 83.0184 219.906 88.8438 219.906V197.906C88.7319 197.906 88.919 197.892 89.2501 198.035C89.4027 198.1 89.5389 198.179 89.6496 198.259C89.7584 198.338 89.8134 198.395 89.8206 198.403L73.6169 213.284ZM88.8438 219.906C92.3756 219.906 96.1369 219.18 99.6085 217.138L88.454 198.175C88.7541 197.998 88.9915 197.925 89.095 197.9C89.1877 197.878 89.1215 197.906 88.8438 197.906V219.906ZM99.6085 217.138C102.302 215.553 104.584 213.49 106.454 211.07L89.0459 197.618C88.7908 197.948 88.5942 198.093 88.454 198.175L99.6085 217.138ZM90.9913 213.022L94.5226 215.772L108.04 198.415L104.509 195.665L90.9913 213.022ZM92.0614 201.094C91.4674 202.007 90.8782 202.625 88.5312 202.625V224.625C97.5177 224.625 105.428 220.889 110.501 213.093L92.0614 201.094ZM87.8125 172.312C82.423 172.312 77.5389 174.439 73.8698 178.398L90.0052 193.352C89.86 193.509 89.5233 193.804 88.9915 194.036C88.4601 194.268 88.0186 194.312 87.8125 194.312V172.312ZM73.9157 178.348C70.2769 182.227 68.6467 187.047 68.0815 191.663L89.9185 194.337C90.0091 193.597 90.139 193.227 90.1852 193.115C90.2226 193.024 90.1747 193.172 89.9593 193.402L73.9157 178.348ZM79 204H95.9375V182H79V204ZM106.938 193V192.562H84.9375V193H106.938ZM106.92 191.939C106.665 187.451 105.374 182.507 101.808 178.469L85.3174 193.031C85.1521 192.844 85.0324 192.668 84.9508 192.525C84.8705 192.384 84.8374 192.293 84.8319 192.277C84.8269 192.263 84.8489 192.323 84.8769 192.475C84.905 192.628 84.9367 192.86 84.9552 193.186L106.92 191.939ZM101.854 178.522C98.0815 174.194 92.9783 172.312 87.8125 172.312V194.312C87.7806 194.312 87.3697 194.304 86.7693 194.049C86.137 193.781 85.6183 193.377 85.271 192.978L101.854 178.522ZM110.719 183.312L119.386 190.086L119.397 190.072L119.408 190.058L110.719 183.312ZM129.781 182.625L121.416 189.768L140.781 212.448V182.625H129.781ZM129.781 165V154H118.781V165H129.781ZM135.562 165H146.562V154H135.562V165ZM135.562 213V224H146.562V213H135.562ZM130.25 213L119.283 213.851L120.07 224H130.25V213ZM129.969 209.375L140.936 208.524L138.811 181.144L121.447 202.42L129.969 209.375ZM110.719 208.812L101.987 215.503L102.001 215.521L102.015 215.538L110.719 208.812ZM129.781 203.781L139.57 208.799L140.781 206.437V203.781H129.781ZM129.781 188.25H140.781V185.458L139.45 183.005L129.781 188.25ZM118.031 195.812C118.031 192.34 118.839 190.786 119.386 190.086L102.051 176.539C97.6816 182.131 96.0312 188.91 96.0312 195.812H118.031ZM119.408 190.058C119.58 189.836 119.704 189.721 119.764 189.671C119.82 189.623 119.841 189.616 119.832 189.62C119.823 189.625 119.836 189.616 119.896 189.603C119.961 189.588 120.112 189.562 120.375 189.562V167.562C112.968 167.562 106.554 170.74 102.03 176.567L119.408 190.058ZM120.375 189.562C120.738 189.562 120.981 189.594 121.127 189.621C121.269 189.648 121.329 189.674 121.334 189.677C121.336 189.678 121.325 189.672 121.317 189.666C121.31 189.661 121.344 189.684 121.416 189.768L138.147 175.482C133.496 170.035 127.148 167.562 120.375 167.562V189.562ZM140.781 182.625V165H118.781V182.625H140.781ZM129.781 176H135.562V154H129.781V176ZM124.562 165V213H146.562V165H124.562ZM135.562 202H130.25V224H135.562V202ZM141.217 212.149L140.936 208.524L119.002 210.226L119.283 213.851L141.217 212.149ZM121.447 202.42C121.379 202.503 121.349 202.522 121.362 202.512C121.377 202.501 121.392 202.493 121.389 202.495C121.383 202.497 121.314 202.527 121.153 202.559C120.988 202.59 120.715 202.625 120.312 202.625V224.625C127.265 224.625 133.805 222.071 138.491 216.33L121.447 202.42ZM120.312 202.625C120.088 202.625 119.968 202.602 119.929 202.594C119.894 202.586 119.895 202.583 119.909 202.59C119.922 202.596 119.895 202.586 119.826 202.527C119.753 202.465 119.614 202.333 119.423 202.087L102.015 215.538C106.491 221.332 112.852 224.625 120.312 224.625V202.625ZM119.45 202.122C118.829 201.311 118.031 199.678 118.031 196.25H96.0312C96.0312 203.156 97.6917 209.897 101.987 215.503L119.45 202.122ZM118.031 196.25V195.812H96.0312V196.25H118.031ZM101.812 196.469C101.812 201.67 102.869 207.255 106.306 211.959L124.069 198.979C124.339 199.349 123.812 198.934 123.812 196.469H101.812ZM106.306 211.959C110.057 217.092 115.614 219.719 121.75 219.719V197.719C121.804 197.719 122.269 197.738 122.897 198.049C123.541 198.368 123.923 198.779 124.069 198.979L106.306 211.959ZM121.75 219.719C125.273 219.719 128.926 218.91 132.269 216.855C135.606 214.803 137.972 211.916 139.57 208.799L119.993 198.763C119.903 198.938 120.086 198.52 120.747 198.114C121.047 197.929 121.333 197.819 121.552 197.763C121.761 197.708 121.844 197.719 121.75 197.719V219.719ZM140.781 203.781V188.25H118.781V203.781H140.781ZM139.45 183.005C137.809 179.98 135.436 177.202 132.152 175.232C128.861 173.257 125.28 172.469 121.812 172.469V194.469C121.892 194.469 121.807 194.477 121.604 194.425C121.392 194.371 121.119 194.268 120.833 194.096C120.205 193.72 120.024 193.332 120.112 193.495L139.45 183.005ZM121.812 172.469C115.656 172.469 110.046 175.093 106.277 180.3L124.098 193.2C123.946 193.41 123.558 193.827 122.913 194.146C122.618 194.292 122.349 194.378 122.137 194.424C121.93 194.469 121.812 194.469 121.812 194.469V172.469ZM106.277 180.3C102.746 185.178 101.812 191.123 101.812 196.469H123.812C123.812 194.966 123.954 193.993 124.092 193.432C124.227 192.879 124.312 192.905 124.098 193.2L106.277 180.3ZM150.844 213V224H161.844V213H150.844ZM145.062 213H134.062V224H145.062V213ZM145.062 179.188V168.188H134.062V179.188H145.062ZM150.844 179.188H161.844V168.188H150.844V179.188ZM145.438 167.844L137.274 160.471L137.208 160.544L137.143 160.619L145.438 167.844ZM145.438 172.562L137.261 179.921L137.328 179.995L137.396 180.068L145.438 172.562ZM150.844 202H145.062V224H150.844V202ZM156.062 213V179.188H134.062V213H156.062ZM145.062 190.188H150.844V168.188H145.062V190.188ZM139.844 179.188V213H161.844V179.188H139.844ZM155.594 170.219C155.594 170.86 155.495 171.689 155.17 172.604C154.84 173.534 154.339 174.371 153.732 175.068L137.143 160.619C134.666 163.463 133.594 166.896 133.594 170.219H155.594ZM153.601 175.217C152.662 176.256 151.531 176.981 150.405 177.406C149.338 177.81 148.469 177.875 148 177.875V155.875C144.73 155.875 140.514 156.884 137.274 160.471L153.601 175.217ZM148 177.875C147.531 177.875 146.662 177.81 145.595 177.406C144.469 176.981 143.338 176.256 142.399 175.217L158.726 160.471C155.486 156.884 151.27 155.875 148 155.875V177.875ZM142.399 175.217C141.781 174.532 141.252 173.687 140.897 172.725C140.547 171.775 140.438 170.904 140.438 170.219H162.438C162.438 166.786 161.283 163.302 158.726 160.471L142.399 175.217ZM140.438 170.219C140.438 169.536 140.546 168.644 140.913 167.661C141.287 166.66 141.85 165.776 142.521 165.057L158.604 180.068C161.279 177.202 162.438 173.65 162.438 170.219H140.438ZM142.521 165.057C144.62 162.808 147.087 162.5 148 162.5V184.5C151.163 184.5 155.339 183.567 158.604 180.068L142.521 165.057ZM148 162.5C148.913 162.5 151.38 162.808 153.479 165.057L137.396 180.068C140.661 183.567 144.837 184.5 148 184.5V162.5ZM153.614 165.204C154.273 165.936 154.806 166.815 155.154 167.782C155.496 168.73 155.594 169.58 155.594 170.219H133.594C133.594 173.537 134.668 177.039 137.261 179.921L153.614 165.204ZM167.969 171H178.969V160H167.969V171ZM167.969 179.188H156.969V190.188H167.969V179.188ZM174.281 179.188H185.281V168.188H174.281V179.188ZM174.281 183.656V194.656H185.281V183.656H174.281ZM167.969 183.656V172.656H156.969V183.656H167.969ZM168.812 207.688L160.299 214.653L160.352 214.718L160.405 214.781L168.812 207.688ZM174.438 208.312H185.438V194.706L172.133 197.557L174.438 208.312ZM174.438 213L177.344 223.609L185.438 221.392V213H174.438ZM162.188 183.656H173.188V172.656H162.188V183.656ZM156.031 183.656H145.031V194.656H156.031V183.656ZM156.031 179.188V168.188H145.031V179.188H156.031ZM162.188 179.188V190.188H173.188V179.188H162.188ZM162.188 171V160H151.188V171H162.188ZM156.969 171V179.188H178.969V171H156.969ZM167.969 190.188H174.281V168.188H167.969V190.188ZM163.281 179.188V183.656H185.281V179.188H163.281ZM174.281 172.656H167.969V194.656H174.281V172.656ZM156.969 183.656V204.625H178.969V183.656H156.969ZM156.969 204.625C156.969 207.247 157.475 211.201 160.299 214.653L177.326 200.722C178.184 201.771 178.595 202.795 178.785 203.484C178.967 204.148 178.969 204.575 178.969 204.625H156.969ZM160.405 214.781C163.989 219.028 168.885 219.688 171.688 219.688V197.688C171.781 197.688 174.761 197.68 177.22 200.594L160.405 214.781ZM171.688 219.688C173.508 219.688 175.312 219.375 176.742 219.068L172.133 197.557C171.747 197.639 171.507 197.678 171.389 197.695C171.333 197.702 171.329 197.701 171.369 197.698C171.406 197.695 171.517 197.688 171.688 197.688V219.688ZM163.438 208.312V213H185.438V208.312H163.438ZM171.531 202.391C170.866 202.573 170.366 202.625 170 202.625V224.625C172.509 224.625 174.967 224.26 177.344 223.609L171.531 202.391ZM170 202.625C169.797 202.625 170.106 202.593 170.696 202.83C171.351 203.092 172.038 203.562 172.579 204.206L155.733 218.356C159.671 223.044 165.103 224.625 170 224.625V202.625ZM172.579 204.206C172.789 204.457 172.944 204.699 173.052 204.906C173.158 205.111 173.209 205.26 173.228 205.325C173.262 205.439 173.188 205.251 173.188 204.625H151.188C151.188 209.043 152.189 214.137 155.733 218.356L172.579 204.206ZM173.188 204.625V183.656H151.188V204.625H173.188ZM162.188 172.656H156.031V194.656H162.188V172.656ZM167.031 183.656V179.188H145.031V183.656H167.031ZM156.031 190.188H162.188V168.188H156.031V190.188ZM173.188 179.188V171H151.188V179.188H173.188ZM162.188 182H167.969V160H162.188V182ZM201.938 213L192.099 217.919L195.139 224H201.938V213ZM201.125 209.438L212.044 208.106L209.244 185.143L193.2 201.809L201.125 209.438ZM183.281 210.812L175.958 219.021L176.001 219.058L176.043 219.096L183.281 210.812ZM184.094 195.438L190.56 204.337L190.566 204.332L190.572 204.328L184.094 195.438ZM201.031 192.5V203.5H212.031V192.5H201.031ZM199.219 185.031L191.441 192.809L191.474 192.843L191.509 192.877L199.219 185.031ZM186.594 188.562V199.562H197.594V188.562H186.594ZM180.781 188.562H169.781V199.562H180.781V188.562ZM182.562 183.688L173.818 177.014L173.811 177.023L173.805 177.032L182.562 183.688ZM187.438 179.938L182.97 169.886L182.951 169.894L182.932 169.903L187.438 179.938ZM203.375 181.5L196.077 189.73L196.098 189.749L196.12 189.769L203.375 181.5ZM206.812 189.531H217.812V189.397L217.809 189.263L206.812 189.531ZM208 212.5H219V210.226L218.099 208.139L208 212.5ZM208 213V224H219V213H208ZM201.031 203.531L210.924 208.34L212.031 206.063V203.531H201.031ZM201.031 196.594H212.031V185.594H201.031V196.594ZM211.776 208.081C211.891 208.311 211.975 208.506 212.033 208.652C212.092 208.799 212.132 208.915 212.158 208.994C212.184 209.074 212.199 209.129 212.206 209.154C212.213 209.179 212.214 209.183 212.209 209.163C212.199 209.12 212.176 209.012 212.145 208.825C212.115 208.641 212.08 208.403 212.044 208.106L190.206 210.769C190.419 212.519 190.838 215.399 192.099 217.919L211.776 208.081ZM193.2 201.809C192.495 202.541 192.11 202.625 191.5 202.625V224.625C198.348 224.625 204.38 221.917 209.05 217.066L193.2 201.809ZM191.5 202.625C190.865 202.625 190.571 202.537 190.507 202.514C190.472 202.503 190.472 202.499 190.49 202.51C190.509 202.521 190.521 202.53 190.519 202.529L176.043 219.096C180.526 223.013 185.983 224.625 191.5 224.625V202.625ZM190.604 202.604C190.594 202.595 190.643 202.637 190.717 202.738C190.794 202.841 190.876 202.976 190.946 203.134C191.1 203.482 191.094 203.699 191.094 203.625H169.094C169.094 209.595 171.449 214.998 175.958 219.021L190.604 202.604ZM191.094 203.625C191.094 203.439 191.111 203.383 191.102 203.428C191.091 203.478 191.058 203.602 190.977 203.766C190.896 203.932 190.796 204.081 190.696 204.198C190.598 204.311 190.537 204.353 190.56 204.337L177.628 186.538C171.893 190.705 169.094 196.864 169.094 203.625H191.094ZM190.572 204.328C190.691 204.241 191.856 203.5 195.406 203.5V181.5C189.249 181.5 182.872 182.717 177.616 186.547L190.572 204.328ZM195.406 203.5H201.031V181.5H195.406V203.5ZM212.031 192.5V189.844H190.031V192.5H212.031ZM212.031 189.844C212.031 185.484 210.641 180.834 206.929 177.186L191.509 192.877C190.96 192.337 190.538 191.676 190.284 191.002C190.044 190.365 190.031 189.926 190.031 189.844H212.031ZM206.997 177.253C203.047 173.303 198.022 172.219 193.875 172.219V194.219C194.14 194.219 193.936 194.256 193.443 194.089C192.899 193.904 192.146 193.515 191.441 192.809L206.997 177.253ZM193.875 172.219C189.892 172.219 185.737 173.258 182.109 175.965L195.266 193.597C194.9 193.871 194.52 194.047 194.204 194.142C193.905 194.232 193.769 194.219 193.875 194.219V172.219ZM182.109 175.965C178.489 178.666 175.594 182.969 175.594 188.562H197.594C197.594 189.635 197.319 190.791 196.74 191.836C196.193 192.826 195.563 193.376 195.266 193.597L182.109 175.965ZM186.594 177.562H180.781V199.562H186.594V177.562ZM191.781 188.562C191.781 189.039 191.692 189.487 191.558 189.853C191.431 190.203 191.304 190.364 191.32 190.343L173.805 177.032C171.409 180.184 169.781 184.093 169.781 188.562H191.781ZM191.307 190.361C191.308 190.36 191.325 190.334 191.394 190.281C191.468 190.225 191.634 190.111 191.943 189.972L182.932 169.903C179.429 171.475 176.269 173.802 173.818 177.014L191.307 190.361ZM191.905 189.989C192.44 189.752 193.161 189.562 194.219 189.562V167.562C190.36 167.562 186.56 168.29 182.97 169.886L191.905 189.989ZM194.219 189.562C195.263 189.562 195.834 189.696 196.069 189.771C196.268 189.835 196.21 189.849 196.077 189.73L210.673 173.27C205.882 169.021 199.928 167.562 194.219 167.562V189.562ZM196.12 189.769C196.078 189.732 196.008 189.661 195.934 189.559C195.86 189.457 195.808 189.36 195.778 189.289C195.714 189.14 195.802 189.25 195.816 189.799L217.809 189.263C217.664 183.323 215.531 177.532 210.63 173.231L196.12 189.769ZM195.812 189.531V205.094H217.812V189.531H195.812ZM195.812 205.094C195.812 208.954 196.278 213.101 197.901 216.861L218.099 208.139C218.142 208.24 218.059 208.08 217.971 207.532C217.884 206.991 217.812 206.196 217.812 205.094H195.812ZM197 212.5V213H219V212.5H197ZM208 202H201.938V224H208V202ZM192.344 219.594C196.155 219.594 199.762 218.582 202.997 216.716L192.003 197.659C191.965 197.682 192 197.657 192.098 197.63C192.198 197.602 192.289 197.594 192.344 197.594V219.594ZM202.997 216.716C206.28 214.822 209.117 212.058 210.924 208.34L191.138 198.722C191.289 198.413 191.485 198.14 191.689 197.929C191.886 197.725 192.021 197.649 192.003 197.659L202.997 216.716ZM212.031 203.531V196.594H190.031V203.531H212.031ZM201.031 185.594H196.5V207.594H201.031V185.594ZM196.5 185.594C192.245 185.594 187.25 186.153 182.975 188.655C177.79 191.69 174.875 196.883 174.875 202.812H196.875C196.875 203.379 196.74 204.407 196.098 205.536C195.452 206.669 194.62 207.33 194.088 207.642C193.625 207.913 193.48 207.872 193.958 207.779C194.418 207.689 195.233 207.594 196.5 207.594V185.594ZM174.875 202.812C174.875 207.336 176.53 212.036 180.589 215.465L194.786 198.66C195.457 199.226 196.056 200.004 196.446 200.919C196.82 201.794 196.875 202.494 196.875 202.812H174.875ZM180.589 215.465C184.158 218.481 188.388 219.594 192.344 219.594V197.594C192.38 197.594 192.7 197.599 193.194 197.761C193.714 197.932 194.277 198.229 194.786 198.66L180.589 215.465ZM223.719 171H234.719V160H223.719V171ZM223.719 179.188H212.719V190.188H223.719V179.188ZM230.031 179.188H241.031V168.188H230.031V179.188ZM230.031 183.656V194.656H241.031V183.656H230.031ZM223.719 183.656V172.656H212.719V183.656H223.719ZM224.562 207.688L216.049 214.653L216.102 214.718L216.155 214.781L224.562 207.688ZM230.188 208.312H241.188V194.706L227.883 197.557L230.188 208.312ZM230.188 213L233.094 223.609L241.188 221.392V213H230.188ZM217.938 183.656H228.938V172.656H217.938V183.656ZM211.781 183.656H200.781V194.656H211.781V183.656ZM211.781 179.188V168.188H200.781V179.188H211.781ZM217.938 179.188V190.188H228.938V179.188H217.938ZM217.938 171V160H206.938V171H217.938ZM212.719 171V179.188H234.719V171H212.719ZM223.719 190.188H230.031V168.188H223.719V190.188ZM219.031 179.188V183.656H241.031V179.188H219.031ZM230.031 172.656H223.719V194.656H230.031V172.656ZM212.719 183.656V204.625H234.719V183.656H212.719ZM212.719 204.625C212.719 207.247 213.225 211.201 216.049 214.653L233.076 200.722C233.934 201.771 234.345 202.795 234.535 203.484C234.717 204.148 234.719 204.575 234.719 204.625H212.719ZM216.155 214.781C219.739 219.028 224.635 219.688 227.438 219.688V197.688C227.531 197.688 230.511 197.68 232.97 200.594L216.155 214.781ZM227.438 219.688C229.258 219.688 231.062 219.375 232.492 219.068L227.883 197.557C227.497 197.639 227.257 197.678 227.139 197.695C227.083 197.702 227.079 197.701 227.119 197.698C227.156 197.695 227.267 197.688 227.438 197.688V219.688ZM219.188 208.312V213H241.188V208.312H219.188ZM227.281 202.391C226.616 202.573 226.116 202.625 225.75 202.625V224.625C228.259 224.625 230.717 224.26 233.094 223.609L227.281 202.391ZM225.75 202.625C225.547 202.625 225.856 202.593 226.446 202.83C227.101 203.092 227.788 203.562 228.329 204.206L211.483 218.356C215.421 223.044 220.853 224.625 225.75 224.625V202.625ZM228.329 204.206C228.539 204.457 228.694 204.699 228.802 204.906C228.908 205.111 228.959 205.26 228.978 205.325C229.012 205.439 228.938 205.251 228.938 204.625H206.938C206.938 209.043 207.939 214.137 211.483 218.356L228.329 204.206ZM228.938 204.625V183.656H206.938V204.625H228.938ZM217.938 172.656H211.781V194.656H217.938V172.656ZM222.781 183.656V179.188H200.781V183.656H222.781ZM211.781 190.188H217.938V168.188H211.781V190.188ZM228.938 179.188V171H206.938V179.188H228.938ZM217.938 182H223.719V160H217.938V182ZM239.656 209.125L231.688 216.708L231.701 216.722L231.714 216.736L239.656 209.125ZM237.25 187L227.365 182.174L227.357 182.191L227.349 182.207L237.25 187ZM242.625 180.812L248.59 190.055L248.601 190.048L248.611 190.041L242.625 180.812ZM260.375 182.906L251.959 189.99L260.375 182.906ZM264.031 197.75V208.75H275.031V197.75H264.031ZM241.125 197.75V186.75H229.847L230.128 198.025L241.125 197.75ZM244.031 205.844L235.851 213.198L235.89 213.241L235.929 213.284L244.031 205.844ZM260.062 204.344L266.821 195.665L258.11 188.881L251.358 197.618L260.062 204.344ZM263.594 207.094L272.814 213.093L278.325 204.624L270.352 198.415L263.594 207.094ZM244.25 185.875L252.272 193.402L252.295 193.377L252.318 193.352L244.25 185.875ZM241.312 193L230.394 191.663L228.883 204H241.312V193ZM258.25 193V204H269.25V193H258.25ZM258.25 192.562H269.25V192.251L269.232 191.939L258.25 192.562ZM255.875 185.75L247.583 192.978L247.607 193.005L247.63 193.031L255.875 185.75ZM250.844 202.625C248.917 202.625 248.173 202.114 247.598 201.514L231.714 216.736C236.889 222.136 243.603 224.625 250.844 224.625V202.625ZM247.624 201.542C247.088 200.978 246.344 199.875 246.344 197.031H224.344C224.344 204.271 226.475 211.231 231.688 216.708L247.624 201.542ZM246.344 197.031V195.969H224.344V197.031H246.344ZM246.344 195.969C246.344 194.026 246.705 192.715 247.151 191.793L227.349 182.207C225.254 186.535 224.344 191.204 224.344 195.969H246.344ZM247.135 191.826C247.619 190.833 248.117 190.36 248.59 190.055L236.66 171.57C232.55 174.223 229.464 177.875 227.365 182.174L247.135 191.826ZM248.611 190.041C249.19 189.666 249.619 189.562 250.125 189.562V167.562C245.256 167.562 240.685 168.959 236.639 171.584L248.611 190.041ZM250.125 189.562C251.116 189.562 251.568 189.724 251.692 189.777C251.773 189.811 251.833 189.84 251.959 189.99L268.791 175.823C263.915 170.03 257.184 167.562 250.125 167.562V189.562ZM251.959 189.99C252.142 190.207 253.031 191.455 253.031 195.344H275.031C275.031 188.441 273.483 181.398 268.791 175.823L251.959 189.99ZM253.031 195.344V197.75H275.031V195.344H253.031ZM264.031 186.75H241.125V208.75H264.031V186.75ZM230.128 198.025C230.263 203.424 231.907 208.811 235.851 213.198L252.212 198.49C252.27 198.554 252.286 198.609 252.267 198.556C252.238 198.476 252.139 198.155 252.122 197.475L230.128 198.025ZM235.929 213.284C239.974 217.688 245.331 219.906 251.156 219.906V197.906C251.044 197.906 251.232 197.892 251.563 198.035C251.715 198.1 251.851 198.179 251.962 198.259C252.071 198.338 252.126 198.395 252.133 198.403L235.929 213.284ZM251.156 219.906C254.688 219.906 258.449 219.18 261.921 217.138L250.767 198.175C251.067 197.998 251.304 197.925 251.408 197.9C251.5 197.878 251.434 197.906 251.156 197.906V219.906ZM261.921 217.138C264.614 215.553 266.897 213.49 268.767 211.07L251.358 197.618C251.103 197.948 250.907 198.093 250.767 198.175L261.921 217.138ZM253.304 213.022L256.835 215.772L270.352 198.415L266.821 195.665L253.304 213.022ZM254.374 201.094C253.78 202.007 253.191 202.625 250.844 202.625V224.625C259.83 224.625 267.741 220.889 272.814 213.093L254.374 201.094ZM250.125 172.312C244.735 172.312 239.851 174.439 236.182 178.398L252.318 193.352C252.173 193.509 251.836 193.804 251.304 194.036C250.773 194.268 250.331 194.312 250.125 194.312V172.312ZM236.228 178.348C232.589 182.227 230.959 187.047 230.394 191.663L252.231 194.337C252.322 193.597 252.452 193.227 252.498 193.115C252.535 193.024 252.487 193.172 252.272 193.402L236.228 178.348ZM241.312 204H258.25V182H241.312V204ZM269.25 193V192.562H247.25V193H269.25ZM269.232 191.939C268.978 187.451 267.687 182.507 264.12 178.469L247.63 193.031C247.465 192.844 247.345 192.668 247.263 192.525C247.183 192.384 247.15 192.293 247.144 192.277C247.139 192.263 247.161 192.323 247.189 192.475C247.218 192.628 247.249 192.86 247.268 193.186L269.232 191.939ZM264.167 178.522C260.394 174.194 255.291 172.312 250.125 172.312V194.312C250.093 194.312 249.682 194.304 249.082 194.049C248.45 193.781 247.931 193.377 247.583 192.978L264.167 178.522ZM277.531 200.188L266.533 200.003L266.345 211.188H277.531V200.188ZM281.562 189.531L273.668 181.871L273.559 181.983L273.454 182.098L281.562 189.531ZM285.656 185.312L293.55 192.973L293.728 192.79L293.897 192.599L285.656 185.312ZM286.562 173.812L278.454 181.245L278.485 181.279L278.516 181.313L286.562 173.812ZM274.5 178.156V189.156H285.5V178.156H274.5ZM268.719 178.156L257.72 178.02L257.582 189.156H268.719V178.156ZM272.312 170L279.561 178.274L279.566 178.269L272.312 170ZM290.75 170.062L283.085 177.953L283.123 177.99L283.162 178.026L290.75 170.062ZM289 189.531L296.742 197.345L296.854 197.234L296.963 197.12L289 189.531ZM285.594 192.906L277.852 185.092L277.631 185.311L277.423 185.542L285.594 192.906ZM283.312 200.188V211.188H294.312V200.188H283.312ZM278.125 207.75L269.962 200.377L269.955 200.384L269.949 200.391L278.125 207.75ZM283.25 207.75L275.087 215.123L275.147 215.19L275.208 215.256L283.25 207.75ZM283.25 212.438L291.163 220.078L291.228 220.011L291.292 219.943L283.25 212.438ZM278.125 212.438L269.949 219.796L270.078 219.939L270.212 220.078L278.125 212.438ZM288.53 200.372C288.545 199.484 288.601 198.848 288.662 198.423C288.725 197.984 288.775 197.9 288.717 198.06L268.033 190.565C266.921 193.633 266.584 196.966 266.533 200.003L288.53 200.372ZM288.717 198.06C288.613 198.348 288.556 198.379 288.715 198.141C288.869 197.909 289.164 197.517 289.671 196.964L273.454 182.098C271.353 184.39 269.244 187.222 268.033 190.565L288.717 198.06ZM289.457 197.192L293.55 192.973L277.762 177.652L273.668 181.871L289.457 197.192ZM293.897 192.599C297.117 188.958 299.281 184.324 299.281 178.938H277.281C277.281 178.794 277.296 178.633 277.329 178.466C277.362 178.299 277.408 178.157 277.454 178.046C277.547 177.82 277.598 177.819 277.416 178.026L293.897 192.599ZM299.281 178.938C299.281 174.832 298.171 170.133 294.609 166.312L278.516 181.313C277.942 180.697 277.599 180.039 277.422 179.513C277.26 179.028 277.281 178.787 277.281 178.938H299.281ZM294.671 166.38C290.878 162.241 285.886 160.938 281.562 160.938V182.938C281.629 182.938 281.239 182.949 280.591 182.706C279.886 182.441 279.109 181.961 278.454 181.245L294.671 166.38ZM281.562 160.938C277.445 160.938 272.956 162.07 269.213 165.33L283.662 181.92C283.148 182.368 282.595 182.654 282.128 182.808C281.691 182.951 281.462 182.938 281.562 182.938V160.938ZM269.213 165.33C265.249 168.782 263.5 173.461 263.5 178.156H285.5C285.5 178.468 285.443 179.12 285.099 179.926C284.742 180.761 284.211 181.441 283.662 181.92L269.213 165.33ZM274.5 167.156H268.719V189.156H274.5V167.156ZM279.718 178.292C279.721 178.081 279.74 177.97 279.746 177.941C279.751 177.914 279.747 177.948 279.715 178.021C279.699 178.056 279.681 178.093 279.659 178.131C279.637 178.169 279.614 178.202 279.594 178.23C279.55 178.289 279.529 178.302 279.561 178.274L265.064 161.726C260.162 166.021 257.796 171.799 257.72 178.02L279.718 178.292ZM279.566 178.269C279.63 178.213 279.717 178.149 279.927 178.078C280.165 177.997 280.671 177.875 281.562 177.875V155.875C275.663 155.875 269.825 157.55 265.059 161.731L279.566 178.269ZM281.562 177.875C282.559 177.875 283.054 178.011 283.207 178.064C283.316 178.102 283.217 178.081 283.085 177.953L298.415 162.172C293.627 157.521 287.496 155.875 281.562 155.875V177.875ZM283.162 178.026C283.128 177.994 283.078 177.938 283.029 177.864C282.981 177.791 282.959 177.74 282.956 177.732C282.95 177.715 283.062 177.997 283.062 178.75H305.062C305.062 172.729 303.171 166.704 298.338 162.099L283.162 178.026ZM283.062 178.75C283.062 178.817 283.059 179.038 282.84 179.504C282.601 180.013 282.09 180.838 281.037 181.943L296.963 197.12C301.606 192.248 305.062 186.076 305.062 178.75H283.062ZM281.258 181.717L277.852 185.092L293.336 200.72L296.742 197.345L281.258 181.717ZM277.423 185.542C273.472 189.926 272.312 195.373 272.312 200.188H294.312C294.312 199.458 294.403 199.207 294.38 199.281C294.365 199.327 294.319 199.458 294.216 199.644C294.111 199.834 293.963 200.051 293.765 200.27L277.423 185.542ZM283.312 189.188H277.531V211.188H283.312V189.188ZM288.281 210.094C288.281 210.733 288.183 211.582 287.842 212.531C287.494 213.497 286.96 214.376 286.301 215.109L269.949 200.391C267.355 203.273 266.281 206.775 266.281 210.094H288.281ZM286.288 215.123C285.349 216.163 284.219 216.887 283.093 217.313C282.026 217.716 281.156 217.781 280.688 217.781V195.781C277.418 195.781 273.201 196.79 269.962 200.377L286.288 215.123ZM280.688 217.781C280.219 217.781 279.349 217.716 278.282 217.313C277.156 216.887 276.026 216.163 275.087 215.123L291.413 200.377C288.174 196.79 283.957 195.781 280.688 195.781V217.781ZM275.208 215.256C274.538 214.537 273.974 213.652 273.601 212.652C273.234 211.669 273.125 210.777 273.125 210.094H295.125C295.125 206.663 293.967 203.111 291.292 200.244L275.208 215.256ZM273.125 210.094C273.125 209.411 273.234 208.519 273.601 207.536C273.974 206.535 274.538 205.651 275.208 204.932L291.292 219.943C293.967 217.077 295.125 213.525 295.125 210.094H273.125ZM275.337 204.797C277.457 202.6 279.879 202.344 280.688 202.344V224.344C283.746 224.344 287.876 223.483 291.163 220.078L275.337 204.797ZM280.688 202.344C281.496 202.344 283.918 202.6 286.038 204.797L270.212 220.078C273.499 223.483 277.629 224.344 280.688 224.344V202.344ZM286.301 205.079C286.96 205.811 287.494 206.69 287.842 207.657C288.183 208.605 288.281 209.455 288.281 210.094H266.281C266.281 213.412 267.355 216.914 269.949 219.796L286.301 205.079Z" fill="url(#paint0_linear)"/>
<defs>
<linearGradient id="paint0_linear" x1="71.5" y1="4.00001" x2="295.5" y2="225.5" gradientUnits="userSpaceOnUse">
<stop offset="0.0364583" stop-color="#3C38F4"/>
<stop offset="0.255208" stop-color="#F3DB05" stop-opacity="0.51"/>
<stop offset="0.497662" stop-color="#27F285" stop-opacity="0.502338"/>
<stop offset="0.775685" stop-color="#DA1111" stop-opacity="0.47"/>
<stop offset="1" stop-color="#F438B4" stop-opacity="0.24"/>
</linearGradient>
</defs>
</svg>
