<svg width="343" height="225" viewBox="0 0 343 225" fill="none" xmlns="http://www.w3.org/2000/svg">
<path d="M49.3125 55.0312L55.8125 29.1875H61.5938L51.75 63H47.0625L38.8438 37.375L30.8438 63H26.1562L16.3438 29.1875H22.0938L28.75 54.5L36.625 29.1875H41.2812L49.3125 55.0312ZM73.2812 33.2812C75.8438 30.1354 79.1771 28.5625 83.2812 28.5625C90.4271 28.5625 94.0312 32.5938 94.0938 40.6562V63H88.3125V40.625C88.2917 38.1875 87.7292 36.3854 86.625 35.2188C85.5417 34.0521 83.8438 33.4688 81.5312 33.4688C79.6562 33.4688 78.0104 33.9688 76.5938 34.9688C75.1771 35.9688 74.0729 37.2812 73.2812 38.9062V63H67.5V15H73.2812V33.2812ZM113.812 54.5312L121.688 29.1875H127.875L114.281 68.2188C112.177 73.8438 108.833 76.6562 104.25 76.6562L103.156 76.5625L101 76.1562V71.4688L102.562 71.5938C104.521 71.5938 106.042 71.1979 107.125 70.4062C108.229 69.6146 109.135 68.1667 109.844 66.0625L111.125 62.625L99.0625 29.1875H105.375L113.812 54.5312ZM168.625 54.0312C168.625 52.4688 168.031 51.2604 166.844 50.4062C165.677 49.5312 163.625 48.7812 160.688 48.1562C157.771 47.5312 155.448 46.7812 153.719 45.9062C152.01 45.0312 150.74 43.9896 149.906 42.7812C149.094 41.5729 148.688 40.1354 148.688 38.4688C148.688 35.6979 149.854 33.3542 152.188 31.4375C154.542 29.5208 157.542 28.5625 161.188 28.5625C165.021 28.5625 168.125 29.5521 170.5 31.5312C172.896 33.5104 174.094 36.0417 174.094 39.125H168.281C168.281 37.5417 167.604 36.1771 166.25 35.0312C164.917 33.8854 163.229 33.3125 161.188 33.3125C159.083 33.3125 157.438 33.7708 156.25 34.6875C155.062 35.6042 154.469 36.8021 154.469 38.2812C154.469 39.6771 155.021 40.7292 156.125 41.4375C157.229 42.1458 159.219 42.8229 162.094 43.4688C164.99 44.1146 167.333 44.8854 169.125 45.7812C170.917 46.6771 172.24 47.7604 173.094 49.0312C173.969 50.2812 174.406 51.8125 174.406 53.625C174.406 56.6458 173.198 59.0729 170.781 60.9062C168.365 62.7188 165.229 63.625 161.375 63.625C158.667 63.625 156.271 63.1458 154.188 62.1875C152.104 61.2292 150.469 59.8958 149.281 58.1875C148.115 56.4583 147.531 54.5938 147.531 52.5938H153.312C153.417 54.5312 154.188 56.0729 155.625 57.2188C157.083 58.3438 159 58.9062 161.375 58.9062C163.562 58.9062 165.312 58.4688 166.625 57.5938C167.958 56.6979 168.625 55.5104 168.625 54.0312ZM187.719 33.2812C190.281 30.1354 193.615 28.5625 197.719 28.5625C204.865 28.5625 208.469 32.5938 208.531 40.6562V63H202.75V40.625C202.729 38.1875 202.167 36.3854 201.062 35.2188C199.979 34.0521 198.281 33.4688 195.969 33.4688C194.094 33.4688 192.448 33.9688 191.031 34.9688C189.615 35.9688 188.51 37.2812 187.719 38.9062V63H181.938V15H187.719V33.2812ZM215.656 45.7812C215.656 42.4688 216.302 39.4896 217.594 36.8438C218.906 34.1979 220.719 32.1562 223.031 30.7188C225.365 29.2812 228.021 28.5625 231 28.5625C235.604 28.5625 239.323 30.1562 242.156 33.3438C245.01 36.5312 246.438 40.7708 246.438 46.0625V46.4688C246.438 49.7604 245.802 52.7188 244.531 55.3438C243.281 57.9479 241.479 59.9792 239.125 61.4375C236.792 62.8958 234.104 63.625 231.062 63.625C226.479 63.625 222.76 62.0312 219.906 58.8438C217.073 55.6562 215.656 51.4375 215.656 46.1875V45.7812ZM221.469 46.4688C221.469 50.2188 222.333 53.2292 224.062 55.5C225.812 57.7708 228.146 58.9062 231.062 58.9062C234 58.9062 236.333 57.7604 238.062 55.4688C239.792 53.1562 240.656 49.9271 240.656 45.7812C240.656 42.0729 239.771 39.0729 238 36.7812C236.25 34.4688 233.917 33.3125 231 33.3125C228.146 33.3125 225.844 34.4479 224.094 36.7188C222.344 38.9896 221.469 42.2396 221.469 46.4688ZM274.562 59.6562C272.312 62.3021 269.01 63.625 264.656 63.625C261.052 63.625 258.302 62.5833 256.406 60.5C254.531 58.3958 253.583 55.2917 253.562 51.1875V29.1875H259.344V51.0312C259.344 56.1562 261.427 58.7188 265.594 58.7188C270.01 58.7188 272.948 57.0729 274.406 53.7812V29.1875H280.188V63H274.688L274.562 59.6562ZM295.281 63H289.5V15H295.281V63ZM303.156 45.8125C303.156 40.625 304.385 36.4583 306.844 33.3125C309.302 30.1458 312.521 28.5625 316.5 28.5625C320.458 28.5625 323.594 29.9167 325.906 32.625V15H331.688V63H326.375L326.094 59.375C323.781 62.2083 320.562 63.625 316.438 63.625C312.521 63.625 309.323 62.0208 306.844 58.8125C304.385 55.6042 303.156 51.4167 303.156 46.25V45.8125ZM308.938 46.4688C308.938 50.3021 309.729 53.3021 311.312 55.4688C312.896 57.6354 315.083 58.7188 317.875 58.7188C321.542 58.7188 324.219 57.0729 325.906 53.7812V38.25C324.177 35.0625 321.521 33.4688 317.938 33.4688C315.104 33.4688 312.896 34.5625 311.312 36.75C309.729 38.9375 308.938 42.1771 308.938 46.4688ZM30.4375 129.531L38.3125 104.188H44.5L30.9062 143.219C28.8021 148.844 25.4583 151.656 20.875 151.656L19.7812 151.562L17.625 151.156V146.469L19.1875 146.594C21.1458 146.594 22.6667 146.198 23.75 145.406C24.8542 144.615 25.7604 143.167 26.4688 141.062L27.75 137.625L15.6875 104.188H22L30.4375 129.531ZM47.6562 120.781C47.6562 117.469 48.3021 114.49 49.5938 111.844C50.9062 109.198 52.7188 107.156 55.0312 105.719C57.3646 104.281 60.0208 103.562 63 103.562C67.6042 103.562 71.3229 105.156 74.1562 108.344C77.0104 111.531 78.4375 115.771 78.4375 121.062V121.469C78.4375 124.76 77.8021 127.719 76.5312 130.344C75.2812 132.948 73.4792 134.979 71.125 136.438C68.7917 137.896 66.1042 138.625 63.0625 138.625C58.4792 138.625 54.7604 137.031 51.9062 133.844C49.0729 130.656 47.6562 126.438 47.6562 121.188V120.781ZM53.4688 121.469C53.4688 125.219 54.3333 128.229 56.0625 130.5C57.8125 132.771 60.1458 133.906 63.0625 133.906C66 133.906 68.3333 132.76 70.0625 130.469C71.7917 128.156 72.6562 124.927 72.6562 120.781C72.6562 117.073 71.7708 114.073 70 111.781C68.25 109.469 65.9167 108.312 63 108.312C60.1458 108.312 57.8438 109.448 56.0938 111.719C54.3438 113.99 53.4688 117.24 53.4688 121.469ZM106.562 134.656C104.312 137.302 101.01 138.625 96.6562 138.625C93.0521 138.625 90.3021 137.583 88.4062 135.5C86.5312 133.396 85.5833 130.292 85.5625 126.188V104.188H91.3438V126.031C91.3438 131.156 93.4271 133.719 97.5938 133.719C102.01 133.719 104.948 132.073 106.406 128.781V104.188H112.188V138H106.688L106.562 134.656ZM24.8125 179.188L24.9688 182.938C27.4479 180.021 30.7917 178.562 35 178.562C39.7292 178.562 42.9479 180.375 44.6562 184C45.7812 182.375 47.2396 181.062 49.0312 180.062C50.8438 179.062 52.9792 178.562 55.4375 178.562C62.8542 178.562 66.625 182.49 66.75 190.344V213H60.9688V190.688C60.9688 188.271 60.4167 186.469 59.3125 185.281C58.2083 184.073 56.3542 183.469 53.75 183.469C51.6042 183.469 49.8229 184.115 48.4062 185.406C46.9896 186.677 46.1667 188.396 45.9375 190.562V213H40.125V190.844C40.125 185.927 37.7188 183.469 32.9062 183.469C29.1146 183.469 26.5208 185.083 25.125 188.312V213H19.3438V179.188H24.8125ZM89.5312 213.625C84.9479 213.625 81.2188 212.125 78.3438 209.125C75.4688 206.104 74.0312 202.073 74.0312 197.031V195.969C74.0312 192.615 74.6667 189.625 75.9375 187C77.2292 184.354 79.0208 182.292 81.3125 180.812C83.625 179.312 86.125 178.562 88.8125 178.562C93.2083 178.562 96.625 180.01 99.0625 182.906C101.5 185.802 102.719 189.948 102.719 195.344V197.75H79.8125C79.8958 201.083 80.8646 203.781 82.7188 205.844C84.5938 207.885 86.9688 208.906 89.8438 208.906C91.8854 208.906 93.6146 208.49 95.0312 207.656C96.4479 206.823 97.6875 205.719 98.75 204.344L102.281 207.094C99.4479 211.448 95.1979 213.625 89.5312 213.625ZM88.8125 183.312C86.4792 183.312 84.5208 184.167 82.9375 185.875C81.3542 187.562 80.375 189.938 80 193H96.9375V192.562C96.7708 189.625 95.9792 187.354 94.5625 185.75C93.1458 184.125 91.2292 183.312 88.8125 183.312ZM108.031 195.812C108.031 190.625 109.26 186.458 111.719 183.312C114.177 180.146 117.396 178.562 121.375 178.562C125.333 178.562 128.469 179.917 130.781 182.625V165H136.562V213H131.25L130.969 209.375C128.656 212.208 125.438 213.625 121.312 213.625C117.396 213.625 114.198 212.021 111.719 208.812C109.26 205.604 108.031 201.417 108.031 196.25V195.812ZM113.812 196.469C113.812 200.302 114.604 203.302 116.188 205.469C117.771 207.635 119.958 208.719 122.75 208.719C126.417 208.719 129.094 207.073 130.781 203.781V188.25C129.052 185.062 126.396 183.469 122.812 183.469C119.979 183.469 117.771 184.562 116.188 186.75C114.604 188.938 113.812 192.177 113.812 196.469ZM151.844 213H146.062V179.188H151.844V213ZM145.594 170.219C145.594 169.281 145.875 168.49 146.438 167.844C147.021 167.198 147.875 166.875 149 166.875C150.125 166.875 150.979 167.198 151.562 167.844C152.146 168.49 152.438 169.281 152.438 170.219C152.438 171.156 152.146 171.938 151.562 172.562C150.979 173.188 150.125 173.5 149 173.5C147.875 173.5 147.021 173.188 146.438 172.562C145.875 171.938 145.594 171.156 145.594 170.219ZM168.969 171V179.188H175.281V183.656H168.969V204.625C168.969 205.979 169.25 207 169.812 207.688C170.375 208.354 171.333 208.688 172.688 208.688C173.354 208.688 174.271 208.562 175.438 208.312V213C173.917 213.417 172.438 213.625 171 213.625C168.417 213.625 166.469 212.844 165.156 211.281C163.844 209.719 163.188 207.5 163.188 204.625V183.656H157.031V179.188H163.188V171H168.969ZM202.938 213C202.604 212.333 202.333 211.146 202.125 209.438C199.438 212.229 196.229 213.625 192.5 213.625C189.167 213.625 186.427 212.688 184.281 210.812C182.156 208.917 181.094 206.521 181.094 203.625C181.094 200.104 182.427 197.375 185.094 195.438C187.781 193.479 191.552 192.5 196.406 192.5H202.031V189.844C202.031 187.823 201.427 186.219 200.219 185.031C199.01 183.823 197.229 183.219 194.875 183.219C192.812 183.219 191.083 183.74 189.688 184.781C188.292 185.823 187.594 187.083 187.594 188.562H181.781C181.781 186.875 182.375 185.25 183.562 183.688C184.771 182.104 186.396 180.854 188.438 179.938C190.5 179.021 192.76 178.562 195.219 178.562C199.115 178.562 202.167 179.542 204.375 181.5C206.583 183.438 207.729 186.115 207.812 189.531V205.094C207.812 208.198 208.208 210.667 209 212.5V213H202.938ZM193.344 208.594C195.156 208.594 196.875 208.125 198.5 207.188C200.125 206.25 201.302 205.031 202.031 203.531V196.594H197.5C190.417 196.594 186.875 198.667 186.875 202.812C186.875 204.625 187.479 206.042 188.688 207.062C189.896 208.083 191.448 208.594 193.344 208.594ZM224.719 171V179.188H231.031V183.656H224.719V204.625C224.719 205.979 225 207 225.562 207.688C226.125 208.354 227.083 208.688 228.438 208.688C229.104 208.688 230.021 208.562 231.188 208.312V213C229.667 213.417 228.188 213.625 226.75 213.625C224.167 213.625 222.219 212.844 220.906 211.281C219.594 209.719 218.938 207.5 218.938 204.625V183.656H212.781V179.188H218.938V171H224.719ZM251.844 213.625C247.26 213.625 243.531 212.125 240.656 209.125C237.781 206.104 236.344 202.073 236.344 197.031V195.969C236.344 192.615 236.979 189.625 238.25 187C239.542 184.354 241.333 182.292 243.625 180.812C245.938 179.312 248.438 178.562 251.125 178.562C255.521 178.562 258.938 180.01 261.375 182.906C263.812 185.802 265.031 189.948 265.031 195.344V197.75H242.125C242.208 201.083 243.177 203.781 245.031 205.844C246.906 207.885 249.281 208.906 252.156 208.906C254.198 208.906 255.927 208.49 257.344 207.656C258.76 206.823 260 205.719 261.062 204.344L264.594 207.094C261.76 211.448 257.51 213.625 251.844 213.625ZM251.125 183.312C248.792 183.312 246.833 184.167 245.25 185.875C243.667 187.562 242.688 189.938 242.312 193H259.25V192.562C259.083 189.625 258.292 187.354 256.875 185.75C255.458 184.125 253.542 183.312 251.125 183.312ZM278.531 200.188C278.573 197.708 278.854 195.75 279.375 194.312C279.896 192.875 280.958 191.281 282.562 189.531L286.656 185.312C288.406 183.333 289.281 181.208 289.281 178.938C289.281 176.75 288.708 175.042 287.562 173.812C286.417 172.562 284.75 171.938 282.562 171.938C280.438 171.938 278.729 172.5 277.438 173.625C276.146 174.75 275.5 176.26 275.5 178.156H269.719C269.76 174.781 270.958 172.062 273.312 170C275.688 167.917 278.771 166.875 282.562 166.875C286.5 166.875 289.562 167.938 291.75 170.062C293.958 172.167 295.062 175.062 295.062 178.75C295.062 182.396 293.375 185.99 290 189.531L286.594 192.906C285.073 194.594 284.312 197.021 284.312 200.188H278.531ZM278.281 210.094C278.281 209.156 278.562 208.375 279.125 207.75C279.708 207.104 280.562 206.781 281.688 206.781C282.812 206.781 283.667 207.104 284.25 207.75C284.833 208.375 285.125 209.156 285.125 210.094C285.125 211.031 284.833 211.812 284.25 212.438C283.667 213.042 282.812 213.344 281.688 213.344C280.562 213.344 279.708 213.042 279.125 212.438C278.562 211.812 278.281 211.031 278.281 210.094Z" fill="#F4F3F3"/>
<path d="M49.3125 55.0312L38.808 58.2956L50.4289 95.6903L59.9803 57.7143L49.3125 55.0312ZM55.8125 29.1875V18.1875H47.2365L45.1447 26.5044L55.8125 29.1875ZM61.5938 29.1875L72.1553 32.2623L76.2528 18.1875H61.5938V29.1875ZM51.75 63V74H60.0043L62.3115 66.0748L51.75 63ZM47.0625 63L36.5881 66.3595L39.0386 74H47.0625V63ZM38.8438 37.375L49.3182 34.0155L38.7023 0.916549L28.3436 34.0969L38.8438 37.375ZM30.8438 63V74H38.9332L41.3439 66.2781L30.8438 63ZM26.1562 63L15.5921 66.0658L17.8946 74H26.1562V63ZM16.3438 29.1875V18.1875H1.69768L5.7796 32.2533L16.3438 29.1875ZM22.0938 29.1875L32.7321 26.39L30.5751 18.1875H22.0938V29.1875ZM28.75 54.5L18.1117 57.2975L27.863 94.3799L39.2534 57.7677L28.75 54.5ZM36.625 29.1875V18.1875H28.5272L26.1216 25.9198L36.625 29.1875ZM41.2812 29.1875L51.7857 25.9231L49.3818 18.1875H41.2812V29.1875ZM59.9803 57.7143L66.4803 31.8706L45.1447 26.5044L38.6447 52.3482L59.9803 57.7143ZM55.8125 40.1875H61.5938V18.1875H55.8125V40.1875ZM51.0322 26.1127L41.1885 59.9252L62.3115 66.0748L72.1553 32.2623L51.0322 26.1127ZM51.75 52H47.0625V74H51.75V52ZM57.5369 59.6405L49.3182 34.0155L28.3693 40.7345L36.5881 66.3595L57.5369 59.6405ZM28.3436 34.0969L20.3436 59.7219L41.3439 66.2781L49.3439 40.6531L28.3436 34.0969ZM30.8438 52H26.1562V74H30.8438V52ZM36.7204 59.9342L26.9079 26.1217L5.7796 32.2533L15.5921 66.0658L36.7204 59.9342ZM16.3438 40.1875H22.0938V18.1875H16.3438V40.1875ZM11.4554 31.985L18.1117 57.2975L39.3883 51.7025L32.7321 26.39L11.4554 31.985ZM39.2534 57.7677L47.1284 32.4552L26.1216 25.9198L18.2466 51.2323L39.2534 57.7677ZM36.625 40.1875H41.2812V18.1875H36.625V40.1875ZM30.7768 32.4519L38.808 58.2956L59.817 51.7669L51.7857 25.9231L30.7768 32.4519ZM73.2812 33.2812H62.2812V64.2025L81.8099 40.2284L73.2812 33.2812ZM94.0938 40.6562H105.094V40.6136L105.093 40.571L94.0938 40.6562ZM94.0938 63V74H105.094V63H94.0938ZM88.3125 63H77.3125V74H88.3125V63ZM88.3125 40.625H99.3125V40.578L99.3121 40.531L88.3125 40.625ZM86.625 35.2188L78.5643 42.7037L78.5998 42.742L78.6358 42.78L86.625 35.2188ZM73.2812 38.9062L63.3924 34.0886L62.2812 36.3693V38.9062H73.2812ZM73.2812 63V74H84.2812V63H73.2812ZM67.5 63H56.5V74H67.5V63ZM67.5 15V4H56.5V15H67.5ZM73.2812 15H84.2812V4H73.2812V15ZM81.8099 40.2284C82.1591 39.7996 82.3615 39.7072 82.3974 39.6903C82.4369 39.6716 82.6666 39.5625 83.2812 39.5625V17.5625C75.9138 17.5625 69.4319 20.5896 64.7526 26.3341L81.8099 40.2284ZM83.2812 39.5625C84.0595 39.5625 84.2664 39.6751 84.1142 39.618C84.0306 39.5866 83.8744 39.5169 83.6818 39.3871C83.4867 39.2557 83.3017 39.0948 83.1433 38.9176C82.8114 38.5464 82.7847 38.3216 82.856 38.5568C82.9382 38.828 83.0845 39.5036 83.0941 40.7415L105.093 40.571C105.051 35.1417 103.828 29.0463 99.5442 24.2543C95.0389 19.2152 88.923 17.5625 83.2812 17.5625V39.5625ZM83.0938 40.6562V63H105.094V40.6562H83.0938ZM94.0938 52H88.3125V74H94.0938V52ZM99.3125 63V40.625H77.3125V63H99.3125ZM99.3121 40.531C99.2795 36.7135 98.4127 31.671 94.6142 27.6575L78.6358 42.78C77.8499 41.9496 77.5059 41.1435 77.3746 40.7229C77.2563 40.3436 77.3092 40.2835 77.3129 40.719L99.3121 40.531ZM94.6857 27.7338C90.7283 23.472 85.5011 22.4688 81.5312 22.4688V44.4688C81.8036 44.4688 81.5432 44.5081 80.965 44.3094C80.3226 44.0887 79.4053 43.6094 78.5643 42.7037L94.6857 27.7338ZM81.5312 22.4688C77.579 22.4688 73.6756 23.5642 70.2502 25.9821L82.9373 43.9554C82.6937 44.1273 82.3985 44.2745 82.0881 44.3688C81.7856 44.4607 81.5802 44.4688 81.5312 44.4688V22.4688ZM70.2502 25.9821C67.2542 28.097 64.96 30.8708 63.3924 34.0886L83.1701 43.7239C83.1916 43.6799 83.1805 43.7133 83.1206 43.7845C83.0592 43.8576 82.9905 43.9178 82.9373 43.9554L70.2502 25.9821ZM62.2812 38.9062V63H84.2812V38.9062H62.2812ZM73.2812 52H67.5V74H73.2812V52ZM78.5 63V15H56.5V63H78.5ZM67.5 26H73.2812V4H67.5V26ZM62.2812 15V33.2812H84.2812V15H62.2812ZM113.812 54.5312L103.376 58.0059L114.174 90.4396L124.317 57.7953L113.812 54.5312ZM121.688 29.1875V18.1875H113.587L111.183 25.9234L121.688 29.1875ZM127.875 29.1875L138.263 32.8054L143.354 18.1875H127.875V29.1875ZM114.281 68.2188L124.584 72.0727L124.628 71.9552L124.669 71.8367L114.281 68.2188ZM104.25 76.6562L103.311 87.6161L103.779 87.6562H104.25V76.6562ZM103.156 76.5625L101.12 87.3723L101.664 87.475L102.217 87.5223L103.156 76.5625ZM101 76.1562H90V85.2773L98.9634 86.9661L101 76.1562ZM101 71.4688L101.877 60.5038L90 59.5536V71.4688H101ZM102.562 71.5938L101.685 82.5587L102.123 82.5938H102.562V71.5938ZM107.125 70.4062L100.715 61.4666L100.675 61.4956L100.635 61.5249L107.125 70.4062ZM109.844 66.0625L99.5364 62.2207L99.4749 62.3859L99.4186 62.553L109.844 66.0625ZM111.125 62.625L121.432 66.4668L122.841 62.6869L121.472 58.8922L111.125 62.625ZM99.0625 29.1875V18.1875H83.4004L88.7152 32.9203L99.0625 29.1875ZM105.375 29.1875L115.812 25.7129L113.306 18.1875H105.375V29.1875ZM124.317 57.7953L132.192 32.4516L111.183 25.9234L103.308 51.2672L124.317 57.7953ZM121.688 40.1875H127.875V18.1875H121.688V40.1875ZM117.487 25.5696L103.893 64.6008L124.669 71.8367L138.263 32.8054L117.487 25.5696ZM103.978 64.3648C103.677 65.1699 103.408 65.667 103.23 65.9434C103.056 66.2125 102.998 66.2268 103.115 66.1288C103.247 66.0173 103.478 65.8681 103.777 65.7621C104.069 65.6586 104.255 65.6562 104.25 65.6562V87.6562C108.995 87.6562 113.519 86.1253 117.276 82.965C120.839 79.968 123.106 76.0246 124.584 72.0727L103.978 64.3648ZM105.189 65.6964L104.096 65.6027L102.217 87.5223L103.311 87.6161L105.189 65.6964ZM105.193 65.7527L103.037 65.3464L98.9634 86.9661L101.12 87.3723L105.193 65.7527ZM112 76.1562V71.4688H90V76.1562H112ZM100.123 82.4337L101.685 82.5587L103.44 60.6288L101.877 60.5038L100.123 82.4337ZM102.562 82.5938C105.827 82.5938 109.96 81.9584 113.615 79.2876L100.635 61.5249C101.385 60.9769 102.047 60.7436 102.401 60.6515C102.735 60.5646 102.826 60.5938 102.562 60.5938V82.5938ZM113.535 79.3459C117.367 76.5984 119.251 72.5959 120.269 69.572L99.4186 62.553C99.262 63.0181 99.1925 63.076 99.3086 62.8905C99.4272 62.701 99.8456 62.0902 100.715 61.4666L113.535 79.3459ZM120.151 69.9043L121.432 66.4668L100.818 58.7832L99.5364 62.2207L120.151 69.9043ZM121.472 58.8922L109.41 25.4547L88.7152 32.9203L100.778 66.3578L121.472 58.8922ZM99.0625 40.1875H105.375V18.1875H99.0625V40.1875ZM94.9382 32.6621L103.376 58.0059L124.249 51.0566L115.812 25.7129L94.9382 32.6621ZM166.844 50.4062L160.244 59.2063L160.331 59.2721L160.421 59.3361L166.844 50.4062ZM160.688 48.1562L158.383 58.9121L158.39 58.9138L158.398 58.9154L160.688 48.1562ZM153.719 45.9062L148.704 55.6967L148.728 55.709L148.752 55.7212L153.719 45.9062ZM149.906 42.7812L140.778 48.9192L140.814 48.973L140.851 49.0263L149.906 42.7812ZM152.188 31.4375L145.242 22.9072L145.224 22.9223L145.205 22.9375L152.188 31.4375ZM170.5 31.5312L163.458 39.9817L163.476 39.9968L163.494 40.0118L170.5 31.5312ZM174.094 39.125V50.125H185.094V39.125H174.094ZM168.281 39.125H157.281V50.125H168.281V39.125ZM166.25 35.0312L159.081 43.3739L159.112 43.4013L159.145 43.4285L166.25 35.0312ZM162.094 43.4688L159.683 54.2013L159.691 54.2031L159.699 54.205L162.094 43.4688ZM173.094 49.0312L163.964 55.1674L164.022 55.2539L164.082 55.3393L173.094 49.0312ZM170.781 60.9062L177.381 69.7062L177.405 69.6881L177.43 69.6699L170.781 60.9062ZM149.281 58.1875L140.163 64.3398L140.205 64.4032L140.249 64.466L149.281 58.1875ZM147.531 52.5938V41.5938H136.531V52.5938H147.531ZM153.312 52.5938L164.297 52.0032L163.737 41.5938H153.312V52.5938ZM155.625 57.2188L148.769 65.8205L148.837 65.875L148.906 65.9284L155.625 57.2188ZM166.625 57.5938L172.727 66.7463L172.743 66.7353L172.76 66.7243L166.625 57.5938ZM179.625 54.0312C179.625 49.2121 177.55 44.5573 173.267 41.4764L160.421 59.3361C159.677 58.8012 158.875 57.9603 158.307 56.8043C157.752 55.6741 157.625 54.6623 157.625 54.0312H179.625ZM173.444 41.6062C170.243 39.2058 166.165 38.0755 162.977 37.3971L158.398 58.9154C159.535 59.1572 160.254 59.373 160.654 59.5191C160.844 59.5888 160.897 59.6189 160.845 59.593C160.8 59.5702 160.573 59.4529 160.244 59.2063L173.444 41.6062ZM162.992 37.4004C160.56 36.8793 159.247 36.3757 158.685 36.0913L148.752 55.7212C151.648 57.1868 154.981 58.1832 158.383 58.9121L162.992 37.4004ZM158.733 36.1158C158.463 35.9771 158.397 35.9115 158.458 35.9614C158.525 36.0167 158.729 36.1982 158.962 36.5362L140.851 49.0263C142.986 52.1226 145.858 54.2392 148.704 55.6967L158.733 36.1158ZM159.035 36.6433C159.294 37.0293 159.473 37.4342 159.578 37.8053C159.679 38.165 159.688 38.4059 159.688 38.4688H137.688C137.688 41.9961 138.575 45.6436 140.778 48.9192L159.035 36.6433ZM159.688 38.4688C159.688 38.553 159.678 38.71 159.631 38.917C159.583 39.1265 159.508 39.3383 159.41 39.5346C159.204 39.9478 159.018 40.0619 159.17 39.9375L145.205 22.9375C140.588 26.73 137.688 32.0838 137.688 38.4688H159.688ZM159.133 39.9678C159.151 39.953 159.544 39.5625 161.188 39.5625V17.5625C155.54 17.5625 149.933 19.0887 145.242 22.9072L159.133 39.9678ZM161.188 39.5625C162.165 39.5625 162.749 39.6892 163.05 39.785C163.322 39.872 163.42 39.9497 163.458 39.9817L177.542 23.0808C172.751 19.088 166.957 17.5625 161.188 17.5625V39.5625ZM163.494 40.0118C163.551 40.0587 163.53 40.0499 163.469 39.9738C163.406 39.8949 163.326 39.7747 163.253 39.6195C163.179 39.4641 163.135 39.3208 163.111 39.2113C163.089 39.1052 163.094 39.069 163.094 39.125H185.094C185.094 32.7307 182.408 27.1004 177.506 23.0507L163.494 40.0118ZM174.094 28.125H168.281V50.125H174.094V28.125ZM179.281 39.125C179.281 33.8926 176.846 29.5873 173.355 26.634L159.145 43.4285C158.862 43.1897 158.349 42.6685 157.92 41.8033C157.474 40.9055 157.281 39.9608 157.281 39.125H179.281ZM173.419 26.6886C169.775 23.5568 165.411 22.3125 161.188 22.3125V44.3125C161.178 44.3125 160.896 44.3102 160.448 44.1583C159.978 43.9987 159.496 43.7309 159.081 43.3739L173.419 26.6886ZM161.188 22.3125C157.609 22.3125 153.283 23.0819 149.528 25.98L162.972 43.395C161.592 44.4597 160.557 44.3125 161.188 44.3125V22.3125ZM149.528 25.98C145.688 28.9448 143.469 33.3371 143.469 38.2812H165.469C165.469 39.0538 165.303 40.0834 164.77 41.1585C164.239 42.2286 163.537 42.9589 162.972 43.395L149.528 25.98ZM143.469 38.2812C143.469 43.136 145.693 47.8142 150.185 50.6961L162.065 32.1789C162.946 32.7445 163.923 33.672 164.623 35.0059C165.308 36.3108 165.469 37.5097 165.469 38.2812H143.469ZM150.185 50.6961C153.056 52.5374 156.725 53.5369 159.683 54.2013L164.505 32.7362C163.311 32.4681 162.498 32.2362 161.989 32.0631C161.742 31.9788 161.627 31.929 161.615 31.9235C161.592 31.9133 161.769 31.9893 162.065 32.1789L150.185 50.6961ZM159.699 54.205C162.096 54.7396 163.5 55.2671 164.206 55.6199L174.044 35.9426C171.167 34.5038 167.883 33.4896 164.488 32.7325L159.699 54.205ZM164.206 55.6199C164.492 55.7632 164.559 55.8312 164.492 55.7762C164.417 55.7147 164.203 55.5221 163.964 55.1674L182.223 42.8951C180.031 39.634 177.027 37.4337 174.044 35.9426L164.206 55.6199ZM164.082 55.3393C163.789 54.9202 163.603 54.4963 163.501 54.1391C163.404 53.7973 163.406 53.6025 163.406 53.625H185.406C185.406 49.9896 184.503 46.1484 182.105 42.7232L164.082 55.3393ZM163.406 53.625C163.406 53.6306 163.416 53.2846 163.653 52.8085C163.889 52.3339 164.154 52.1268 164.133 52.1426L177.43 69.6699C182.574 65.767 185.406 60.1037 185.406 53.625H163.406ZM164.181 52.1062C164.138 52.1389 163.511 52.625 161.375 52.625V74.625C166.947 74.625 172.591 73.2986 177.381 69.7062L164.181 52.1062ZM161.375 52.625C159.969 52.625 159.188 52.3799 158.784 52.1941L149.591 72.1809C153.353 73.9117 157.364 74.625 161.375 74.625V52.625ZM158.784 52.1941C158.514 52.0696 158.388 51.9748 158.349 51.9431C158.328 51.9258 158.32 51.9167 158.319 51.9156C158.318 51.9146 158.317 51.9136 158.313 51.909L140.249 64.466C142.669 67.9476 145.911 70.4884 149.591 72.1809L158.784 52.1941ZM158.4 52.0352C158.373 51.9949 158.419 52.0557 158.467 52.2078C158.516 52.3638 158.531 52.5066 158.531 52.5938H136.531C136.531 56.8838 137.825 60.8758 140.163 64.3398L158.4 52.0352ZM147.531 63.5938H153.312V41.5938H147.531V63.5938ZM142.328 53.1843C142.591 58.0619 144.724 62.5964 148.769 65.8205L162.481 48.617C162.928 48.9728 163.431 49.5312 163.807 50.2838C164.177 51.0219 164.278 51.6551 164.297 52.0032L142.328 53.1843ZM148.906 65.9284C152.784 68.9201 157.278 69.9062 161.375 69.9062V47.9062C161.044 47.9062 161.037 47.866 161.254 47.9295C161.495 48.0004 161.903 48.1689 162.344 48.5091L148.906 65.9284ZM161.375 69.9062C164.922 69.9062 169.033 69.2087 172.727 66.7463L160.523 48.4412C161.055 48.0867 161.485 47.9503 161.66 47.9066C161.819 47.8668 161.753 47.9062 161.375 47.9062V69.9062ZM172.76 66.7243C176.825 63.9928 179.625 59.5317 179.625 54.0312H157.625C157.625 53.0519 157.865 51.837 158.533 50.6464C159.182 49.4908 159.983 48.8042 160.49 48.4632L172.76 66.7243ZM187.719 33.2812H176.719V64.2025L196.247 40.2284L187.719 33.2812ZM208.531 40.6562H219.531V40.6136L219.531 40.571L208.531 40.6562ZM208.531 63V74H219.531V63H208.531ZM202.75 63H191.75V74H202.75V63ZM202.75 40.625H213.75V40.578L213.75 40.531L202.75 40.625ZM201.062 35.2188L193.002 42.7037L193.037 42.742L193.073 42.78L201.062 35.2188ZM187.719 38.9062L177.83 34.0886L176.719 36.3693V38.9062H187.719ZM187.719 63V74H198.719V63H187.719ZM181.938 63H170.938V74H181.938V63ZM181.938 15V4H170.938V15H181.938ZM187.719 15H198.719V4H187.719V15ZM196.247 40.2284C196.597 39.7996 196.799 39.7072 196.835 39.6903C196.874 39.6716 197.104 39.5625 197.719 39.5625V17.5625C190.351 17.5625 183.869 20.5896 179.19 26.3341L196.247 40.2284ZM197.719 39.5625C198.497 39.5625 198.704 39.6751 198.552 39.618C198.468 39.5866 198.312 39.5169 198.119 39.3871C197.924 39.2557 197.739 39.0948 197.581 38.9176C197.249 38.5464 197.222 38.3216 197.294 38.5568C197.376 38.828 197.522 39.5036 197.532 40.7415L219.531 40.571C219.489 35.1417 218.266 29.0463 213.982 24.2543C209.476 19.2152 203.361 17.5625 197.719 17.5625V39.5625ZM197.531 40.6562V63H219.531V40.6562H197.531ZM208.531 52H202.75V74H208.531V52ZM213.75 63V40.625H191.75V63H213.75ZM213.75 40.531C213.717 36.7135 212.85 31.671 209.052 27.6575L193.073 42.78C192.287 41.9496 191.943 41.1435 191.812 40.7229C191.694 40.3436 191.747 40.2835 191.75 40.719L213.75 40.531ZM209.123 27.7338C205.166 23.472 199.939 22.4688 195.969 22.4688V44.4688C196.241 44.4688 195.981 44.5081 195.402 44.3094C194.76 44.0887 193.843 43.6094 193.002 42.7037L209.123 27.7338ZM195.969 22.4688C192.017 22.4688 188.113 23.5642 184.688 25.9821L197.375 43.9554C197.131 44.1273 196.836 44.2745 196.526 44.3688C196.223 44.4607 196.018 44.4688 195.969 44.4688V22.4688ZM184.688 25.9821C181.692 28.097 179.398 30.8708 177.83 34.0886L197.608 43.7239C197.629 43.6799 197.618 43.7133 197.558 43.7845C197.497 43.8576 197.428 43.9178 197.375 43.9554L184.688 25.9821ZM176.719 38.9062V63H198.719V38.9062H176.719ZM187.719 52H181.938V74H187.719V52ZM192.938 63V15H170.938V63H192.938ZM181.938 26H187.719V4H181.938V26ZM176.719 15V33.2812H198.719V15H176.719ZM217.594 36.8438L207.74 31.9555L207.724 31.9867L207.709 32.018L217.594 36.8438ZM223.031 30.7188L217.262 21.3534L217.243 21.365L217.224 21.3766L223.031 30.7188ZM242.156 33.3438L233.935 40.6518L233.948 40.6667L233.961 40.6816L242.156 33.3438ZM244.531 55.3438L234.63 50.5505L234.622 50.5671L234.614 50.5837L244.531 55.3438ZM239.125 61.4375L233.332 52.0863L233.314 52.0979L233.295 52.1095L239.125 61.4375ZM219.906 58.8438L211.685 66.1518L211.698 66.1667L211.711 66.1816L219.906 58.8438ZM224.062 55.5L215.311 62.1641L215.33 62.1894L215.35 62.2145L224.062 55.5ZM238.062 55.4688L246.843 62.0943L246.858 62.0752L246.872 62.056L238.062 55.4688ZM238 36.7812L229.229 43.4191L229.262 43.4633L229.296 43.5072L238 36.7812ZM226.656 45.7812C226.656 43.9305 227.008 42.6339 227.479 41.6695L207.709 32.018C205.596 36.3453 204.656 41.007 204.656 45.7812H226.656ZM227.448 41.732C227.932 40.7571 228.409 40.3277 228.839 40.0609L217.224 21.3766C213.028 23.9848 209.881 27.6387 207.74 31.9555L227.448 41.732ZM228.801 40.0841C229.249 39.8079 229.874 39.5625 231 39.5625V17.5625C226.167 17.5625 221.48 18.7546 217.262 21.3534L228.801 40.0841ZM231 39.5625C232.744 39.5625 233.369 40.0152 233.935 40.6518L250.378 26.0357C245.277 20.2973 238.465 17.5625 231 17.5625V39.5625ZM233.961 40.6816C234.608 41.4039 235.438 42.8102 235.438 46.0625H257.438C257.438 38.7315 255.413 31.6586 250.351 26.0059L233.961 40.6816ZM235.438 46.0625V46.4688H257.438V46.0625H235.438ZM235.438 46.4688C235.438 48.315 235.09 49.6019 234.63 50.5505L254.432 60.137C256.514 55.8356 257.438 51.2058 257.438 46.4688H235.438ZM234.614 50.5837C234.232 51.3812 233.823 51.7826 233.332 52.0863L244.918 70.7887C249.136 68.1757 252.331 64.5147 254.448 60.1038L234.614 50.5837ZM233.295 52.1095C232.891 52.362 232.267 52.625 231.062 52.625V74.625C235.941 74.625 240.692 73.4297 244.955 70.7655L233.295 52.1095ZM231.062 52.625C229.356 52.625 228.707 52.1823 228.101 51.5059L211.711 66.1816C216.814 71.8802 223.602 74.625 231.062 74.625V52.625ZM228.128 51.5357C227.473 50.7993 226.656 49.3927 226.656 46.1875H204.656C204.656 53.4823 206.673 60.5132 211.685 66.1518L228.128 51.5357ZM226.656 46.1875V45.7812H204.656V46.1875H226.656ZM210.469 46.4688C210.469 51.8707 211.724 57.453 215.311 62.1641L232.814 48.8359C232.943 49.0054 232.469 48.5668 232.469 46.4688H210.469ZM215.35 62.2145C219.224 67.2423 224.804 69.9062 231.062 69.9062V47.9062C231.049 47.9062 231.14 47.9052 231.31 47.9419C231.484 47.9796 231.702 48.0488 231.938 48.1636C232.454 48.4145 232.723 48.7181 232.775 48.7855L215.35 62.2145ZM231.062 69.9062C237.357 69.9062 242.979 67.2151 246.843 62.0943L229.282 48.8432C229.345 48.759 229.631 48.4366 230.167 48.1732C230.695 47.9139 231.07 47.9062 231.062 47.9062V69.9062ZM246.872 62.056C250.524 57.1723 251.656 51.3018 251.656 45.7812H229.656C229.656 48.5524 229.06 49.1402 229.253 48.8815L246.872 62.056ZM251.656 45.7812C251.656 40.3286 250.336 34.7559 246.704 30.0553L229.296 43.5072C229.297 43.5083 229.309 43.524 229.331 43.5676C229.354 43.6128 229.395 43.7058 229.442 43.8637C229.537 44.1858 229.656 44.7917 229.656 45.7812H251.656ZM246.771 30.1434C242.928 25.0647 237.339 22.3125 231 22.3125V44.3125C231 44.3125 230.896 44.3123 230.712 44.2718C230.524 44.2305 230.296 44.156 230.053 44.0359C229.526 43.7745 229.264 43.4661 229.229 43.4191L246.771 30.1434ZM231 22.3125C224.716 22.3125 219.202 25.0452 215.381 30.0042L232.807 43.4333C232.778 43.471 232.522 43.7713 231.999 44.0294C231.474 44.2883 231.069 44.3125 231 44.3125V22.3125ZM215.381 30.0042C211.59 34.9233 210.469 40.9182 210.469 46.4688H232.469C232.469 43.561 233.098 43.0559 232.807 43.4333L215.381 30.0042ZM274.562 59.6562L285.555 59.2453L284.499 30.9921L266.183 52.5302L274.562 59.6562ZM256.406 60.5L248.194 67.8181L248.232 67.861L248.271 67.9034L256.406 60.5ZM253.562 51.1875H242.562V51.2154L242.563 51.2433L253.562 51.1875ZM253.562 29.1875V18.1875H242.562V29.1875H253.562ZM259.344 29.1875H270.344V18.1875H259.344V29.1875ZM274.406 53.7812L284.463 58.237L285.406 56.1089V53.7812H274.406ZM274.406 29.1875V18.1875H263.406V29.1875H274.406ZM280.188 29.1875H291.188V18.1875H280.188V29.1875ZM280.188 63V74H291.188V63H280.188ZM274.688 63L263.695 63.4109L264.091 74H274.688V63ZM266.183 52.5302C266.194 52.5175 266.229 52.4811 266.281 52.4438C266.332 52.4072 266.351 52.4042 266.308 52.4218C266.213 52.4596 265.737 52.625 264.656 52.625V74.625C271.35 74.625 278.089 72.4895 282.942 66.7823L266.183 52.5302ZM264.656 52.625C263.895 52.625 263.672 52.5132 263.787 52.557C263.85 52.5807 263.973 52.6361 264.128 52.7399C264.284 52.8448 264.426 52.9689 264.542 53.0966L248.271 67.9034C252.799 72.8802 258.876 74.625 264.656 74.625V52.625ZM264.619 53.1819C264.887 53.4827 264.89 53.6437 264.809 53.3811C264.718 53.0811 264.569 52.3826 264.562 51.1317L242.563 51.2433C242.591 56.8269 243.873 62.9696 248.194 67.8181L264.619 53.1819ZM264.562 51.1875V29.1875H242.562V51.1875H264.562ZM253.562 40.1875H259.344V18.1875H253.562V40.1875ZM248.344 29.1875V51.0312H270.344V29.1875H248.344ZM248.344 51.0312C248.344 54.8005 249.064 59.6685 252.371 63.736C256.032 68.2391 261.143 69.7188 265.594 69.7188V47.7188C265.659 47.7188 266.219 47.7271 267.032 48.0605C267.913 48.4215 268.775 49.0377 269.441 49.8577C270.665 51.3628 270.344 52.387 270.344 51.0312H248.344ZM265.594 69.7188C269.116 69.7188 272.941 69.0671 276.486 67.0808C280.177 65.0126 282.842 61.8972 284.463 58.237L264.349 49.3255C264.405 49.1985 264.546 48.934 264.819 48.627C265.098 48.3138 265.421 48.0628 265.733 47.888C266.34 47.5475 266.488 47.7188 265.594 47.7188V69.7188ZM285.406 53.7812V29.1875H263.406V53.7812H285.406ZM274.406 40.1875H280.188V18.1875H274.406V40.1875ZM269.188 29.1875V63H291.188V29.1875H269.188ZM280.188 52H274.688V74H280.188V52ZM285.68 62.5891L285.555 59.2453L263.57 60.0672L263.695 63.4109L285.68 62.5891ZM295.281 63V74H306.281V63H295.281ZM289.5 63H278.5V74H289.5V63ZM289.5 15V4H278.5V15H289.5ZM295.281 15H306.281V4H295.281V15ZM295.281 52H289.5V74H295.281V52ZM300.5 63V15H278.5V63H300.5ZM289.5 26H295.281V4H289.5V26ZM284.281 15V63H306.281V15H284.281ZM306.844 33.3125L315.511 40.0857L315.522 40.0718L315.533 40.0579L306.844 33.3125ZM325.906 32.625L317.541 39.7678L336.906 62.448V32.625H325.906ZM325.906 15V4H314.906V15H325.906ZM331.688 15H342.688V4H331.688V15ZM331.688 63V74H342.688V63H331.688ZM326.375 63L315.408 63.8509L316.195 74H326.375V63ZM326.094 59.375L337.061 58.5241L334.936 31.144L317.572 52.4196L326.094 59.375ZM306.844 58.8125L298.112 65.5029L298.126 65.5207L298.14 65.5384L306.844 58.8125ZM325.906 53.7812L335.695 58.7995L336.906 56.4366V53.7812H325.906ZM325.906 38.25H336.906V35.4585L335.575 33.0048L325.906 38.25ZM314.156 45.8125C314.156 42.3398 314.964 40.7855 315.511 40.0857L298.176 26.5393C293.807 32.1312 292.156 38.9102 292.156 45.8125H314.156ZM315.533 40.0579C315.705 39.8356 315.829 39.7209 315.889 39.6708C315.945 39.6235 315.966 39.6159 315.957 39.6204C315.948 39.6251 315.961 39.6159 316.021 39.6025C316.086 39.5883 316.237 39.5625 316.5 39.5625V17.5625C309.093 17.5625 302.679 20.7398 298.155 26.5671L315.533 40.0579ZM316.5 39.5625C316.863 39.5625 317.106 39.5935 317.252 39.6213C317.394 39.6484 317.454 39.6745 317.459 39.6765C317.461 39.6776 317.45 39.6721 317.442 39.6658C317.435 39.6607 317.469 39.6842 317.541 39.7678L334.272 25.4822C329.621 20.0352 323.273 17.5625 316.5 17.5625V39.5625ZM336.906 32.625V15H314.906V32.625H336.906ZM325.906 26H331.688V4H325.906V26ZM320.688 15V63H342.688V15H320.688ZM331.688 52H326.375V74H331.688V52ZM337.342 62.1491L337.061 58.5241L315.127 60.2259L315.408 63.8509L337.342 62.1491ZM317.572 52.4196C317.504 52.5026 317.474 52.522 317.487 52.5118C317.502 52.5006 317.517 52.4931 317.514 52.4945C317.508 52.4972 317.439 52.5274 317.278 52.5585C317.113 52.5904 316.84 52.625 316.438 52.625V74.625C323.39 74.625 329.93 72.0712 334.616 66.3304L317.572 52.4196ZM316.438 52.625C316.213 52.625 316.093 52.6024 316.054 52.5936C316.019 52.5856 316.02 52.5827 316.034 52.5896C316.047 52.5961 316.02 52.5859 315.951 52.5271C315.878 52.4655 315.739 52.3333 315.548 52.0866L298.14 65.5384C302.616 71.3316 308.977 74.625 316.438 74.625V52.625ZM315.575 52.1221C314.954 51.3115 314.156 49.6778 314.156 46.25H292.156C292.156 53.1556 293.817 59.8969 298.112 65.5029L315.575 52.1221ZM314.156 46.25V45.8125H292.156V46.25H314.156ZM297.938 46.4688C297.938 51.6701 298.994 57.2552 302.431 61.9589L320.194 48.9786C320.464 49.349 319.938 48.9341 319.938 46.4688H297.938ZM302.431 61.9589C306.182 67.0918 311.739 69.7188 317.875 69.7188V47.7188C317.929 47.7188 318.394 47.7376 319.022 48.0488C319.666 48.3676 320.048 48.7788 320.194 48.9786L302.431 61.9589ZM317.875 69.7188C321.398 69.7188 325.051 68.9104 328.394 66.8551C331.731 64.8033 334.097 61.9165 335.695 58.7995L316.118 48.763C316.028 48.9377 316.211 48.5197 316.872 48.1136C317.172 47.9289 317.458 47.8195 317.677 47.7627C317.886 47.7085 317.969 47.7188 317.875 47.7188V69.7188ZM336.906 53.7812V38.25H314.906V53.7812H336.906ZM335.575 33.0048C333.934 29.9801 331.561 27.202 328.277 25.2316C324.986 23.2571 321.405 22.4688 317.938 22.4688V44.4688C318.017 44.4688 317.932 44.4773 317.729 44.4254C317.517 44.3712 317.244 44.2681 316.958 44.0965C316.33 43.7199 316.149 43.3324 316.237 43.4952L335.575 33.0048ZM317.938 22.4688C311.781 22.4688 306.171 25.0931 302.402 30.3003L320.223 43.1997C320.071 43.4105 319.683 43.827 319.038 44.1463C318.743 44.2924 318.474 44.3778 318.262 44.4238C318.055 44.4686 317.937 44.4688 317.938 44.4688V22.4688ZM302.402 30.3003C298.871 35.178 297.938 41.1231 297.938 46.4688H319.938C319.938 44.9657 320.079 43.9935 320.217 43.4316C320.352 42.8794 320.437 42.9046 320.223 43.1997L302.402 30.3003ZM30.4375 129.531L20.0007 133.006L30.7986 165.44L40.9421 132.795L30.4375 129.531ZM38.3125 104.188V93.1875H30.2117L27.8079 100.923L38.3125 104.188ZM44.5 104.188L54.888 107.805L59.9791 93.1875H44.5V104.188ZM30.9062 143.219L41.209 147.073L41.253 146.955L41.2943 146.837L30.9062 143.219ZM20.875 151.656L19.9356 162.616L20.4044 162.656H20.875V151.656ZM19.7812 151.562L17.7446 162.372L18.2894 162.475L18.8418 162.522L19.7812 151.562ZM17.625 151.156H6.625V160.277L15.5884 161.966L17.625 151.156ZM17.625 146.469L18.5022 135.504L6.625 134.554L6.625 146.469H17.625ZM19.1875 146.594L18.3103 157.559L18.7482 157.594H19.1875V146.594ZM23.75 145.406L17.3404 136.467L17.3 136.496L17.2598 136.525L23.75 145.406ZM26.4688 141.062L16.1614 137.221L16.0999 137.386L16.0436 137.553L26.4688 141.062ZM27.75 137.625L38.0573 141.467L39.4662 137.687L38.0973 133.892L27.75 137.625ZM15.6875 104.188V93.1875H0.0253968L5.34021 107.92L15.6875 104.188ZM22 104.188L32.4368 100.713L29.9314 93.1875H22V104.188ZM40.9421 132.795L48.8171 107.452L27.8079 100.923L19.9329 126.267L40.9421 132.795ZM38.3125 115.188H44.5V93.1875H38.3125V115.188ZM34.112 100.57L20.5182 139.601L41.2943 146.837L54.888 107.805L34.112 100.57ZM20.6035 139.365C20.3023 140.17 20.0331 140.667 19.8546 140.943C19.6809 141.212 19.6231 141.227 19.7397 141.129C19.8722 141.017 20.103 140.868 20.402 140.762C20.6936 140.659 20.8801 140.656 20.875 140.656V162.656C25.6196 162.656 30.1436 161.125 33.901 157.965C37.4641 154.968 39.7307 151.025 41.209 147.073L20.6035 139.365ZM21.8144 140.696L20.7207 140.603L18.8418 162.522L19.9356 162.616L21.8144 140.696ZM21.8179 140.753L19.6616 140.346L15.5884 161.966L17.7446 162.372L21.8179 140.753ZM28.625 151.156V146.469H6.625V151.156H28.625ZM16.7478 157.434L18.3103 157.559L20.0647 135.629L18.5022 135.504L16.7478 157.434ZM19.1875 157.594C22.4523 157.594 26.5854 156.958 30.2402 154.288L17.2598 136.525C18.0098 135.977 18.6724 135.744 19.0262 135.652C19.3602 135.565 19.4505 135.594 19.1875 135.594V157.594ZM30.1596 154.346C33.9916 151.598 35.8759 147.596 36.8939 144.572L16.0436 137.553C15.887 138.018 15.8175 138.076 15.9336 137.891C16.0522 137.701 16.4706 137.09 17.3404 136.467L30.1596 154.346ZM36.7761 144.904L38.0573 141.467L17.4427 133.783L16.1614 137.221L36.7761 144.904ZM38.0973 133.892L26.0348 100.455L5.34021 107.92L17.4027 141.358L38.0973 133.892ZM15.6875 115.188H22V93.1875H15.6875V115.188ZM11.5632 107.662L20.0007 133.006L40.8743 126.057L32.4368 100.713L11.5632 107.662ZM49.5938 111.844L39.7396 106.955L39.7241 106.987L39.7088 107.018L49.5938 111.844ZM55.0312 105.719L49.2615 96.3534L49.2427 96.365L49.224 96.3766L55.0312 105.719ZM74.1562 108.344L65.9347 115.652L65.948 115.667L65.9614 115.682L74.1562 108.344ZM76.5312 130.344L66.6305 125.551L66.6225 125.567L66.6145 125.584L76.5312 130.344ZM71.125 136.438L65.3323 127.086L65.3136 127.098L65.295 127.11L71.125 136.438ZM51.9062 133.844L43.6847 141.152L43.698 141.167L43.7114 141.182L51.9062 133.844ZM56.0625 130.5L47.3109 137.164L47.3302 137.189L47.3496 137.215L56.0625 130.5ZM70.0625 130.469L78.8433 137.094L78.8577 137.075L78.872 137.056L70.0625 130.469ZM70 111.781L61.2285 118.419L61.262 118.463L61.2959 118.507L70 111.781ZM58.6562 120.781C58.6562 118.93 59.0079 117.634 59.4787 116.669L39.7088 107.018C37.5963 111.345 36.6562 116.007 36.6562 120.781H58.6562ZM59.4479 116.732C59.9315 115.757 60.4093 115.328 60.8385 115.061L49.224 96.3766C45.0282 98.9848 41.881 102.639 39.7396 106.955L59.4479 116.732ZM60.801 115.084C61.2494 114.808 61.8745 114.562 63 114.562V92.5625C58.1672 92.5625 53.4797 93.7546 49.2615 96.3534L60.801 115.084ZM63 114.562C64.7437 114.562 65.3689 115.015 65.9347 115.652L82.3778 101.036C77.2769 95.2973 70.4646 92.5625 63 92.5625V114.562ZM65.9614 115.682C66.6081 116.404 67.4375 117.81 67.4375 121.062H89.4375C89.4375 113.731 87.4127 106.659 82.3511 101.006L65.9614 115.682ZM67.4375 121.062V121.469H89.4375V121.062H67.4375ZM67.4375 121.469C67.4375 123.315 67.0898 124.602 66.6305 125.551L86.432 135.137C88.5144 130.836 89.4375 126.206 89.4375 121.469H67.4375ZM66.6145 125.584C66.2317 126.381 65.8226 126.783 65.3323 127.086L76.9177 145.789C81.1358 143.176 84.3308 139.515 86.448 135.104L66.6145 125.584ZM65.295 127.11C64.8911 127.362 64.2671 127.625 63.0625 127.625V149.625C67.9412 149.625 72.6923 148.43 76.955 145.765L65.295 127.11ZM63.0625 127.625C61.3562 127.625 60.7068 127.182 60.1011 126.506L43.7114 141.182C48.8141 146.88 55.6022 149.625 63.0625 149.625V127.625ZM60.1278 126.536C59.4731 125.799 58.6562 124.393 58.6562 121.188H36.6562C36.6562 128.482 38.6727 135.513 43.6847 141.152L60.1278 126.536ZM58.6562 121.188V120.781H36.6562V121.188H58.6562ZM42.4688 121.469C42.4688 126.871 43.7236 132.453 47.3109 137.164L64.8141 123.836C64.9431 124.005 64.4688 123.567 64.4688 121.469H42.4688ZM47.3496 137.215C51.2242 142.242 56.8036 144.906 63.0625 144.906V122.906C63.0487 122.906 63.1396 122.905 63.3096 122.942C63.4839 122.98 63.7023 123.049 63.9381 123.164C64.4537 123.414 64.7235 123.718 64.7754 123.785L47.3496 137.215ZM63.0625 144.906C69.3569 144.906 74.9794 142.215 78.8433 137.094L61.2817 123.843C61.3452 123.759 61.6305 123.437 62.1669 123.173C62.695 122.914 63.0702 122.906 63.0625 122.906V144.906ZM78.872 137.056C82.5238 132.172 83.6562 126.302 83.6562 120.781H61.6562C61.6562 123.552 61.0595 124.14 61.253 123.881L78.872 137.056ZM83.6562 120.781C83.6562 115.329 82.3364 109.756 78.7041 105.055L61.2959 118.507C61.2968 118.508 61.3092 118.524 61.3312 118.568C61.3538 118.613 61.3955 118.706 61.4421 118.864C61.5371 119.186 61.6562 119.792 61.6562 120.781H83.6562ZM78.7715 105.143C74.9282 100.065 69.339 97.3125 63 97.3125V119.312C63.0004 119.312 62.8956 119.312 62.7122 119.272C62.5243 119.23 62.2958 119.156 62.0534 119.036C61.5259 118.775 61.2641 118.466 61.2285 118.419L78.7715 105.143ZM63 97.3125C56.7162 97.3125 51.2025 100.045 47.3808 105.004L64.8067 118.433C64.7776 118.471 64.5218 118.771 63.9985 119.029C63.4737 119.288 63.0693 119.312 63 119.312V97.3125ZM47.3808 105.004C43.59 109.923 42.4688 115.918 42.4688 121.469H64.4688C64.4688 118.561 65.0975 118.056 64.8067 118.433L47.3808 105.004ZM106.562 134.656L117.555 134.245L116.499 105.992L98.1828 127.53L106.562 134.656ZM88.4062 135.5L80.1937 142.818L80.2319 142.861L80.2706 142.903L88.4062 135.5ZM85.5625 126.188H74.5625V126.215L74.5626 126.243L85.5625 126.188ZM85.5625 104.188V93.1875H74.5625V104.188H85.5625ZM91.3438 104.188H102.344V93.1875H91.3438V104.188ZM106.406 128.781L116.463 133.237L117.406 131.109V128.781H106.406ZM106.406 104.188V93.1875H95.4062V104.188H106.406ZM112.188 104.188H123.188V93.1875H112.188V104.188ZM112.188 138V149H123.188V138H112.188ZM106.688 138L95.6952 138.411L96.091 149H106.688V138ZM98.1828 127.53C98.1936 127.517 98.2288 127.481 98.2809 127.444C98.3321 127.407 98.3514 127.404 98.3076 127.422C98.2132 127.46 97.7367 127.625 96.6562 127.625V149.625C103.35 149.625 110.089 147.489 114.942 141.782L98.1828 127.53ZM96.6562 127.625C95.8948 127.625 95.6716 127.513 95.7871 127.557C95.8496 127.581 95.9734 127.636 96.1277 127.74C96.2837 127.845 96.4257 127.969 96.5419 128.097L80.2706 142.903C84.7994 147.88 90.876 149.625 96.6562 149.625V127.625ZM96.6188 128.182C96.8868 128.483 96.8897 128.644 96.8095 128.381C96.7179 128.081 96.5687 127.383 96.5624 126.132L74.5626 126.243C74.591 131.827 75.8733 137.97 80.1937 142.818L96.6188 128.182ZM96.5625 126.188V104.188H74.5625V126.188H96.5625ZM85.5625 115.188H91.3438V93.1875H85.5625V115.188ZM80.3438 104.188V126.031H102.344V104.188H80.3438ZM80.3438 126.031C80.3438 129.8 81.0642 134.668 84.3711 138.736C88.0322 143.239 93.1435 144.719 97.5938 144.719V122.719C97.6591 122.719 98.2191 122.727 99.0323 123.061C99.9128 123.422 100.775 124.038 101.441 124.858C102.665 126.363 102.344 127.387 102.344 126.031H80.3438ZM97.5938 144.719C101.116 144.719 104.941 144.067 108.486 142.081C112.177 140.013 114.842 136.897 116.463 133.237L96.3491 124.326C96.4054 124.198 96.5461 123.934 96.8194 123.627C97.0982 123.314 97.4207 123.063 97.7327 122.888C98.3403 122.548 98.4884 122.719 97.5938 122.719V144.719ZM117.406 128.781V104.188H95.4062V128.781H117.406ZM106.406 115.188H112.188V93.1875H106.406V115.188ZM101.188 104.188V138H123.188V104.188H101.188ZM112.188 127H106.688V149H112.188V127ZM117.68 137.589L117.555 134.245L95.5702 135.067L95.6952 138.411L117.68 137.589ZM24.8125 179.188L35.803 178.73L35.3637 168.188H24.8125V179.188ZM24.9688 182.938L13.9783 183.395L15.1483 211.476L33.3501 190.062L24.9688 182.938ZM44.6562 184L34.7058 188.689L42.8397 205.949L53.7004 190.261L44.6562 184ZM49.0312 180.062L43.7174 170.431L43.6938 170.444L43.6702 170.457L49.0312 180.062ZM66.75 190.344H77.75V190.256L77.7486 190.169L66.75 190.344ZM66.75 213V224H77.75V213H66.75ZM60.9688 213H49.9688V224H60.9688V213ZM59.3125 185.281L51.1922 192.702L51.2243 192.737L51.2568 192.772L59.3125 185.281ZM48.4062 185.406L55.7515 193.594L55.7847 193.565L55.8175 193.535L48.4062 185.406ZM45.9375 190.562L34.9985 189.405L34.9375 189.982V190.562H45.9375ZM45.9375 213V224H56.9375V213H45.9375ZM40.125 213H29.125V224H40.125V213ZM25.125 188.312L15.0279 183.948L14.125 186.037V188.312H25.125ZM25.125 213V224H36.125V213H25.125ZM19.3438 213H8.34375V224H19.3438V213ZM19.3438 179.188V168.188H8.34375V179.188H19.3438ZM13.822 179.645L13.9783 183.395L35.9592 182.48L35.803 178.73L13.822 179.645ZM33.3501 190.062C33.5594 189.815 33.6735 189.765 33.7334 189.739C33.8211 189.701 34.1783 189.562 35 189.562V167.562C27.9266 167.562 21.3802 170.175 16.5874 175.813L33.3501 190.062ZM35 189.562C35.9921 189.562 36.0012 189.753 35.5636 189.507C35.3453 189.384 35.124 189.21 34.9405 189.007C34.7628 188.811 34.6995 188.676 34.7058 188.689L54.6067 179.311C52.8664 175.618 50.127 172.459 46.3582 170.337C42.7019 168.278 38.7371 167.562 35 167.562V189.562ZM53.7004 190.261C53.8322 190.071 54.0099 189.881 54.3923 189.668L43.6702 170.457C40.4693 172.244 37.7303 174.679 35.6121 177.739L53.7004 190.261ZM54.3451 189.694C54.3189 189.708 54.3543 189.682 54.5 189.648C54.6537 189.612 54.9526 189.562 55.4375 189.562V167.562C51.4694 167.562 47.4374 168.379 43.7174 170.431L54.3451 189.694ZM55.4375 189.562C56.3494 189.562 56.6973 189.686 56.6731 189.678C56.652 189.671 56.5444 189.63 56.3862 189.53C56.2249 189.429 56.0532 189.293 55.8937 189.127C55.7351 188.961 55.6289 188.809 55.5662 188.701C55.5059 188.598 55.5034 188.566 55.5289 188.643C55.5871 188.819 55.7334 189.388 55.7514 190.519L77.7486 190.169C77.6613 184.684 76.2788 178.593 71.7625 173.889C67.1379 169.073 61.0213 167.562 55.4375 167.562V189.562ZM55.75 190.344V213H77.75V190.344H55.75ZM66.75 202H60.9688V224H66.75V202ZM71.9688 213V190.688H49.9688V213H71.9688ZM71.9688 190.688C71.9688 186.827 71.1114 181.817 67.3682 177.791L51.2568 192.772C50.506 191.964 50.1695 191.178 50.0372 190.746C49.9179 190.356 49.9688 190.28 49.9688 190.688H71.9688ZM67.4328 177.861C63.286 173.323 57.6575 172.469 53.75 172.469V194.469C54.2576 194.469 54.158 194.535 53.6858 194.381C53.1524 194.207 52.1472 193.747 51.1922 192.702L67.4328 177.861ZM53.75 172.469C49.2148 172.469 44.6841 173.914 40.995 177.278L55.8175 193.535C55.4748 193.847 55.0335 194.121 54.5541 194.294C54.0946 194.461 53.788 194.469 53.75 194.469V172.469ZM41.061 177.218C37.3241 180.57 35.4697 184.95 34.9985 189.405L56.8765 191.72C56.8778 191.707 56.8496 191.978 56.648 192.399C56.4359 192.842 56.121 193.263 55.7515 193.594L41.061 177.218ZM34.9375 190.562V213H56.9375V190.562H34.9375ZM45.9375 202H40.125V224H45.9375V202ZM51.125 213V190.844H29.125V213H51.125ZM51.125 190.844C51.125 186.748 50.123 181.645 46.1813 177.618C42.197 173.547 37.0685 172.469 32.9062 172.469V194.469C33.5565 194.469 32.0374 194.619 30.4593 193.007C28.9239 191.438 29.125 190.023 29.125 190.844H51.125ZM32.9062 172.469C29.4495 172.469 25.7219 173.214 22.3041 175.341C18.8293 177.504 16.4754 180.599 15.0279 183.948L35.2221 192.677C35.2104 192.704 35.1185 192.906 34.8872 193.187C34.6473 193.478 34.3231 193.774 33.9303 194.018C33.1062 194.531 32.5714 194.469 32.9062 194.469V172.469ZM14.125 188.312V213H36.125V188.312H14.125ZM25.125 202H19.3438V224H25.125V202ZM30.3438 213V179.188H8.34375V213H30.3438ZM19.3438 190.188H24.8125V168.188H19.3438V190.188ZM78.3438 209.125L70.3756 216.708L70.3887 216.722L70.4019 216.736L78.3438 209.125ZM75.9375 187L66.0525 182.174L66.0446 182.191L66.0367 182.207L75.9375 187ZM81.3125 180.812L87.2778 190.055L87.2882 190.048L87.2986 190.041L81.3125 180.812ZM99.0625 182.906L90.6469 189.99L99.0625 182.906ZM102.719 197.75V208.75H113.719V197.75H102.719ZM79.8125 197.75V186.75H68.5341L68.8159 198.025L79.8125 197.75ZM82.7188 205.844L74.5384 213.198L74.5774 213.241L74.6169 213.284L82.7188 205.844ZM98.75 204.344L105.509 195.665L96.7972 188.881L90.0459 197.618L98.75 204.344ZM102.281 207.094L111.501 213.093L117.012 204.624L109.04 198.415L102.281 207.094ZM82.9375 185.875L90.9593 193.402L90.9824 193.377L91.0052 193.352L82.9375 185.875ZM80 193L69.0815 191.663L67.5709 204H80V193ZM96.9375 193V204H107.938V193H96.9375ZM96.9375 192.562H107.938V192.251L107.92 191.939L96.9375 192.562ZM94.5625 185.75L86.271 192.978L86.2941 193.005L86.3174 193.031L94.5625 185.75ZM89.5312 202.625C87.605 202.625 86.8609 202.114 86.2856 201.514L70.4019 216.736C75.5766 222.136 82.2908 224.625 89.5312 224.625V202.625ZM86.3119 201.542C85.7753 200.978 85.0312 199.875 85.0312 197.031H63.0312C63.0312 204.271 65.1622 211.231 70.3756 216.708L86.3119 201.542ZM85.0312 197.031V195.969H63.0312V197.031H85.0312ZM85.0312 195.969C85.0312 194.026 85.3922 192.715 85.8383 191.793L66.0367 182.207C63.9412 186.535 63.0312 191.204 63.0312 195.969H85.0312ZM85.8225 191.826C86.307 190.833 86.8043 190.36 87.2778 190.055L75.3472 171.57C71.2373 174.223 68.1514 177.875 66.0525 182.174L85.8225 191.826ZM87.2986 190.041C87.877 189.666 88.3065 189.562 88.8125 189.562V167.562C83.9435 167.562 79.373 168.959 75.3264 171.584L87.2986 190.041ZM88.8125 189.562C89.8035 189.562 90.2558 189.724 90.3798 189.777C90.4602 189.811 90.5206 189.84 90.6469 189.99L107.478 175.823C102.602 170.03 95.8713 167.562 88.8125 167.562V189.562ZM90.6469 189.99C90.8294 190.207 91.7188 191.455 91.7188 195.344H113.719C113.719 188.441 112.171 181.398 107.478 175.823L90.6469 189.99ZM91.7188 195.344V197.75H113.719V195.344H91.7188ZM102.719 186.75H79.8125V208.75H102.719V186.75ZM68.8159 198.025C68.9509 203.424 70.5943 208.811 74.5384 213.198L90.8991 198.49C90.9571 198.554 90.9736 198.609 90.9544 198.556C90.9258 198.476 90.8261 198.155 90.8091 197.475L68.8159 198.025ZM74.6169 213.284C78.6612 217.688 84.0184 219.906 89.8438 219.906V197.906C89.7319 197.906 89.919 197.892 90.2501 198.035C90.4027 198.1 90.5389 198.179 90.6496 198.259C90.7584 198.338 90.8134 198.395 90.8206 198.403L74.6169 213.284ZM89.8438 219.906C93.3756 219.906 97.1369 219.18 100.608 217.138L89.454 198.175C89.7541 197.998 89.9915 197.925 90.095 197.9C90.1877 197.878 90.1215 197.906 89.8438 197.906V219.906ZM100.608 217.138C103.302 215.553 105.584 213.49 107.454 211.07L90.0459 197.618C89.7908 197.948 89.5942 198.093 89.454 198.175L100.608 217.138ZM91.9913 213.022L95.5226 215.772L109.04 198.415L105.509 195.665L91.9913 213.022ZM93.0614 201.094C92.4674 202.007 91.8782 202.625 89.5312 202.625V224.625C98.5177 224.625 106.428 220.889 111.501 213.093L93.0614 201.094ZM88.8125 172.312C83.423 172.312 78.5389 174.439 74.8698 178.398L91.0052 193.352C90.86 193.509 90.5233 193.804 89.9915 194.036C89.4601 194.268 89.0186 194.312 88.8125 194.312V172.312ZM74.9157 178.348C71.2769 182.227 69.6467 187.047 69.0815 191.663L90.9185 194.337C91.0091 193.597 91.139 193.227 91.1852 193.115C91.2226 193.024 91.1747 193.172 90.9593 193.402L74.9157 178.348ZM80 204H96.9375V182H80V204ZM107.938 193V192.562H85.9375V193H107.938ZM107.92 191.939C107.665 187.451 106.374 182.507 102.808 178.469L86.3174 193.031C86.1521 192.844 86.0324 192.668 85.9508 192.525C85.8705 192.384 85.8374 192.293 85.8319 192.277C85.8269 192.263 85.8489 192.323 85.8769 192.475C85.905 192.628 85.9367 192.86 85.9552 193.186L107.92 191.939ZM102.854 178.522C99.0815 174.194 93.9783 172.312 88.8125 172.312V194.312C88.7806 194.312 88.3697 194.304 87.7693 194.049C87.137 193.781 86.6183 193.377 86.271 192.978L102.854 178.522ZM111.719 183.312L120.386 190.086L120.397 190.072L120.408 190.058L111.719 183.312ZM130.781 182.625L122.416 189.768L141.781 212.448V182.625H130.781ZM130.781 165V154H119.781V165H130.781ZM136.562 165H147.562V154H136.562V165ZM136.562 213V224H147.562V213H136.562ZM131.25 213L120.283 213.851L121.07 224H131.25V213ZM130.969 209.375L141.936 208.524L139.811 181.144L122.447 202.42L130.969 209.375ZM111.719 208.812L102.987 215.503L103.001 215.521L103.015 215.538L111.719 208.812ZM130.781 203.781L140.57 208.799L141.781 206.437V203.781H130.781ZM130.781 188.25H141.781V185.458L140.45 183.005L130.781 188.25ZM119.031 195.812C119.031 192.34 119.839 190.786 120.386 190.086L103.051 176.539C98.6816 182.131 97.0312 188.91 97.0312 195.812H119.031ZM120.408 190.058C120.58 189.836 120.704 189.721 120.764 189.671C120.82 189.623 120.841 189.616 120.832 189.62C120.823 189.625 120.836 189.616 120.896 189.603C120.961 189.588 121.112 189.562 121.375 189.562V167.562C113.968 167.562 107.554 170.74 103.03 176.567L120.408 190.058ZM121.375 189.562C121.738 189.562 121.981 189.594 122.127 189.621C122.269 189.648 122.329 189.674 122.334 189.677C122.336 189.678 122.325 189.672 122.317 189.666C122.31 189.661 122.344 189.684 122.416 189.768L139.147 175.482C134.496 170.035 128.148 167.562 121.375 167.562V189.562ZM141.781 182.625V165H119.781V182.625H141.781ZM130.781 176H136.562V154H130.781V176ZM125.562 165V213H147.562V165H125.562ZM136.562 202H131.25V224H136.562V202ZM142.217 212.149L141.936 208.524L120.002 210.226L120.283 213.851L142.217 212.149ZM122.447 202.42C122.379 202.503 122.349 202.522 122.362 202.512C122.377 202.501 122.392 202.493 122.389 202.495C122.383 202.497 122.314 202.527 122.153 202.559C121.988 202.59 121.715 202.625 121.312 202.625V224.625C128.265 224.625 134.805 222.071 139.491 216.33L122.447 202.42ZM121.312 202.625C121.088 202.625 120.968 202.602 120.929 202.594C120.894 202.586 120.895 202.583 120.909 202.59C120.922 202.596 120.895 202.586 120.826 202.527C120.753 202.465 120.614 202.333 120.423 202.087L103.015 215.538C107.491 221.332 113.852 224.625 121.312 224.625V202.625ZM120.45 202.122C119.829 201.311 119.031 199.678 119.031 196.25H97.0312C97.0312 203.156 98.6917 209.897 102.987 215.503L120.45 202.122ZM119.031 196.25V195.812H97.0312V196.25H119.031ZM102.812 196.469C102.812 201.67 103.869 207.255 107.306 211.959L125.069 198.979C125.339 199.349 124.812 198.934 124.812 196.469H102.812ZM107.306 211.959C111.057 217.092 116.614 219.719 122.75 219.719V197.719C122.804 197.719 123.269 197.738 123.897 198.049C124.541 198.368 124.923 198.779 125.069 198.979L107.306 211.959ZM122.75 219.719C126.273 219.719 129.926 218.91 133.269 216.855C136.606 214.803 138.972 211.916 140.57 208.799L120.993 198.763C120.903 198.938 121.086 198.52 121.747 198.114C122.047 197.929 122.333 197.819 122.552 197.763C122.761 197.708 122.844 197.719 122.75 197.719V219.719ZM141.781 203.781V188.25H119.781V203.781H141.781ZM140.45 183.005C138.809 179.98 136.436 177.202 133.152 175.232C129.861 173.257 126.28 172.469 122.812 172.469V194.469C122.892 194.469 122.807 194.477 122.604 194.425C122.392 194.371 122.119 194.268 121.833 194.096C121.205 193.72 121.024 193.332 121.112 193.495L140.45 183.005ZM122.812 172.469C116.656 172.469 111.046 175.093 107.277 180.3L125.098 193.2C124.946 193.41 124.558 193.827 123.913 194.146C123.618 194.292 123.349 194.378 123.137 194.424C122.93 194.469 122.812 194.469 122.812 194.469V172.469ZM107.277 180.3C103.746 185.178 102.812 191.123 102.812 196.469H124.812C124.812 194.966 124.954 193.993 125.092 193.432C125.227 192.879 125.312 192.905 125.098 193.2L107.277 180.3ZM151.844 213V224H162.844V213H151.844ZM146.062 213H135.062V224H146.062V213ZM146.062 179.188V168.188H135.062V179.188H146.062ZM151.844 179.188H162.844V168.188H151.844V179.188ZM146.438 167.844L138.274 160.471L138.208 160.544L138.143 160.619L146.438 167.844ZM146.438 172.562L138.261 179.921L138.328 179.995L138.396 180.068L146.438 172.562ZM151.844 202H146.062V224H151.844V202ZM157.062 213V179.188H135.062V213H157.062ZM146.062 190.188H151.844V168.188H146.062V190.188ZM140.844 179.188V213H162.844V179.188H140.844ZM156.594 170.219C156.594 170.86 156.495 171.689 156.17 172.604C155.84 173.534 155.339 174.371 154.732 175.068L138.143 160.619C135.666 163.463 134.594 166.896 134.594 170.219H156.594ZM154.601 175.217C153.662 176.256 152.531 176.981 151.405 177.406C150.338 177.81 149.469 177.875 149 177.875V155.875C145.73 155.875 141.514 156.884 138.274 160.471L154.601 175.217ZM149 177.875C148.531 177.875 147.662 177.81 146.595 177.406C145.469 176.981 144.338 176.256 143.399 175.217L159.726 160.471C156.486 156.884 152.27 155.875 149 155.875V177.875ZM143.399 175.217C142.781 174.532 142.252 173.687 141.897 172.725C141.547 171.775 141.438 170.904 141.438 170.219H163.438C163.438 166.786 162.283 163.302 159.726 160.471L143.399 175.217ZM141.438 170.219C141.438 169.536 141.546 168.644 141.913 167.661C142.287 166.66 142.85 165.776 143.521 165.057L159.604 180.068C162.279 177.202 163.438 173.65 163.438 170.219H141.438ZM143.521 165.057C145.62 162.808 148.087 162.5 149 162.5V184.5C152.163 184.5 156.339 183.567 159.604 180.068L143.521 165.057ZM149 162.5C149.913 162.5 152.38 162.808 154.479 165.057L138.396 180.068C141.661 183.567 145.837 184.5 149 184.5V162.5ZM154.614 165.204C155.273 165.936 155.806 166.815 156.154 167.782C156.496 168.73 156.594 169.58 156.594 170.219H134.594C134.594 173.537 135.668 177.039 138.261 179.921L154.614 165.204ZM168.969 171H179.969V160H168.969V171ZM168.969 179.188H157.969V190.188H168.969V179.188ZM175.281 179.188H186.281V168.188H175.281V179.188ZM175.281 183.656V194.656H186.281V183.656H175.281ZM168.969 183.656V172.656H157.969V183.656H168.969ZM169.812 207.688L161.299 214.653L161.352 214.718L161.405 214.781L169.812 207.688ZM175.438 208.312H186.438V194.706L173.133 197.557L175.438 208.312ZM175.438 213L178.344 223.609L186.438 221.392V213H175.438ZM163.188 183.656H174.188V172.656H163.188V183.656ZM157.031 183.656H146.031V194.656H157.031V183.656ZM157.031 179.188V168.188H146.031V179.188H157.031ZM163.188 179.188V190.188H174.188V179.188H163.188ZM163.188 171V160H152.188V171H163.188ZM157.969 171V179.188H179.969V171H157.969ZM168.969 190.188H175.281V168.188H168.969V190.188ZM164.281 179.188V183.656H186.281V179.188H164.281ZM175.281 172.656H168.969V194.656H175.281V172.656ZM157.969 183.656V204.625H179.969V183.656H157.969ZM157.969 204.625C157.969 207.247 158.475 211.201 161.299 214.653L178.326 200.722C179.184 201.771 179.595 202.795 179.785 203.484C179.967 204.148 179.969 204.575 179.969 204.625H157.969ZM161.405 214.781C164.989 219.028 169.885 219.688 172.688 219.688V197.688C172.781 197.688 175.761 197.68 178.22 200.594L161.405 214.781ZM172.688 219.688C174.508 219.688 176.312 219.375 177.742 219.068L173.133 197.557C172.747 197.639 172.507 197.678 172.389 197.695C172.333 197.702 172.329 197.701 172.369 197.698C172.406 197.695 172.517 197.688 172.688 197.688V219.688ZM164.438 208.312V213H186.438V208.312H164.438ZM172.531 202.391C171.866 202.573 171.366 202.625 171 202.625V224.625C173.509 224.625 175.967 224.26 178.344 223.609L172.531 202.391ZM171 202.625C170.797 202.625 171.106 202.593 171.696 202.83C172.351 203.092 173.038 203.562 173.579 204.206L156.733 218.356C160.671 223.044 166.103 224.625 171 224.625V202.625ZM173.579 204.206C173.789 204.457 173.944 204.699 174.052 204.906C174.158 205.111 174.209 205.26 174.228 205.325C174.262 205.439 174.188 205.251 174.188 204.625H152.188C152.188 209.043 153.189 214.137 156.733 218.356L173.579 204.206ZM174.188 204.625V183.656H152.188V204.625H174.188ZM163.188 172.656H157.031V194.656H163.188V172.656ZM168.031 183.656V179.188H146.031V183.656H168.031ZM157.031 190.188H163.188V168.188H157.031V190.188ZM174.188 179.188V171H152.188V179.188H174.188ZM163.188 182H168.969V160H163.188V182ZM202.938 213L193.099 217.919L196.139 224H202.938V213ZM202.125 209.438L213.044 208.106L210.244 185.143L194.2 201.809L202.125 209.438ZM184.281 210.812L176.958 219.021L177.001 219.058L177.043 219.096L184.281 210.812ZM185.094 195.438L191.56 204.337L191.566 204.332L191.572 204.328L185.094 195.438ZM202.031 192.5V203.5H213.031V192.5H202.031ZM200.219 185.031L192.441 192.809L192.474 192.843L192.509 192.877L200.219 185.031ZM187.594 188.562V199.562H198.594V188.562H187.594ZM181.781 188.562H170.781V199.562H181.781V188.562ZM183.562 183.688L174.818 177.014L174.811 177.023L174.805 177.032L183.562 183.688ZM188.438 179.938L183.97 169.886L183.951 169.894L183.932 169.903L188.438 179.938ZM204.375 181.5L197.077 189.73L197.098 189.749L197.12 189.769L204.375 181.5ZM207.812 189.531H218.812V189.397L218.809 189.263L207.812 189.531ZM209 212.5H220V210.226L219.099 208.139L209 212.5ZM209 213V224H220V213H209ZM202.031 203.531L211.924 208.34L213.031 206.063V203.531H202.031ZM202.031 196.594H213.031V185.594H202.031V196.594ZM212.776 208.081C212.891 208.311 212.975 208.506 213.033 208.652C213.092 208.799 213.132 208.915 213.158 208.994C213.184 209.074 213.199 209.129 213.206 209.154C213.213 209.179 213.214 209.183 213.209 209.163C213.199 209.12 213.176 209.012 213.145 208.825C213.115 208.641 213.08 208.403 213.044 208.106L191.206 210.769C191.419 212.519 191.838 215.399 193.099 217.919L212.776 208.081ZM194.2 201.809C193.495 202.541 193.11 202.625 192.5 202.625V224.625C199.348 224.625 205.38 221.917 210.05 217.066L194.2 201.809ZM192.5 202.625C191.865 202.625 191.571 202.537 191.507 202.514C191.472 202.503 191.472 202.499 191.49 202.51C191.509 202.521 191.521 202.53 191.519 202.529L177.043 219.096C181.526 223.013 186.983 224.625 192.5 224.625V202.625ZM191.604 202.604C191.594 202.595 191.643 202.637 191.717 202.738C191.794 202.841 191.876 202.976 191.946 203.134C192.1 203.482 192.094 203.699 192.094 203.625H170.094C170.094 209.595 172.449 214.998 176.958 219.021L191.604 202.604ZM192.094 203.625C192.094 203.439 192.111 203.383 192.102 203.428C192.091 203.478 192.058 203.602 191.977 203.766C191.896 203.932 191.796 204.081 191.696 204.198C191.598 204.311 191.537 204.353 191.56 204.337L178.628 186.538C172.893 190.705 170.094 196.864 170.094 203.625H192.094ZM191.572 204.328C191.691 204.241 192.856 203.5 196.406 203.5V181.5C190.249 181.5 183.872 182.717 178.616 186.547L191.572 204.328ZM196.406 203.5H202.031V181.5H196.406V203.5ZM213.031 192.5V189.844H191.031V192.5H213.031ZM213.031 189.844C213.031 185.484 211.641 180.834 207.929 177.186L192.509 192.877C191.96 192.337 191.538 191.676 191.284 191.002C191.044 190.365 191.031 189.926 191.031 189.844H213.031ZM207.997 177.253C204.047 173.303 199.022 172.219 194.875 172.219V194.219C195.14 194.219 194.936 194.256 194.443 194.089C193.899 193.904 193.146 193.515 192.441 192.809L207.997 177.253ZM194.875 172.219C190.892 172.219 186.737 173.258 183.109 175.965L196.266 193.597C195.9 193.871 195.52 194.047 195.204 194.142C194.905 194.232 194.769 194.219 194.875 194.219V172.219ZM183.109 175.965C179.489 178.666 176.594 182.969 176.594 188.562H198.594C198.594 189.635 198.319 190.791 197.74 191.836C197.193 192.826 196.563 193.376 196.266 193.597L183.109 175.965ZM187.594 177.562H181.781V199.562H187.594V177.562ZM192.781 188.562C192.781 189.039 192.692 189.487 192.558 189.853C192.431 190.203 192.304 190.364 192.32 190.343L174.805 177.032C172.409 180.184 170.781 184.093 170.781 188.562H192.781ZM192.307 190.361C192.308 190.36 192.325 190.334 192.394 190.281C192.468 190.225 192.634 190.111 192.943 189.972L183.932 169.903C180.429 171.475 177.269 173.802 174.818 177.014L192.307 190.361ZM192.905 189.989C193.44 189.752 194.161 189.562 195.219 189.562V167.562C191.36 167.562 187.56 168.29 183.97 169.886L192.905 189.989ZM195.219 189.562C196.263 189.562 196.834 189.696 197.069 189.771C197.268 189.835 197.21 189.849 197.077 189.73L211.673 173.27C206.882 169.021 200.928 167.562 195.219 167.562V189.562ZM197.12 189.769C197.078 189.732 197.008 189.661 196.934 189.559C196.86 189.457 196.808 189.36 196.778 189.289C196.714 189.14 196.802 189.25 196.816 189.799L218.809 189.263C218.664 183.323 216.531 177.532 211.63 173.231L197.12 189.769ZM196.812 189.531V205.094H218.812V189.531H196.812ZM196.812 205.094C196.812 208.954 197.278 213.101 198.901 216.861L219.099 208.139C219.142 208.24 219.059 208.08 218.971 207.532C218.884 206.991 218.812 206.196 218.812 205.094H196.812ZM198 212.5V213H220V212.5H198ZM209 202H202.938V224H209V202ZM193.344 219.594C197.155 219.594 200.762 218.582 203.997 216.716L193.003 197.659C192.965 197.682 193 197.657 193.098 197.63C193.198 197.602 193.289 197.594 193.344 197.594V219.594ZM203.997 216.716C207.28 214.822 210.117 212.058 211.924 208.34L192.138 198.722C192.289 198.413 192.485 198.14 192.689 197.929C192.886 197.725 193.021 197.649 193.003 197.659L203.997 216.716ZM213.031 203.531V196.594H191.031V203.531H213.031ZM202.031 185.594H197.5V207.594H202.031V185.594ZM197.5 185.594C193.245 185.594 188.25 186.153 183.975 188.655C178.79 191.69 175.875 196.883 175.875 202.812H197.875C197.875 203.379 197.74 204.407 197.098 205.536C196.452 206.669 195.62 207.33 195.088 207.642C194.625 207.913 194.48 207.872 194.958 207.779C195.418 207.689 196.233 207.594 197.5 207.594V185.594ZM175.875 202.812C175.875 207.336 177.53 212.036 181.589 215.465L195.786 198.66C196.457 199.226 197.056 200.004 197.446 200.919C197.82 201.794 197.875 202.494 197.875 202.812H175.875ZM181.589 215.465C185.158 218.481 189.388 219.594 193.344 219.594V197.594C193.38 197.594 193.7 197.599 194.194 197.761C194.714 197.932 195.277 198.229 195.786 198.66L181.589 215.465ZM224.719 171H235.719V160H224.719V171ZM224.719 179.188H213.719V190.188H224.719V179.188ZM231.031 179.188H242.031V168.188H231.031V179.188ZM231.031 183.656V194.656H242.031V183.656H231.031ZM224.719 183.656V172.656H213.719V183.656H224.719ZM225.562 207.688L217.049 214.653L217.102 214.718L217.155 214.781L225.562 207.688ZM231.188 208.312H242.188V194.706L228.883 197.557L231.188 208.312ZM231.188 213L234.094 223.609L242.188 221.392V213H231.188ZM218.938 183.656H229.938V172.656H218.938V183.656ZM212.781 183.656H201.781V194.656H212.781V183.656ZM212.781 179.188V168.188H201.781V179.188H212.781ZM218.938 179.188V190.188H229.938V179.188H218.938ZM218.938 171V160H207.938V171H218.938ZM213.719 171V179.188H235.719V171H213.719ZM224.719 190.188H231.031V168.188H224.719V190.188ZM220.031 179.188V183.656H242.031V179.188H220.031ZM231.031 172.656H224.719V194.656H231.031V172.656ZM213.719 183.656V204.625H235.719V183.656H213.719ZM213.719 204.625C213.719 207.247 214.225 211.201 217.049 214.653L234.076 200.722C234.934 201.771 235.345 202.795 235.535 203.484C235.717 204.148 235.719 204.575 235.719 204.625H213.719ZM217.155 214.781C220.739 219.028 225.635 219.688 228.438 219.688V197.688C228.531 197.688 231.511 197.68 233.97 200.594L217.155 214.781ZM228.438 219.688C230.258 219.688 232.062 219.375 233.492 219.068L228.883 197.557C228.497 197.639 228.257 197.678 228.139 197.695C228.083 197.702 228.079 197.701 228.119 197.698C228.156 197.695 228.267 197.688 228.438 197.688V219.688ZM220.188 208.312V213H242.188V208.312H220.188ZM228.281 202.391C227.616 202.573 227.116 202.625 226.75 202.625V224.625C229.259 224.625 231.717 224.26 234.094 223.609L228.281 202.391ZM226.75 202.625C226.547 202.625 226.856 202.593 227.446 202.83C228.101 203.092 228.788 203.562 229.329 204.206L212.483 218.356C216.421 223.044 221.853 224.625 226.75 224.625V202.625ZM229.329 204.206C229.539 204.457 229.694 204.699 229.802 204.906C229.908 205.111 229.959 205.26 229.978 205.325C230.012 205.439 229.938 205.251 229.938 204.625H207.938C207.938 209.043 208.939 214.137 212.483 218.356L229.329 204.206ZM229.938 204.625V183.656H207.938V204.625H229.938ZM218.938 172.656H212.781V194.656H218.938V172.656ZM223.781 183.656V179.188H201.781V183.656H223.781ZM212.781 190.188H218.938V168.188H212.781V190.188ZM229.938 179.188V171H207.938V179.188H229.938ZM218.938 182H224.719V160H218.938V182ZM240.656 209.125L232.688 216.708L232.701 216.722L232.714 216.736L240.656 209.125ZM238.25 187L228.365 182.174L228.357 182.191L228.349 182.207L238.25 187ZM243.625 180.812L249.59 190.055L249.601 190.048L249.611 190.041L243.625 180.812ZM261.375 182.906L252.959 189.99L261.375 182.906ZM265.031 197.75V208.75H276.031V197.75H265.031ZM242.125 197.75V186.75H230.847L231.128 198.025L242.125 197.75ZM245.031 205.844L236.851 213.198L236.89 213.241L236.929 213.284L245.031 205.844ZM261.062 204.344L267.821 195.665L259.11 188.881L252.358 197.618L261.062 204.344ZM264.594 207.094L273.814 213.093L279.325 204.624L271.352 198.415L264.594 207.094ZM245.25 185.875L253.272 193.402L253.295 193.377L253.318 193.352L245.25 185.875ZM242.312 193L231.394 191.663L229.883 204H242.312V193ZM259.25 193V204H270.25V193H259.25ZM259.25 192.562H270.25V192.251L270.232 191.939L259.25 192.562ZM256.875 185.75L248.583 192.978L248.607 193.005L248.63 193.031L256.875 185.75ZM251.844 202.625C249.917 202.625 249.173 202.114 248.598 201.514L232.714 216.736C237.889 222.136 244.603 224.625 251.844 224.625V202.625ZM248.624 201.542C248.088 200.978 247.344 199.875 247.344 197.031H225.344C225.344 204.271 227.475 211.231 232.688 216.708L248.624 201.542ZM247.344 197.031V195.969H225.344V197.031H247.344ZM247.344 195.969C247.344 194.026 247.705 192.715 248.151 191.793L228.349 182.207C226.254 186.535 225.344 191.204 225.344 195.969H247.344ZM248.135 191.826C248.619 190.833 249.117 190.36 249.59 190.055L237.66 171.57C233.55 174.223 230.464 177.875 228.365 182.174L248.135 191.826ZM249.611 190.041C250.19 189.666 250.619 189.562 251.125 189.562V167.562C246.256 167.562 241.685 168.959 237.639 171.584L249.611 190.041ZM251.125 189.562C252.116 189.562 252.568 189.724 252.692 189.777C252.773 189.811 252.833 189.84 252.959 189.99L269.791 175.823C264.915 170.03 258.184 167.562 251.125 167.562V189.562ZM252.959 189.99C253.142 190.207 254.031 191.455 254.031 195.344H276.031C276.031 188.441 274.483 181.398 269.791 175.823L252.959 189.99ZM254.031 195.344V197.75H276.031V195.344H254.031ZM265.031 186.75H242.125V208.75H265.031V186.75ZM231.128 198.025C231.263 203.424 232.907 208.811 236.851 213.198L253.212 198.49C253.27 198.554 253.286 198.609 253.267 198.556C253.238 198.476 253.139 198.155 253.122 197.475L231.128 198.025ZM236.929 213.284C240.974 217.688 246.331 219.906 252.156 219.906V197.906C252.044 197.906 252.232 197.892 252.563 198.035C252.715 198.1 252.851 198.179 252.962 198.259C253.071 198.338 253.126 198.395 253.133 198.403L236.929 213.284ZM252.156 219.906C255.688 219.906 259.449 219.18 262.921 217.138L251.767 198.175C252.067 197.998 252.304 197.925 252.408 197.9C252.5 197.878 252.434 197.906 252.156 197.906V219.906ZM262.921 217.138C265.614 215.553 267.897 213.49 269.767 211.07L252.358 197.618C252.103 197.948 251.907 198.093 251.767 198.175L262.921 217.138ZM254.304 213.022L257.835 215.772L271.352 198.415L267.821 195.665L254.304 213.022ZM255.374 201.094C254.78 202.007 254.191 202.625 251.844 202.625V224.625C260.83 224.625 268.741 220.889 273.814 213.093L255.374 201.094ZM251.125 172.312C245.735 172.312 240.851 174.439 237.182 178.398L253.318 193.352C253.173 193.509 252.836 193.804 252.304 194.036C251.773 194.268 251.331 194.312 251.125 194.312V172.312ZM237.228 178.348C233.589 182.227 231.959 187.047 231.394 191.663L253.231 194.337C253.322 193.597 253.452 193.227 253.498 193.115C253.535 193.024 253.487 193.172 253.272 193.402L237.228 178.348ZM242.312 204H259.25V182H242.312V204ZM270.25 193V192.562H248.25V193H270.25ZM270.232 191.939C269.978 187.451 268.687 182.507 265.12 178.469L248.63 193.031C248.465 192.844 248.345 192.668 248.263 192.525C248.183 192.384 248.15 192.293 248.144 192.277C248.139 192.263 248.161 192.323 248.189 192.475C248.218 192.628 248.249 192.86 248.268 193.186L270.232 191.939ZM265.167 178.522C261.394 174.194 256.291 172.312 251.125 172.312V194.312C251.093 194.312 250.682 194.304 250.082 194.049C249.45 193.781 248.931 193.377 248.583 192.978L265.167 178.522ZM278.531 200.188L267.533 200.003L267.345 211.188H278.531V200.188ZM282.562 189.531L274.668 181.871L274.559 181.983L274.454 182.098L282.562 189.531ZM286.656 185.312L294.55 192.973L294.728 192.79L294.897 192.599L286.656 185.312ZM287.562 173.812L279.454 181.245L279.485 181.279L279.516 181.313L287.562 173.812ZM275.5 178.156V189.156H286.5V178.156H275.5ZM269.719 178.156L258.72 178.02L258.582 189.156H269.719V178.156ZM273.312 170L280.561 178.274L280.566 178.269L273.312 170ZM291.75 170.062L284.085 177.953L284.123 177.99L284.162 178.026L291.75 170.062ZM290 189.531L297.742 197.345L297.854 197.234L297.963 197.12L290 189.531ZM286.594 192.906L278.852 185.092L278.631 185.311L278.423 185.542L286.594 192.906ZM284.312 200.188V211.188H295.312V200.188H284.312ZM279.125 207.75L270.962 200.377L270.955 200.384L270.949 200.391L279.125 207.75ZM284.25 207.75L276.087 215.123L276.147 215.19L276.208 215.256L284.25 207.75ZM284.25 212.438L292.163 220.078L292.228 220.011L292.292 219.943L284.25 212.438ZM279.125 212.438L270.949 219.796L271.078 219.939L271.212 220.078L279.125 212.438ZM289.53 200.372C289.545 199.484 289.601 198.848 289.662 198.423C289.725 197.984 289.775 197.9 289.717 198.06L269.033 190.565C267.921 193.633 267.584 196.966 267.533 200.003L289.53 200.372ZM289.717 198.06C289.613 198.348 289.556 198.379 289.715 198.141C289.869 197.909 290.164 197.517 290.671 196.964L274.454 182.098C272.353 184.39 270.244 187.222 269.033 190.565L289.717 198.06ZM290.457 197.192L294.55 192.973L278.762 177.652L274.668 181.871L290.457 197.192ZM294.897 192.599C298.117 188.958 300.281 184.324 300.281 178.938H278.281C278.281 178.794 278.296 178.633 278.329 178.466C278.362 178.299 278.408 178.157 278.454 178.046C278.547 177.82 278.598 177.819 278.416 178.026L294.897 192.599ZM300.281 178.938C300.281 174.832 299.171 170.133 295.609 166.312L279.516 181.313C278.942 180.697 278.599 180.039 278.422 179.513C278.26 179.028 278.281 178.787 278.281 178.938H300.281ZM295.671 166.38C291.878 162.241 286.886 160.938 282.562 160.938V182.938C282.629 182.938 282.239 182.949 281.591 182.706C280.886 182.441 280.109 181.961 279.454 181.245L295.671 166.38ZM282.562 160.938C278.445 160.938 273.956 162.07 270.213 165.33L284.662 181.92C284.148 182.368 283.595 182.654 283.128 182.808C282.691 182.951 282.462 182.938 282.562 182.938V160.938ZM270.213 165.33C266.249 168.782 264.5 173.461 264.5 178.156H286.5C286.5 178.468 286.443 179.12 286.099 179.926C285.742 180.761 285.211 181.441 284.662 181.92L270.213 165.33ZM275.5 167.156H269.719V189.156H275.5V167.156ZM280.718 178.292C280.721 178.081 280.74 177.97 280.746 177.941C280.751 177.914 280.747 177.948 280.715 178.021C280.699 178.056 280.681 178.093 280.659 178.131C280.637 178.169 280.614 178.202 280.594 178.23C280.55 178.289 280.529 178.302 280.561 178.274L266.064 161.726C261.162 166.021 258.796 171.799 258.72 178.02L280.718 178.292ZM280.566 178.269C280.63 178.213 280.717 178.149 280.927 178.078C281.165 177.997 281.671 177.875 282.562 177.875V155.875C276.663 155.875 270.825 157.55 266.059 161.731L280.566 178.269ZM282.562 177.875C283.559 177.875 284.054 178.011 284.207 178.064C284.316 178.102 284.217 178.081 284.085 177.953L299.415 162.172C294.627 157.521 288.496 155.875 282.562 155.875V177.875ZM284.162 178.026C284.128 177.994 284.078 177.938 284.029 177.864C283.981 177.791 283.959 177.74 283.956 177.732C283.95 177.715 284.062 177.997 284.062 178.75H306.062C306.062 172.729 304.171 166.704 299.338 162.099L284.162 178.026ZM284.062 178.75C284.062 178.817 284.059 179.038 283.84 179.504C283.601 180.013 283.09 180.838 282.037 181.943L297.963 197.12C302.606 192.248 306.062 186.076 306.062 178.75H284.062ZM282.258 181.717L278.852 185.092L294.336 200.72L297.742 197.345L282.258 181.717ZM278.423 185.542C274.472 189.926 273.312 195.373 273.312 200.188H295.312C295.312 199.458 295.403 199.207 295.38 199.281C295.365 199.327 295.319 199.458 295.216 199.644C295.111 199.834 294.963 200.051 294.765 200.27L278.423 185.542ZM284.312 189.188H278.531V211.188H284.312V189.188ZM289.281 210.094C289.281 210.733 289.183 211.582 288.842 212.531C288.494 213.497 287.96 214.376 287.301 215.109L270.949 200.391C268.355 203.273 267.281 206.775 267.281 210.094H289.281ZM287.288 215.123C286.349 216.163 285.219 216.887 284.093 217.313C283.026 217.716 282.156 217.781 281.688 217.781V195.781C278.418 195.781 274.201 196.79 270.962 200.377L287.288 215.123ZM281.688 217.781C281.219 217.781 280.349 217.716 279.282 217.313C278.156 216.887 277.026 216.163 276.087 215.123L292.413 200.377C289.174 196.79 284.957 195.781 281.688 195.781V217.781ZM276.208 215.256C275.538 214.537 274.974 213.652 274.601 212.652C274.234 211.669 274.125 210.777 274.125 210.094H296.125C296.125 206.663 294.967 203.111 292.292 200.244L276.208 215.256ZM274.125 210.094C274.125 209.411 274.234 208.519 274.601 207.536C274.974 206.535 275.538 205.651 276.208 204.932L292.292 219.943C294.967 217.077 296.125 213.525 296.125 210.094H274.125ZM276.337 204.797C278.457 202.6 280.879 202.344 281.688 202.344V224.344C284.746 224.344 288.876 223.483 292.163 220.078L276.337 204.797ZM281.688 202.344C282.496 202.344 284.918 202.6 287.038 204.797L271.212 220.078C274.499 223.483 278.629 224.344 281.688 224.344V202.344ZM287.301 205.079C287.96 205.811 288.494 206.69 288.842 207.657C289.183 208.605 289.281 209.455 289.281 210.094H267.281C267.281 213.412 268.355 216.914 270.949 219.796L287.301 205.079Z" fill="url(#paint0_linear)"/>
<defs>
<linearGradient id="paint0_linear" x1="72.5" y1="4.00001" x2="296.5" y2="225.5" gradientUnits="userSpaceOnUse">
<stop offset="0.0364583" stop-color="#3C38F4"/>
<stop offset="0.255208" stop-color="#F3DB05" stop-opacity="0.51"/>
<stop offset="0.497662" stop-color="#27F285" stop-opacity="0.502338"/>
<stop offset="0.775685" stop-color="#DA1111" stop-opacity="0.47"/>
<stop offset="1" stop-color="#F438B4" stop-opacity="0.24"/>
</linearGradient>
</defs>
</svg>
